<svg width="47" height="53" viewBox="0 0 47 53" fill="none" xmlns="http://www.w3.org/2000/svg">
<path d="M26.5 52.5C12.1406 52.5 0.499999 40.8594 0.499999 26.5C0.499998 12.1406 12.1406 0.499999 26.5 0.499999L47.5 0.499998L47.5 52.5L26.5 52.5Z" fill="#DFDDF0"/>
<path d="M21.7902 20.7018C22.739 19.753 24.2773 19.753 25.2261 20.7018L30.2983 25.774C31.2471 26.7228 31.2471 28.2611 30.2983 29.2099C29.3495 30.1588 27.8111 30.1588 26.8623 29.2099L21.7902 24.1378C20.8413 23.1889 20.8413 21.6506 21.7902 20.7018Z" fill="#373563"/>
<path d="M21.7902 34.2821C22.739 35.2309 24.2773 35.2309 25.2262 34.2821L30.2983 29.2099C31.2471 28.2611 31.2471 26.7228 30.2983 25.774C29.3495 24.8251 27.8112 24.8251 26.8623 25.7739L21.7902 30.8461C20.8413 31.7949 20.8413 33.3333 21.7902 34.2821Z" fill="#373563"/>
</svg>
