<svg width="47" height="53" viewBox="0 0 47 53" fill="none" xmlns="http://www.w3.org/2000/svg">
<path d="M21 52.5C35.3594 52.5 47 40.8594 47 26.5C47 12.1406 35.3594 0.499999 21 0.499999L2.27299e-06 0.499998L0 52.5L21 52.5Z" fill="#DFDDF0"/>
<path d="M25.7098 20.7018C24.761 19.753 23.2227 19.753 22.2739 20.7018L17.2017 25.774C16.2529 26.7228 16.2529 28.2611 17.2017 29.2099C18.1505 30.1588 19.6889 30.1588 20.6377 29.2099L25.7098 24.1378C26.6587 23.1889 26.6587 21.6506 25.7098 20.7018Z" fill="#373563"/>
<path d="M25.7098 34.2821C24.761 35.2309 23.2227 35.2309 22.2738 34.2821L17.2017 29.2099C16.2529 28.2611 16.2529 26.7228 17.2017 25.774C18.1505 24.8251 19.6888 24.8251 20.6377 25.7739L25.7098 30.8461C26.6587 31.7949 26.6587 33.3333 25.7098 34.2821Z" fill="#373563"/>
</svg>
