<svg width="33" height="33" viewBox="0 0 33 33" fill="none" xmlns="http://www.w3.org/2000/svg">
<circle cx="16.5" cy="16.5" r="16.5" fill="#373563"/>
<path d="M25.4359 9.99999C26.3847 10.9488 26.3847 12.4872 25.4359 13.436L16.2261 23.2983C15.2773 24.2471 13.739 24.2471 12.7901 23.2983C11.8413 22.3495 11.8413 20.8111 12.7901 19.8623L21.9999 9.99998C22.9488 9.05116 24.4871 9.05116 25.4359 9.99999Z" fill="white"/>
<path d="M7.71797 14.7902C6.76915 15.739 6.76915 17.2773 7.71797 18.2261L12.7901 23.2983C13.739 24.2471 15.2773 24.2471 16.2261 23.2983C17.1749 22.3495 17.1749 20.8111 16.2261 19.8623L11.154 14.7902C10.2051 13.8413 8.66679 13.8413 7.71797 14.7902Z" fill="white"/>
</svg>
