<svg width="33" height="33" viewBox="0 0 33 33" fill="none" xmlns="http://www.w3.org/2000/svg">
<circle cx="16.5" cy="16.5" r="16.5" fill="#FFDB68"/>
<path d="M25.436 10C26.3849 10.9489 26.3849 12.4872 25.436 13.436L16.2262 23.2984C15.2774 24.2472 13.7391 24.2472 12.7903 23.2984C11.8414 22.3495 11.8414 20.8112 12.7903 19.8624L22.0001 10C22.9489 9.05122 24.4872 9.05122 25.436 10Z" fill="white"/>
<path d="M7.71809 14.7902C6.76927 15.739 6.76927 17.2774 7.71809 18.2262L12.7903 23.2984C13.7391 24.2472 15.2774 24.2472 16.2262 23.2984C17.1751 22.3495 17.1751 20.8112 16.2262 19.8624L11.1541 14.7902C10.2053 13.8414 8.66691 13.8414 7.71809 14.7902Z" fill="white"/>
</svg>
