<svg width="1170" height="46" viewBox="0 0 1170 46" fill="none" xmlns="http://www.w3.org/2000/svg">
<line x1="0.00012207" y1="22.5012" x2="1170" y2="22.5012" stroke="#9798E2"/>
<circle cx="584.5" cy="22.5012" r="22.5" fill="#FE9395"/>
<path d="M591.298 19.7914C592.247 20.7402 592.247 22.2785 591.298 23.2274L586.226 28.2995C585.277 29.2484 583.739 29.2484 582.79 28.2995C581.841 27.3507 581.841 25.8124 582.79 24.8635L587.862 19.7914C588.811 18.8426 590.35 18.8426 591.298 19.7914Z" fill="white"/>
<path d="M577.718 19.7914C576.769 20.7402 576.769 22.2786 577.718 23.2274L582.79 28.2995C583.739 29.2484 585.277 29.2484 586.226 28.2995C587.175 27.3507 587.175 25.8124 586.226 24.8636L581.154 19.7914C580.205 18.8426 578.667 18.8426 577.718 19.7914Z" fill="white"/>
</svg>
