<svg width="25" height="25" viewBox="0 0 25 25" fill="none" xmlns="http://www.w3.org/2000/svg">
<path d="M12.6428 24.9636C12.7357 22.6944 12.7152 20.427 13.196 18.2011C13.5242 16.6819 14.2392 15.3904 15.4816 14.4232C16.4483 13.6703 17.5675 13.2527 18.7626 13.0956C20.0705 12.9233 21.3889 12.824 22.7061 12.7381C23.4578 12.6891 24.2154 12.7294 24.9853 12.7294C24.9859 12.7387 24.9923 12.8053 24.9923 12.8725C24.9894 15.0429 25.0221 17.214 24.9713 19.3833C24.9222 21.4801 24.0863 23.1786 22.206 24.2551C21.3626 24.7382 20.4321 24.949 19.4735 24.9624C17.2258 24.994 14.9775 24.9852 12.7292 24.9917C12.7123 24.9917 12.6942 24.9806 12.6428 24.9636Z" fill="#373563"/>
<path d="M12.2929 24.9946C12.1942 24.9946 12.099 24.9946 12.0038 24.9946C9.99963 24.9946 7.99492 25.0098 5.9908 24.9893C4.71507 24.9765 3.47907 24.7633 2.39611 24.0168C0.967925 23.0326 0.148986 21.6524 0.0788908 19.9434C-0.0198259 17.5457 0.0204787 15.1428 0.00237086 12.7422C0.00237086 12.7241 0.0117169 12.7054 0.0193105 12.6797C0.391981 12.6797 0.767572 12.6663 1.14141 12.682C2.93525 12.7574 4.7326 12.7895 6.50366 13.1382C8.21222 13.4746 9.66902 14.2258 10.7023 15.6749C11.3822 16.6287 11.7193 17.7145 11.9126 18.8547C12.1842 20.4586 12.2397 22.0794 12.2917 23.6997C12.3046 24.1161 12.2929 24.5337 12.2929 24.9946Z" fill="#373563"/>
<path d="M12.6568 0.00504643C12.7684 0.00504643 12.8642 0.00504643 12.9605 0.00504643C14.9746 0.00504643 16.9892 -0.00897152 19.0033 0.00971922C20.3538 0.0225691 21.6517 0.270222 22.7656 1.1043C24.1395 2.13346 24.879 3.53 24.9286 5.22911C24.9964 7.55143 24.9754 9.8761 24.9917 12.2002C24.9917 12.2282 24.9835 12.2562 24.9777 12.293C24.4467 12.293 23.9169 12.31 23.3883 12.289C22.4864 12.2533 21.584 12.2124 20.6844 12.1388C19.3386 12.0296 17.9986 11.8719 16.7468 11.3112C15.085 10.5665 13.995 9.30953 13.4261 7.58706C12.995 6.28222 12.8799 4.92714 12.797 3.57031C12.7281 2.44653 12.7018 1.31982 12.6568 0.194874C12.6551 0.138218 12.6568 0.0821458 12.6568 0.00504643Z" fill="#373563"/>
<path d="M0.0117165 12.3263C0.00645942 12.2434 -0.000549871 12.1873 3.42518e-05 12.1318C0.0064596 9.94268 -0.00347029 7.75353 0.0280723 5.56554C0.0461801 4.31794 0.377962 3.15035 1.1601 2.14923C2.07542 0.976381 3.28105 0.260876 4.7583 0.13004C6.00423 0.0196483 7.26185 0.0278256 8.51479 0.00971894C9.7689 -0.00838772 11.0236 0.0056308 12.2923 0.0056308C12.2923 0.502688 12.3122 0.983974 12.2882 1.46351C12.2321 2.58846 12.1796 3.71399 12.0809 4.83544C11.9687 6.10524 11.7648 7.35927 11.1761 8.51576C10.3577 10.1237 9.05102 11.1348 7.33954 11.64C6.0644 12.0168 4.74662 12.1242 3.42767 12.1996C2.4294 12.2568 1.42938 12.286 0.429949 12.3258C0.2956 12.3304 0.161836 12.3263 0.0117165 12.3263Z" fill="#373563"/>
</svg>
