<svg width="19" height="14" viewBox="0 0 19 14" fill="none" xmlns="http://www.w3.org/2000/svg">
<path d="M19 12.5643C19 8.85546 19 5.14707 19 1.43824C18.9921 1.42206 18.9791 1.40632 18.9768 1.38969C18.8615 0.590029 18.144 -0.0149998 17.2256 0.000283205C16.49 0.0124197 15.7538 0.00253153 15.0177 0.00253153C10.6022 0.00253153 6.18677 0.0020811 1.77085 0.0029801C0.739141 0.0034296 0.00485802 0.683975 0.00346375 1.66254C-0.00164795 5.22169 -0.00211143 8.78039 0.00904274 12.3395C0.00997162 12.5881 0.07271 12.8569 0.182854 13.0808C0.499338 13.7236 1.06539 14 1.78944 14C6.92849 13.9996 12.0675 13.9996 17.2066 13.9996C17.2498 13.9996 17.293 14.0005 17.3362 13.9987C17.8716 13.9757 18.3131 13.7748 18.6496 13.3631C18.8438 13.1262 18.9294 12.8493 19 12.5643ZM17.0858 1.08808C14.5316 3.53696 12.0053 5.95977 9.49848 8.36281C6.97961 5.92786 4.47376 3.50505 1.97348 1.08808C6.98194 1.08808 12.0108 1.08808 17.0858 1.08808ZM11.6758 7.74924C13.4854 9.49959 15.257 11.2126 17.0123 12.9104C12.0141 12.9104 6.98147 12.9104 1.9837 12.9104C3.73576 11.2153 5.49897 9.50993 7.28355 7.7834C7.31143 7.81621 7.34954 7.87105 7.39694 7.91735C7.93836 8.44237 8.47931 8.96739 9.02398 9.48971C9.30887 9.763 9.61373 9.76165 9.9028 9.4924C10.0273 9.37598 10.1505 9.25821 10.2713 9.13865C10.7468 8.66937 11.2213 8.19919 11.6758 7.74924ZM17.8716 1.84953C17.8716 5.2999 17.8716 8.70937 17.8716 12.1193C16.0931 10.3999 14.3229 8.6878 12.5402 6.96396C14.3057 5.27024 16.0773 3.57067 17.8716 1.84953ZM6.39126 6.98284C4.6327 8.68375 2.87088 10.3878 1.12766 12.0734C1.12766 8.70173 1.12766 5.29406 1.12766 1.89179C2.89133 3.59764 4.65129 5.2999 6.39126 6.98284Z" fill="#373563"/>
</svg>
