<svg width="86" height="83" viewBox="0 0 86 83" fill="none" xmlns="http://www.w3.org/2000/svg">
<path d="M43.34 33.7365C43.34 31.7736 43.34 29.921 43.34 28.0685C43.34 24.7488 43.3264 21.4314 43.3445 18.1117C43.3943 9.55893 49.9427 1.83328 58.4087 0.3188C68.5117 -1.48866 77.7963 4.54447 80.114 14.4855C80.4238 15.8129 80.5481 17.2102 80.5549 18.5737C80.5956 26.4481 80.5821 34.3225 80.5617 42.1969C80.5594 42.7829 80.7087 43.1525 81.1948 43.5221C84.3221 45.9087 85.966 49.0752 85.9863 53.0169C86.0112 58.108 85.9954 63.1968 85.9909 68.2879C85.9886 70.652 84.4465 72.1981 82.0835 72.2003C75.2004 72.2048 68.315 72.1823 61.4319 72.2161C60.0186 72.2228 58.7411 72.02 57.6919 70.8211C57.312 71.4746 57.0429 72.0966 56.6291 72.6037C56.2809 73.0297 55.8128 73.4534 55.3108 73.6404C54.3408 74.001 53.3074 74.1971 52.2989 74.4518C51.4238 74.6749 51.0236 74.4675 50.7748 73.6201C50.4424 72.491 50.0332 71.3664 49.8771 70.208C49.7935 69.5883 50.1733 68.9054 50.3701 68.1549C49.5447 68.1549 48.6312 68.1347 47.7222 68.173C47.5526 68.1797 47.3514 68.3871 47.2383 68.5516C46.1416 70.1359 44.6334 70.8684 42.7068 70.8571C38.6729 70.8368 34.6389 70.8503 30.5348 70.8503C30.5348 72.4031 30.5348 73.9311 30.5348 75.5808C31.9345 75.5808 33.3613 75.5808 34.7881 75.5808C37.237 75.5808 37.237 75.5808 37.237 78.0351C37.237 79.2724 37.2438 80.5097 37.2347 81.7469C37.2279 82.6484 36.9069 82.9955 36.0363 82.9955C28.0226 83 20.0111 82.9977 11.9974 83C11.2399 83 10.8351 82.6484 10.8351 81.8799C10.8329 80.1649 10.8238 78.4498 10.8374 76.7325C10.8442 75.9099 11.1879 75.5876 12.0471 75.5831C13.8719 75.5741 15.699 75.5808 17.5645 75.5808C17.5645 73.9875 17.5645 72.4798 17.5645 70.8503C17.266 70.8503 16.9675 70.8503 16.6713 70.8503C12.8906 70.8503 9.10984 70.8526 5.3291 70.8503C2.15437 70.8481 0.0016959 68.7229 0.0016959 65.5857C-0.000565302 56.7265 -0.000565302 47.8672 0.0016959 39.0079C0.0016959 35.8595 2.14758 33.7343 5.32005 33.7343C17.621 33.732 29.922 33.7343 42.2229 33.7343C42.5599 33.7365 42.8945 33.7365 43.34 33.7365ZM30.4669 68.8288C34.7564 68.8288 38.9284 68.8648 43.1003 68.8108C44.8052 68.7882 46.0353 67.4518 46.0376 65.7164C46.0557 56.776 46.0557 47.8334 46.0376 38.893C46.0331 37.0495 44.7238 35.7626 42.8674 35.7604C30.3154 35.7491 17.7635 35.7491 5.21152 35.7604C3.3528 35.7626 2.03904 37.045 2.03452 38.884C2.01643 47.8244 2.01643 56.767 2.03452 65.7074C2.03904 67.5081 3.32793 68.8108 5.13011 68.8243C9.19124 68.8536 13.2546 68.831 17.3158 68.8265C17.3926 68.8265 17.4673 68.7815 17.6075 68.7364C17.6075 68.4366 17.6075 68.1324 17.6075 67.8281C17.6075 63.2171 17.6052 58.606 17.6097 53.995C17.6097 52.929 17.8969 52.6405 18.9551 52.6383C22.3402 52.6338 25.7252 52.6338 29.1102 52.6383C30.1775 52.6383 30.4669 52.9267 30.4669 53.9837C30.4692 58.5948 30.4692 63.2058 30.4692 67.8169C30.4669 68.1211 30.4669 68.4254 30.4669 68.8288ZM55.5279 38.0839C55.5279 37.4777 55.4849 36.912 55.5392 36.3576C55.6048 35.6882 55.3334 35.3389 54.7704 34.9603C50.9037 32.364 48.8596 28.7288 48.7646 24.0614C48.7217 21.8979 48.7556 19.7321 48.7578 17.5663C48.7601 16.4913 49.0314 16.2118 50.0806 16.1803C55.8128 16.009 60.7829 14.0032 64.9526 10.057C65.9905 9.07214 66.7503 9.28173 67.1347 10.6475C68.0505 13.9063 70.5084 15.9143 73.9002 16.1758C74.9155 16.2547 75.1574 16.5116 75.1597 17.546C75.1642 19.7118 75.1891 21.8776 75.1552 24.0412C75.0851 28.366 73.3394 31.9246 69.8323 34.4374C68.618 35.3074 68.2133 36.1638 68.3693 37.5227C68.419 37.9509 68.5321 38.1538 68.9346 38.3003C70.2823 38.7871 71.6164 39.3122 72.9573 39.826C74.7888 40.5269 76.6204 41.2323 78.5515 41.9738C78.5515 41.5523 78.5515 41.2481 78.5515 40.9461C78.5515 33.6644 78.5651 26.3805 78.5379 19.0988C78.5334 17.8976 78.4249 16.6829 78.2214 15.4974C76.7425 6.84775 68.0708 0.735732 59.4059 2.20514C51.1683 3.60243 45.3954 10.3838 45.3683 18.7247C45.3525 23.7008 45.3705 28.6793 45.357 33.6554C45.3547 34.1219 45.4881 34.3969 45.8906 34.6741C47.331 35.6657 48.0591 37.0675 48.0749 38.8231C48.0817 39.4857 48.0749 40.146 48.0749 40.9393C50.6414 39.9545 53.0722 39.0237 55.5279 38.0839ZM48.0727 66.1356C49.2576 66.1356 50.352 66.1604 51.4419 66.1131C51.6499 66.1041 51.9054 65.8494 52.0343 65.6443C52.6087 64.7113 53.1446 63.7557 53.694 62.8069C55.5663 59.5729 57.425 56.3321 59.3154 53.1093C60.5681 50.9705 63.0826 50.4544 64.9594 51.9148C66.4246 53.0552 66.7932 55.0317 65.8209 56.7693C64.9345 58.3536 64.0097 59.9154 63.0894 61.5065C64.5117 62.1105 65.8503 62.6897 67.198 63.2464C67.3947 63.3275 67.6367 63.3591 67.8492 63.332C70.1692 63.0526 72.4847 62.7438 74.8069 62.4801C75.2863 62.426 75.4491 62.2548 75.5328 61.7747C76.0167 59.0072 75.9828 56.2419 75.6572 53.4631C75.5418 52.4737 75.881 52.1064 76.8714 52.0974C78.8726 52.0816 80.876 52.0929 82.8794 52.0929C83.1757 52.0929 83.4741 52.0929 83.8224 52.0929C83.7998 51.7142 83.8156 51.4596 83.7658 51.2184C83.1146 48.0881 81.4549 45.5977 78.5357 44.2748C75.214 42.7693 71.7543 41.5726 68.3082 40.2249C67.1889 43.4297 65.0837 45.3183 61.6354 45.174C58.5082 45.0433 56.6155 43.1908 55.6319 40.252C53.3119 41.1354 51.0416 42.0211 48.751 42.8595C48.2038 43.0601 48.0569 43.344 48.0591 43.9052C48.084 48.1219 48.0727 52.3385 48.0727 56.5552C48.0727 59.7081 48.0727 62.8542 48.0727 66.1356ZM65.4275 12.4054C61.1967 16.0022 56.3306 17.8931 50.9196 18.2176C50.9196 20.6606 50.7206 23.0586 50.9603 25.4137C51.4916 30.658 55.8309 34.602 61.2849 35.0617C66.2618 35.4809 71.1732 32.0553 72.6362 27.1355C73.5045 24.2147 72.9799 21.2218 73.1517 18.2875C67.9012 16.338 67.9012 16.338 65.4275 12.4054ZM77.8098 62.079C77.7284 62.0519 77.7804 62.0857 77.8324 62.0835C78.5492 62.0452 79.1756 62.1781 79.2163 63.0458C79.257 63.9157 78.6239 64.0712 77.9274 64.1591C74.5763 64.5761 71.2252 65.02 67.8718 65.4144C67.449 65.464 66.9741 65.3559 66.5694 65.2003C65.4433 64.7631 64.3489 64.2403 63.2273 63.794C61.0611 62.9286 58.9762 64.3146 58.9084 66.645C58.8948 67.0934 58.9039 67.5442 58.9061 67.9949C58.9129 69.586 59.5099 70.1833 61.1131 70.1833C67.9962 70.1855 74.877 70.1855 81.7601 70.1833C83.3566 70.1833 83.9626 69.5793 83.9648 67.9904C83.9671 63.6318 83.9671 59.2731 83.9648 54.9167C83.9648 54.6733 83.9354 54.4322 83.9196 54.1978C81.8664 54.1978 79.8788 54.1978 77.8098 54.1978C77.8098 56.8279 77.8098 59.4038 77.8098 62.079ZM28.3821 75.547C28.3821 68.5538 28.3821 61.6282 28.3821 54.7229C25.4357 54.7229 22.5482 54.7229 19.6787 54.7229C19.6787 61.6981 19.6787 68.6034 19.6787 75.547C22.5889 75.547 25.4561 75.547 28.3821 75.547ZM12.9041 77.6385C12.9041 78.7901 12.9041 79.8471 12.9041 80.9379C20.3458 80.9379 27.7444 80.9379 35.1567 80.9379C35.1567 79.811 35.1567 78.7338 35.1567 77.6385C27.7196 77.6385 20.3413 77.6385 12.9041 77.6385ZM52.6335 72.295C53.382 72.0403 54.4877 72.0065 54.8269 71.4791C55.8038 69.9737 57.0519 68.5651 56.9253 66.4872C56.7942 64.3169 57.9994 62.7866 59.9734 61.8716C60.2448 61.7454 60.602 61.635 60.7354 61.4074C61.9 59.4557 63.0622 57.4995 64.1386 55.4982C64.6586 54.5314 64.0006 53.4023 62.9243 53.1769C62.1758 53.0214 61.5201 53.4045 60.9774 54.342C58.2323 59.0793 55.5505 63.8526 52.7104 68.5313C51.9077 69.8542 52.0072 70.954 52.6335 72.295ZM57.5652 36.3689C57.5652 37.3244 57.5155 38.1898 57.5743 39.0462C57.7303 41.2526 59.3584 42.9023 61.5744 43.1615C63.4806 43.3869 65.5473 42.1248 66.0651 40.1889C66.3839 39.0012 66.3432 37.7188 66.4812 36.3215C63.3969 37.3515 60.5206 37.3515 57.5652 36.3689Z" fill="url(#paint0_linear_3_365)"/>
<path d="M61.9904 32.3731C61.0701 31.9268 60.2244 31.591 59.4624 31.1223C58.9152 30.7865 58.8157 30.1892 59.234 29.6596C59.6501 29.1323 60.1769 29.157 60.7219 29.5312C61.7688 30.2456 62.1238 30.2433 63.2183 29.5109C63.7361 29.1661 64.2426 29.1435 64.6496 29.6191C65.0883 30.1284 65.0317 30.7369 64.4913 31.0862C63.7429 31.573 62.8994 31.9156 61.9904 32.3731Z" fill="url(#paint1_linear_3_365)"/>
<path d="M62.9673 23.9893C62.9673 24.4378 62.9899 24.8886 62.9605 25.3348C62.9198 25.9681 62.5467 26.3151 61.9135 26.2926C61.3234 26.2723 60.9684 25.9253 60.9525 25.3325C60.9277 24.4063 60.9277 23.48 60.9525 22.556C60.9684 21.9633 61.3234 21.6162 61.9135 21.5982C62.5467 21.5779 62.9198 21.9249 62.9582 22.5582C62.9921 23.0338 62.9673 23.5116 62.9673 23.9893Z" fill="url(#paint2_linear_3_365)"/>
<path d="M57.2125 21.2466C57.2102 21.9993 56.6381 22.5808 55.8829 22.5898C55.0915 22.5988 54.4923 21.9903 54.5171 21.1993C54.5397 20.4465 55.1277 19.8876 55.8874 19.8989C56.6427 19.9124 57.2125 20.4916 57.2125 21.2466Z" fill="url(#paint3_linear_3_365)"/>
<path d="M68.0618 22.5898C67.3043 22.5965 66.7186 22.0286 66.7028 21.2759C66.6869 20.4848 67.2884 19.8831 68.0821 19.8989C68.8373 19.9147 69.4049 20.4984 69.4004 21.2533C69.3959 22.0083 68.817 22.5853 68.0618 22.5898Z" fill="url(#paint4_linear_3_365)"/>
<defs>
<linearGradient id="paint0_linear_3_365" x1="78.8926" y1="13.719" x2="7.68838" y2="71.7385" gradientUnits="userSpaceOnUse">
<stop stop-color="#7B7CF4"/>
<stop offset="1" stop-color="#FF5F68"/>
</linearGradient>
<linearGradient id="paint1_linear_3_365" x1="78.8926" y1="13.719" x2="7.68838" y2="71.7385" gradientUnits="userSpaceOnUse">
<stop stop-color="#7B7CF4"/>
<stop offset="1" stop-color="#FF5F68"/>
</linearGradient>
<linearGradient id="paint2_linear_3_365" x1="78.8926" y1="13.719" x2="7.68838" y2="71.7385" gradientUnits="userSpaceOnUse">
<stop stop-color="#7B7CF4"/>
<stop offset="1" stop-color="#FF5F68"/>
</linearGradient>
<linearGradient id="paint3_linear_3_365" x1="78.8926" y1="13.719" x2="7.68838" y2="71.7385" gradientUnits="userSpaceOnUse">
<stop stop-color="#7B7CF4"/>
<stop offset="1" stop-color="#FF5F68"/>
</linearGradient>
<linearGradient id="paint4_linear_3_365" x1="78.8926" y1="13.719" x2="7.68838" y2="71.7385" gradientUnits="userSpaceOnUse">
<stop stop-color="#7B7CF4"/>
<stop offset="1" stop-color="#FF5F68"/>
</linearGradient>
</defs>
</svg>
