<svg width="128" height="88" viewBox="0 0 128 88" fill="none" xmlns="http://www.w3.org/2000/svg">
<circle r="21" transform="matrix(-1 0 0 1 21 67)" fill="url(#paint0_linear_4_518)"/>
<circle r="9.5" transform="matrix(-1 0 0 1 10.5 17.5)" fill="url(#paint1_linear_4_518)"/>
<circle r="9.5" transform="matrix(-1 0 0 1 118.5 66.5)" fill="#FE9395"/>
<path d="M43.8962 51.1008C43.8962 48.9181 43.8939 46.85 43.8962 44.7819C43.8984 43.4616 44.3273 43.0327 45.659 43.0327C52.5531 43.0304 59.4449 43.0304 66.339 43.0327C67.6819 43.0327 68.1018 43.4459 68.1018 44.7707C68.1041 46.8411 68.1018 48.9114 68.1018 51.1008C69.1124 51.1008 70.0802 51.1008 71.0503 51.1008C72.227 51.1008 73.4038 51.0963 74.5805 51.103C75.6988 51.1097 76.1659 51.5678 76.1704 52.6771C76.1771 54.8036 76.1726 56.9278 76.1726 59.1711C77.2977 59.1711 78.3801 59.1711 79.4602 59.1711C80.5538 59.1711 81.6452 59.1621 82.7388 59.1733C83.7471 59.1845 84.2344 59.6628 84.2389 60.6643C84.2501 62.8178 84.2412 64.9712 84.2412 67.2391C85.483 67.2391 86.6754 67.2391 87.8701 67.2391C88.8514 67.2391 89.8328 67.2302 90.8119 67.2414C91.8179 67.2526 92.303 67.7331 92.3097 68.7369C92.3209 70.8903 92.312 73.0437 92.312 75.3095C92.7993 75.3095 93.2372 75.2915 93.6728 75.3139C94.47 75.3521 94.9955 75.8888 95 76.6433C95.0045 77.3955 94.4812 77.9367 93.6885 77.9906C93.4932 78.0041 93.2955 77.9951 93.1002 77.9951C82.7052 77.9951 72.3079 77.9951 61.9129 77.9951C61.6883 77.9951 61.4615 78.0108 61.2414 77.9861C60.5475 77.912 60.058 77.382 60.04 76.7039C60.0198 75.9943 60.5206 75.4038 61.2324 75.3207C61.4817 75.2915 61.7355 75.3095 61.9892 75.3095C70.8437 75.3095 79.6983 75.3095 88.5528 75.3095C88.8829 75.3095 89.2107 75.3095 89.5858 75.3095C89.5858 73.5086 89.5858 71.784 89.5858 69.9899C67.2283 69.9899 44.8573 69.9899 22.4279 69.9899C22.4279 71.7167 22.4279 73.4614 22.4279 75.3095C22.7581 75.3095 23.0859 75.3095 23.4115 75.3095C32.2661 75.3095 41.1206 75.3095 49.9751 75.3095C50.2558 75.3095 50.5387 75.2892 50.815 75.3252C51.4931 75.4105 51.9625 75.9741 51.958 76.659C51.9535 77.3439 51.4797 77.8918 50.7992 77.9816C50.6331 78.004 50.4646 77.9928 50.2962 77.9928C39.7597 77.9928 29.2232 77.9928 18.689 77.9928C18.5206 77.9928 18.3499 78.004 18.186 77.9838C17.4965 77.9007 17.0115 77.3663 17.0003 76.6859C16.9868 75.9764 17.4898 75.3836 18.2084 75.3207C18.653 75.2825 19.1044 75.3139 19.6883 75.3139C19.6883 75.0175 19.6883 74.7526 19.6883 74.4898C19.6883 72.6126 19.6838 70.7354 19.6905 68.8581C19.695 67.7084 20.1666 67.2436 21.3298 67.2414C23.4295 67.2369 25.5292 67.2391 27.7591 67.2391C27.7591 66.9382 27.7591 66.6733 27.7591 66.4083C27.7591 64.6164 27.7591 62.8223 27.7591 61.0303C27.7591 59.5798 28.1566 59.1733 29.5803 59.1711C31.5699 59.1688 33.5595 59.1666 35.5492 59.1621C35.6031 59.1621 35.6547 59.1396 35.8299 59.0992C35.8299 58.1606 35.8299 57.1928 35.8299 56.225C35.8299 55.0483 35.8231 53.8717 35.8321 52.6951C35.8389 51.5903 36.3149 51.1075 37.413 51.103C39.5329 51.0963 41.6573 51.1008 43.8962 51.1008ZM81.5195 61.9128C64.4639 61.9128 47.4735 61.9128 30.5055 61.9128C30.5055 63.7182 30.5055 65.4652 30.5055 67.1965C47.5431 67.1965 64.5133 67.1965 81.5195 67.1965C81.5195 65.4248 81.5195 63.7002 81.5195 61.9128ZM73.4509 53.8448C61.7736 53.8448 50.1637 53.8448 38.5785 53.8448C38.5785 55.6524 38.5785 57.3971 38.5785 59.1262C50.2356 59.1262 61.8253 59.1262 73.4509 59.1262C73.4509 57.3545 73.4509 55.6299 73.4509 53.8448ZM46.6403 45.752C46.6403 47.5708 46.6403 49.3156 46.6403 51.0334C52.9303 51.0334 59.1597 51.0334 65.3689 51.0334C65.3689 49.2392 65.3689 47.5125 65.3689 45.752C59.1148 45.752 52.9056 45.752 46.6403 45.752Z" fill="#373563"/>
<path d="M46.3057 37.9489C46.793 35.1982 47.1928 32.6854 47.7048 30.1974C47.8934 29.2768 47.7452 28.675 47.0288 28.0305C45.2615 26.4385 43.5885 24.7409 41.8661 23.1017C41.3878 22.6481 41.0397 22.1608 41.2823 21.4804C41.5293 20.7866 42.1019 20.589 42.7958 20.4946C45.3177 20.1556 47.835 19.7873 50.3434 19.3741C50.678 19.318 51.0912 19.0081 51.2461 18.7027C52.3824 16.4909 53.467 14.2522 54.5539 12.0156C54.8661 11.3757 55.2433 10.8547 56.045 10.8704C56.8018 10.8862 57.1656 11.3892 57.4643 11.9999C58.5197 14.1579 59.6335 16.2888 60.6239 18.4759C60.945 19.1833 61.3964 19.3943 62.0656 19.4842C64.4751 19.8143 66.8802 20.178 69.2898 20.4991C69.9545 20.5867 70.5046 20.8113 70.7359 21.4625C70.9695 22.1226 70.6641 22.6324 70.1745 23.0949C68.3039 24.8644 66.4603 26.6653 64.5852 28.4325C64.2214 28.776 64.1068 29.0814 64.2012 29.5911C64.6615 32.0634 65.0523 34.547 65.4991 37.0192C65.6226 37.7019 65.6181 38.3261 65.0231 38.764C64.4504 39.1862 63.8778 38.9841 63.2962 38.6742C61.0775 37.4908 58.8543 36.3119 56.6042 35.1892C56.2786 35.0252 55.7217 35.032 55.3983 35.2004C53.0696 36.4152 50.7858 37.7198 48.4503 38.9212C48.0416 39.1323 47.3724 39.1614 46.9704 38.9706C46.6111 38.7954 46.4562 38.2004 46.3057 37.9489ZM62.5102 35.1959C62.1891 33.3815 61.9825 31.7423 61.5895 30.1503C61.2167 28.6368 61.3941 27.4355 62.746 26.4811C63.4017 26.0186 63.9339 25.3786 64.52 24.815C65.1556 24.202 65.7888 23.5867 66.5276 22.8704C64.3853 22.565 62.4249 22.2641 60.4599 22.0126C59.6672 21.9116 59.1193 21.586 58.7735 20.8405C58.1133 19.4213 57.4014 18.0291 56.7097 16.6257C56.4964 16.1923 56.2808 15.7611 55.9934 15.184C55.0794 17.0478 54.2081 18.7027 53.4536 20.4093C52.9887 21.4602 52.2746 21.9048 51.1541 22.0283C49.3104 22.2304 47.4824 22.5717 45.659 22.8502C46.6942 23.9258 47.6643 24.9677 48.6681 25.9736C51.0283 28.3382 50.8172 27.5433 50.2783 30.7229C50.2401 30.9429 50.2019 31.163 50.166 31.3831C49.9639 32.6091 49.7618 33.8374 49.5327 35.2318C51.4572 34.2281 53.2402 33.3591 54.9559 32.3756C55.7756 31.9063 56.4313 31.9624 57.2128 32.398C58.8947 33.3344 60.6149 34.2011 62.5102 35.1959Z" fill="#373563"/>
<path d="M63.8396 9.07854C63.9115 8.89665 63.9833 8.6227 64.1181 8.38468C64.9445 6.92735 65.7753 5.47227 66.622 4.02617C67.1205 3.17288 67.866 2.9169 68.5779 3.32109C69.2965 3.72752 69.4739 4.5112 68.9978 5.35775C68.1602 6.84203 67.3158 8.31956 66.4445 9.78587C66.0605 10.4326 65.4722 10.6863 64.7221 10.4505C64.0956 10.2507 63.8643 9.78138 63.8396 9.07854Z" fill="#373563"/>
<path d="M48.2662 9.10773C48.2752 9.77015 47.9765 10.3091 47.3814 10.3809C46.9008 10.4371 46.1328 10.3091 45.9195 9.98348C44.8528 8.351 43.8872 6.64891 42.9755 4.92437C42.6588 4.32483 42.9553 3.70058 43.5548 3.34579C44.1118 3.0157 44.8012 2.98426 45.1492 3.53441C46.2339 5.25446 47.2152 7.03963 48.228 8.80235C48.2774 8.89441 48.2572 9.02465 48.2662 9.10773Z" fill="#373563"/>
<path d="M76.121 37.9713C76.0132 37.9264 75.7437 37.8478 75.5079 37.7131C74.1021 36.916 72.6986 36.1143 71.3041 35.297C70.4395 34.7917 70.1656 33.9833 70.5855 33.2783C71.0077 32.5732 71.7487 32.4295 72.6245 32.9235C74.0797 33.7431 75.5259 34.5829 76.9743 35.4182C77.6457 35.8044 77.904 36.395 77.6547 37.118C77.4481 37.7333 76.9586 38.0342 76.121 37.9713Z" fill="#373563"/>
<path d="M35.4751 38.1465C35.1045 37.8187 34.5229 37.5447 34.4196 37.1472C34.3028 36.7004 34.4488 35.883 34.7722 35.672C36.4047 34.5986 38.1137 33.6353 39.8383 32.7124C40.4536 32.3823 41.0622 32.6967 41.426 33.2805C41.7763 33.8419 41.7583 34.5425 41.2284 34.8793C39.5082 35.9684 37.7162 36.9474 35.9489 37.9601C35.8613 38.0095 35.7288 37.9826 35.6165 37.9916C35.5694 38.041 35.5222 38.0926 35.4751 38.1465Z" fill="#373563"/>
<path d="M57.3408 4.09578C57.3408 4.9356 57.352 5.77541 57.3363 6.61523C57.3205 7.48873 56.8153 8.03663 56.036 8.05684C55.2186 8.0793 54.6662 7.52017 54.6595 6.61074C54.646 4.90192 54.646 3.19534 54.6595 1.48652C54.6662 0.5726 55.2029 0 56.0046 0C56.8108 0 57.325 0.563618 57.3363 1.49325C57.3497 2.36002 57.3408 3.22678 57.3408 4.09578Z" fill="#373563"/>
<path d="M35.1 26.2319C34.231 26.2319 33.3642 26.2498 32.4951 26.2274C31.671 26.2049 31.1455 25.6997 31.1185 24.9542C31.0893 24.1728 31.6261 23.562 32.4614 23.5485C34.2534 23.5193 36.0455 23.5193 37.8375 23.5485C38.6392 23.562 39.1714 24.1368 39.1781 24.8711C39.1848 25.6458 38.6392 26.2005 37.7881 26.2252C36.8921 26.2521 35.996 26.2319 35.1 26.2319Z" fill="#373563"/>
<path d="M76.8418 26.2341C75.9727 26.2341 75.1037 26.2498 74.2369 26.2296C73.3791 26.2072 72.8244 25.6593 72.8289 24.8891C72.8356 24.1323 73.4082 23.5575 74.2548 23.5463C75.9907 23.5238 77.7288 23.5238 79.4647 23.5463C80.3719 23.5575 80.9176 24.1234 80.8952 24.9475C80.8727 25.7311 80.345 26.2139 79.4467 26.2319C78.5777 26.2476 77.7086 26.2341 76.8418 26.2341Z" fill="#373563"/>
<path d="M77.6704 13.5628C77.5088 13.7716 77.2932 14.2656 76.9137 14.5014C75.5214 15.3727 74.0819 16.1721 72.6447 16.9715C71.9239 17.3712 71.1334 17.1466 70.7562 16.4932C70.3789 15.8397 70.5945 15.0583 71.3108 14.6361C72.7278 13.8031 74.1493 12.9722 75.591 12.1796C76.5476 11.6541 77.6323 12.2582 77.6704 13.5628Z" fill="#373563"/>
<path d="M41.6505 15.7522C41.6101 16.8861 40.5996 17.4812 39.7081 17.0119C38.1294 16.181 36.5866 15.2784 35.0664 14.3487C34.4735 13.985 34.5094 13.3495 34.7722 12.7769C35.0529 12.1683 35.8254 11.8517 36.4048 12.1728C37.9677 13.0329 39.5149 13.9243 41.0285 14.8697C41.3609 15.074 41.5203 15.5568 41.6505 15.7522Z" fill="#373563"/>
<path d="M56.0383 75.3117C56.7816 75.3274 57.3453 75.918 57.3363 76.668C57.3273 77.418 56.7524 77.9883 56.0024 77.9906C55.2186 77.9928 54.6236 77.3753 54.6595 76.5961C54.6909 75.8596 55.2972 75.2937 56.0383 75.3117Z" fill="#373563"/>
<defs>
<linearGradient id="paint0_linear_4_518" x1="38.5289" y1="6.94215" x2="2.77686" y2="35.0579" gradientUnits="userSpaceOnUse">
<stop stop-color="#B5B5FF"/>
<stop offset="1" stop-color="#FFB0B5"/>
</linearGradient>
<linearGradient id="paint1_linear_4_518" x1="17.4298" y1="3.1405" x2="1.2562" y2="15.8595" gradientUnits="userSpaceOnUse">
<stop stop-color="#B5B5FF"/>
<stop offset="1" stop-color="#FFB0B5"/>
</linearGradient>
</defs>
</svg>
