<svg width="73" height="85" viewBox="0 0 73 85" fill="none" xmlns="http://www.w3.org/2000/svg">
<path d="M55.8294 0.00221656C56.6549 0.419159 57.1361 1.11554 57.5047 1.94721C57.9616 2.9807 58.5333 3.96317 58.9725 5.00331C59.2065 5.55332 59.5862 5.713 60.0983 5.78397C61.3498 5.95696 62.5969 6.15656 63.8507 6.3118C64.8682 6.43821 65.6231 6.88399 65.9542 7.89973C66.2765 8.89108 65.899 9.67174 65.1905 10.3526C64.237 11.2708 63.2635 12.1734 62.3674 13.1448C62.1202 13.4131 61.9723 13.921 62.0186 14.2869C62.193 15.6531 62.4733 17.0059 62.7051 18.3654C62.8574 19.2592 62.5881 20.0132 61.8751 20.5699C61.1622 21.1266 60.372 21.2264 59.5553 20.805C58.3081 20.1618 57.0566 19.5298 55.8382 18.8356C55.3393 18.5517 54.9553 18.5739 54.4719 18.8467C53.3219 19.4943 52.141 20.0842 50.9777 20.7096C50.1279 21.1665 49.2935 21.2086 48.4989 20.6143C47.6844 20.0066 47.4549 19.1816 47.6447 18.1902C47.9052 16.8352 48.1524 15.4779 48.3422 14.1117C48.3819 13.819 48.223 13.4087 48.0133 13.1891C47.0995 12.2311 46.1459 11.3107 45.1836 10.4036C44.4419 9.705 44.038 8.90882 44.3691 7.88864C44.709 6.83963 45.508 6.42047 46.5587 6.30071C47.8411 6.15434 49.1214 5.96583 50.3884 5.71744C50.7217 5.6509 51.1124 5.35372 51.2779 5.0521C51.8893 3.94321 52.3551 2.75005 53.0018 1.66334C53.3771 1.03349 53.9951 0.550009 54.505 0C54.9487 0.00221778 55.3901 0.00221656 55.8294 0.00221656ZM63.0009 8.75136C61.7361 8.55841 60.4691 8.31224 59.1911 8.18361C58.0389 8.06606 57.359 7.45839 56.8977 6.44487C56.379 5.30271 55.794 4.1916 55.1605 2.90973C54.4895 4.27366 53.8958 5.47348 53.3108 6.67995C52.8959 7.53823 52.2646 8.07715 51.2823 8.15256C50.9005 8.18139 50.5208 8.26123 50.1411 8.32111C49.1898 8.47192 48.2407 8.62273 47.3445 8.76466C48.3003 9.78263 49.1898 10.7607 50.1147 11.7032C50.7791 12.3819 51.0925 13.1182 50.8983 14.0918C50.6312 15.438 50.4436 16.7997 50.2052 18.2679C51.4633 17.607 52.6464 17.0326 53.7832 16.3783C54.7456 15.8239 55.6307 15.8505 56.582 16.3916C57.7122 17.0348 58.882 17.6092 60.1248 18.2612C59.8864 16.8063 59.712 15.4668 59.4339 14.1494C59.222 13.1403 59.5376 12.3885 60.2307 11.6899C61.1578 10.7474 62.0451 9.76932 63.0009 8.75136Z" fill="#373563"/>
<path d="M51.0616 26.9416C51.0616 43.2534 51.0616 59.5097 51.0616 75.8126C53.8097 75.8126 56.518 75.8126 59.3103 75.8126C59.3103 75.4489 59.3103 75.1251 59.3103 74.8013C59.3103 64.9521 59.3103 55.103 59.3103 45.256C59.3103 44.9788 59.2794 44.6949 59.3323 44.4288C59.467 43.7524 59.8842 43.3332 60.5883 43.3532C61.2814 43.3731 61.7096 43.7679 61.7847 44.4798C61.8156 44.7814 61.8045 45.0875 61.8045 45.3913C61.8045 55.185 61.8045 64.9787 61.8045 74.7702C61.8045 75.0963 61.8045 75.4223 61.8045 75.8614C62.8883 75.8614 63.8948 75.857 64.9036 75.8614C67.4905 75.8769 69.1879 77.5491 69.252 80.1461C69.2674 80.7826 69.2718 81.4191 69.2453 82.0556C69.1681 83.8055 67.9518 84.992 66.2125 84.992C53.1056 84.9964 40.0008 84.9964 26.8939 84.9942C25.9249 84.9942 25.3951 84.5373 25.404 83.7367C25.4128 82.9428 25.9381 82.5125 26.927 82.5125C39.758 82.5103 52.589 82.5103 65.4201 82.5103C66.7511 82.5103 66.6981 82.5081 66.7643 81.1929C66.8879 78.7778 66.1882 78.3276 63.9015 78.332C44.2432 78.3653 24.5828 78.3497 4.92463 78.352C2.96234 78.352 2.47011 78.8399 2.47011 80.7893C2.47011 82.5103 2.47011 82.5103 4.16973 82.5103C9.64825 82.5103 15.129 82.5169 20.6075 82.5014C21.3182 82.4992 21.8723 82.6877 22.093 83.4063C22.3424 84.2136 21.7729 84.9632 20.89 84.9853C19.7886 85.012 18.6871 84.9942 17.5857 84.9942C12.7959 84.9942 8.00381 84.9964 3.21397 84.9942C1.19429 84.992 -0.0153048 83.7811 0.000146263 81.7407C0.00676816 80.8048 -0.0329657 79.8423 0.170106 78.9419C0.587285 77.0945 2.19199 75.8969 4.07923 75.868C5.15198 75.8503 6.22252 75.8658 7.43212 75.8658C7.43212 75.5088 7.43212 75.1916 7.43212 74.8745C7.43212 66.8794 7.43212 58.8843 7.43212 50.8892C7.43212 49.197 8.02589 48.5982 9.7233 48.596C12.6413 48.5916 15.5594 48.5916 18.4797 48.596C20.1329 48.5982 20.7664 49.2392 20.7664 50.9136C20.7686 58.8532 20.7686 66.7929 20.7686 74.7325C20.7686 75.063 20.7686 75.3934 20.7686 75.7926C23.1591 75.7926 25.5033 75.7926 27.949 75.7926C27.949 75.4311 27.949 75.0807 27.949 74.7303C27.949 62.5303 27.949 50.3303 27.949 38.1303C27.949 36.1387 28.5317 35.5466 30.4874 35.5466C33.3502 35.5466 36.2153 35.5444 39.0782 35.5488C40.6034 35.551 41.2855 36.2385 41.2855 37.7755C41.2877 50.113 41.2855 62.4527 41.2855 74.7902C41.2855 75.1162 41.2855 75.4422 41.2855 75.8148C43.7113 75.8148 46.0621 75.8148 48.521 75.8148C48.521 75.4334 48.521 75.083 48.521 74.7303C48.521 58.851 48.521 42.9717 48.521 27.0924C48.521 26.7331 48.5144 26.3716 48.5475 26.0146C48.6336 25.0742 49.2693 24.4067 50.214 24.3978C53.5183 24.3712 56.8226 24.369 60.1248 24.3978C61.0982 24.4067 61.7802 25.1097 61.7869 26.1011C61.8111 30.3326 61.8089 34.5663 61.7935 38.7978C61.7913 39.5829 61.2704 40.0642 60.5574 40.0575C59.8113 40.0509 59.3191 39.5031 59.3191 38.6071C59.3103 35.0387 59.3147 31.4703 59.3147 27.9019C59.3147 27.6003 59.3147 27.3009 59.3147 26.9416C56.5534 26.9416 53.845 26.9416 51.0616 26.9416ZM30.5337 38.1103C30.5337 50.7229 30.5337 63.2444 30.5337 75.8126C33.2862 75.8126 35.9946 75.8126 38.736 75.8126C38.736 63.2311 38.736 50.6918 38.736 38.1103C35.9924 38.1103 33.3061 38.1103 30.5337 38.1103ZM18.153 75.817C18.153 67.5669 18.153 59.37 18.153 51.1819C15.3828 51.1819 12.6745 51.1819 9.96169 51.1819C9.96169 59.4232 9.96169 67.5979 9.96169 75.817C12.6943 75.817 15.3806 75.817 18.153 75.817Z" fill="#373563"/>
<path d="M71.0068 3.72587C70.9935 4.77931 68.305 6.35616 67.3779 5.85716C66.5833 5.42912 66.4553 4.33133 67.1992 3.78797C67.8393 3.32002 68.5368 2.90973 69.2564 2.57928C70.0819 2.19782 71.0178 2.85206 71.0068 3.72587Z" fill="#373563"/>
<path d="M43.6031 16.1166C43.5877 17.159 40.9522 18.7269 40.0229 18.2457C39.1731 17.8066 39.0583 16.7154 39.8573 16.1454C40.4997 15.6864 41.1972 15.2872 41.9145 14.9589C42.7489 14.573 43.6164 15.2029 43.6031 16.1166Z" fill="#373563"/>
<path d="M43.5965 4.52205C43.6274 5.62651 42.7577 6.2741 41.9079 5.89486C41.1839 5.57106 40.493 5.15412 39.8397 4.69947C39.3099 4.33132 39.162 3.77244 39.4711 3.16255C39.7779 2.55488 40.3452 2.29096 40.9191 2.54157C41.7424 2.89864 42.5061 3.40651 43.2544 3.91216C43.4685 4.0541 43.5391 4.41116 43.5965 4.52205Z" fill="#373563"/>
<path d="M71.0112 17.0192C70.9825 17.9795 70.1283 18.636 69.3954 18.3078C68.603 17.9529 67.8371 17.5049 67.1263 17.0037C66.6253 16.6489 66.5193 15.9924 66.8879 15.5356C67.166 15.1918 67.8304 14.7948 68.1395 14.9124C69.0423 15.2561 69.87 15.8194 70.6845 16.3606C70.892 16.4959 70.9427 16.8729 71.0112 17.0192Z" fill="#373563"/>
<path d="M39.6388 9.29028C39.9964 9.29028 40.354 9.27475 40.7116 9.29471C41.4378 9.33242 41.802 9.78484 41.8859 10.4568C41.9631 11.08 41.4289 11.7165 40.7601 11.7587C39.992 11.8075 39.2172 11.8075 38.4491 11.7587C37.7538 11.7143 37.288 11.1399 37.3344 10.4635C37.383 9.75823 37.7781 9.35016 38.4822 9.29471C38.8663 9.26588 39.2548 9.29028 39.6388 9.29028Z" fill="#373563"/>
<path d="M70.7198 9.28806C71.0774 9.28806 71.4372 9.2681 71.7925 9.29028C72.5099 9.33464 73.0066 9.82698 72.9999 10.4945C72.9955 11.2064 72.6026 11.6766 71.925 11.7454C71.1348 11.8252 70.3247 11.8186 69.5345 11.7476C68.8436 11.6855 68.4684 11.1887 68.4352 10.5034C68.4043 9.85581 68.9407 9.33685 69.6449 9.29028C70.0024 9.2681 70.3622 9.28806 70.7198 9.28806Z" fill="#373563"/>
</svg>
