<svg width="74" height="76" viewBox="0 0 74 76" fill="none" xmlns="http://www.w3.org/2000/svg">
<path d="M41.8378 76C41.4967 75.0788 41.1647 74.1546 40.8113 73.2381C40.0429 71.2458 40.3087 70.0217 41.8378 68.5611C42.6047 67.8285 43.3869 67.1083 44.1169 66.3401C44.286 66.1609 44.3905 65.7667 44.3198 65.5349C43.7174 63.5782 43.0796 61.6339 42.4142 59.6973C42.3419 59.4886 42.0453 59.2475 41.8256 59.2166C40.1458 58.9832 38.463 58.7761 36.7756 58.6138C36.3607 58.5736 35.8935 58.6416 35.5078 58.8024C24.2353 63.4855 12.9706 68.1856 1.70431 72.881C1.48301 72.9738 1.25557 73.0541 0.989699 73.1561C0.665434 72.4313 0.355001 71.7373 0 70.9444C7.38432 67.8656 14.7425 64.7961 22.1806 61.6957C20.7975 57.5195 19.4205 53.3697 18.0236 49.1533C12.3036 51.4531 6.63898 53.7298 0.882124 56.0451C0.582447 55.246 0.304286 54.501 0.00153654 53.6927C1.45689 53.0961 2.85845 52.518 4.26155 51.9446C12.6079 48.5366 20.9543 45.1255 29.3068 41.733C29.7463 41.5537 29.963 41.3265 30.046 40.852C30.2565 39.6619 30.4271 38.4502 30.8036 37.3096C31.0618 36.5229 31.5859 35.8057 32.0915 35.1319C32.3097 34.8397 32.4726 34.6728 32.2759 34.322C32.1437 34.087 32.0331 33.8289 31.9777 33.5677C31.8656 33.05 31.5275 32.9572 31.0633 32.9124C29.4005 32.7532 27.7346 32.6048 26.0856 32.3498C24.1693 32.0546 22.385 31.3174 20.7929 30.2185C19.9092 29.608 18.9764 29.4457 17.9713 29.3468C16.4791 29.1999 14.9715 29.118 13.5069 28.8213C10.5932 28.2324 8.42628 25.9248 8.04361 23.1876C7.63329 20.251 8.98721 17.6019 11.6766 16.078C11.7196 16.0532 11.7565 16.0192 11.8426 15.9559C11.6505 15.3747 11.4753 14.7689 11.2525 14.18C10.5255 12.2558 11.6751 10.1816 13.6867 9.47063C17.206 8.22644 20.7084 6.93743 24.2184 5.66696C29.0901 3.90346 33.9956 2.22496 38.8211 0.343995C41.3184 -0.629719 43.6928 0.53101 44.2091 2.97611C44.2445 3.13994 44.329 3.29296 44.4012 3.47997C46.084 3.16622 47.6792 3.28523 49.1546 4.24039C50.5776 5.16156 51.5873 6.39647 52.0668 8.02706C52.6754 10.0997 52.4033 12.0502 51.0556 13.772C49.9598 15.1707 48.798 16.5185 47.69 17.9079C47.4887 18.1614 47.3288 18.4968 47.2781 18.8152C46.7372 22.251 44.9791 25.0284 42.6769 27.5183C42.4095 27.8089 42.1621 28.118 41.9085 28.4194C40.8282 29.7022 40.8266 29.7393 41.7687 31.3266C43.3746 30.6327 45.0329 30.0175 46.5973 29.2138C48.3139 28.3329 50.9234 29.0423 51.7272 31.2138C52.6339 33.6666 53.5452 36.1164 54.4534 38.5677C55.8335 42.291 57.2151 46.0143 58.592 49.7391C59.4096 51.9493 58.7211 53.7421 56.6296 54.8117C54.9483 55.671 53.2578 56.5118 51.5074 57.3943C52.2174 59.0976 52.8967 60.7591 53.6174 62.402C53.682 62.5473 54.0108 62.64 54.2198 62.6447C55.3263 62.6679 56.4344 62.6478 57.5424 62.6586C59.4772 62.6771 60.6129 63.4793 61.2891 65.2938C61.6134 66.167 61.93 67.0434 62.2758 67.9893C60.656 68.6322 59.09 69.2597 57.5224 69.878C52.6108 71.8146 47.6977 73.7466 42.7861 75.6847C42.5632 75.7728 42.3511 75.8918 42.1344 75.9954C42.0346 76 41.9362 76 41.8378 76ZM39.2145 31.9912C38.9087 31.1767 38.6597 30.4271 38.3462 29.7053C38.1449 29.2401 38.1879 28.9155 38.5383 28.5245C39.6571 27.2741 40.7406 25.9913 41.8194 24.7054C44.7393 21.2294 45.8489 17.2232 44.7701 12.8137C44.0109 9.70865 42.8552 6.70095 41.8624 3.65462C41.5259 2.62218 41.031 2.38879 40.0014 2.76128C31.552 5.81843 23.1058 8.87867 14.6595 11.9436C13.7083 12.2882 13.4455 12.8446 13.8158 13.7936C14.9254 16.6437 15.9766 19.5184 17.1953 22.3221C18.8827 26.2046 21.8349 28.7795 25.9181 29.7718C28.2172 30.3297 30.6284 30.4302 32.9936 30.6852C33.4607 30.7362 33.6867 30.8908 33.8388 31.3143C34.14 32.1442 34.4843 32.9588 34.83 33.8274C36.2992 33.2138 37.7208 32.6172 39.2145 31.9912ZM49.8907 50.9848C49.6356 50.1765 49.402 49.4362 49.1515 48.6386C51.051 48.0096 52.8767 47.4053 54.7716 46.7762C54.2721 45.4316 53.8018 44.1688 53.3193 42.8706C51.3491 43.5274 49.4266 44.1673 47.4441 44.8288C47.1905 44.0313 46.9539 43.2879 46.6957 42.4795C48.6197 41.8149 50.5115 41.1596 52.4479 40.4904C51.9485 39.1581 51.4782 37.8969 50.9864 36.5862C48.9517 37.2493 46.9861 37.8892 44.9791 38.5429C44.7224 37.7037 44.4965 36.9603 44.2598 36.1828C46.2946 35.5105 48.2478 34.866 50.2334 34.2107C49.9675 33.4966 49.7232 32.8243 49.4711 32.1566C49.0024 30.9186 48.4707 30.6899 47.2643 31.2092C42.9551 33.067 38.6536 34.9402 34.3336 36.7702C33.6067 37.0777 33.2533 37.5522 33.1288 38.2972C32.9306 39.4904 32.6862 40.6758 32.4926 41.869C32.4434 42.1689 32.4449 42.5104 32.5387 42.7964C33.9202 47.0158 35.328 51.2275 36.7095 55.4469C36.854 55.889 37.0707 56.0636 37.5348 56.1115C39.5142 56.3171 41.4875 56.5845 43.4669 56.7885C44.2875 56.8735 45.2465 57.1393 45.9211 56.8317C49.2299 55.3248 52.4664 53.654 55.7244 52.0343C56.2653 51.7654 56.4482 51.2862 56.2822 50.7267C56.1178 50.1672 55.8734 49.6309 55.6445 49.0359C53.705 49.6943 51.8301 50.3295 49.8907 50.9848ZM24.535 60.7034C27.8929 59.2846 31.1463 57.909 34.4351 56.5196C33.0397 52.3527 31.6642 48.2476 30.275 44.1008C28.6121 44.7716 27.0231 45.4115 25.4048 46.0637C26.4714 49.2955 27.5195 52.467 28.5799 55.6772C27.7485 55.9384 27.0123 56.1702 26.2347 56.4145C25.2004 53.263 24.1892 50.1858 23.1642 47.0637C22.1945 47.4455 21.3093 47.7932 20.3764 48.1611C21.7642 52.3434 23.135 56.4809 24.535 60.7034ZM43.3332 72.7589C48.5429 70.6709 53.7112 68.6013 58.8656 66.5349C58.672 65.3773 58.3154 65.0388 57.275 65.0279C55.8473 65.014 54.4212 65.0171 52.9935 65.031C52.7292 65.0341 52.4571 65.0913 52.202 65.1701C47.3488 66.6709 47.3488 66.6724 43.6482 70.2489C43.6129 70.2829 43.576 70.3169 43.5406 70.3509C42.7215 71.1484 42.6646 71.6801 43.3332 72.7589ZM12.8692 18.5061C11.3062 19.319 10.3903 20.9373 10.5501 22.5369C10.7484 24.5338 11.8687 25.9867 13.6744 26.3962C14.7087 26.6312 15.7875 26.676 17.0754 26.8352C14.9577 24.2572 14.1247 21.2757 12.8692 18.5061ZM47.7453 14.0239C48.297 13.2975 48.964 12.5881 49.4342 11.7658C50.2534 10.3315 50.1273 8.85858 49.2022 7.50311C48.2755 6.14609 46.9416 5.70406 45.3494 5.91735C46.1516 8.62829 46.9431 11.3052 47.7453 14.0239ZM50.9772 62.8008C50.3041 61.2397 49.674 59.7761 49.0593 58.3495C47.7238 58.8812 46.4467 59.3897 45.1128 59.9198C45.5753 61.2691 46.0871 62.7683 46.6035 64.2753C48.0896 63.7745 49.4804 63.3046 50.9772 62.8008Z" fill="url(#paint0_linear_3_363)"/>
<path d="M6.63283 30.1613C7.47346 30.1613 8.22649 30.1613 9.0748 30.1613C9.02102 32.016 9.23156 33.7872 10.441 35.2648C11.6536 36.747 13.2488 37.4518 15.182 37.5538C15.182 38.3683 15.182 39.1658 15.182 40.0081C13.2795 40.0885 11.6889 40.7964 10.4671 42.2616C9.23617 43.7376 9.02716 45.5104 9.07327 47.3867C8.26184 47.3867 7.50881 47.3867 6.64512 47.3867C6.79112 43.1472 4.95311 40.4842 0.533269 39.9602C0.533269 39.1859 0.533269 38.4054 0.533269 37.6048C4.91161 37.0746 6.80034 34.4533 6.63283 30.1613ZM7.86073 40.9618C8.49543 40.3142 9.4129 39.3776 9.98613 38.7933C9.3837 38.1705 8.46777 37.2246 7.85766 36.5955C7.21835 37.2323 6.28551 38.1612 5.70306 38.7408C6.31932 39.3745 7.22296 40.3049 7.86073 40.9618Z" fill="url(#paint1_linear_3_363)"/>
<path d="M65.4831 30.169C66.3421 30.169 67.0952 30.169 67.9573 30.169C67.8236 32.0469 68.0695 33.8011 69.2866 35.2833C70.5023 36.764 72.1051 37.4425 74 37.5569C74 38.3822 74 39.1627 74 39.9525C73.4083 40.0653 72.8243 40.1287 72.2696 40.291C69.6278 41.0638 67.9911 43.328 67.9435 46.2291C67.9235 47.4331 67.9235 47.4331 66.711 47.4331C66.3221 47.4331 65.9349 47.4331 65.4754 47.4331C65.5215 45.532 65.3094 43.7624 64.0938 42.2832C62.8782 40.8041 61.2891 40.0916 59.3543 40.0066C59.3543 39.206 59.3543 38.427 59.3543 37.6032C63.6988 37.0963 65.6029 34.4827 65.4831 30.169ZM64.5149 38.8026C65.148 39.4409 66.0732 40.3744 66.6725 40.9788C67.3134 40.3281 68.2385 39.3899 68.8425 38.7779C68.2478 38.1581 67.3288 37.1967 66.734 36.5754C66.0701 37.2416 65.1404 38.1751 64.5149 38.8026Z" fill="url(#paint2_linear_3_363)"/>
<path d="M60.5392 5.51086C61.4198 5.51086 62.1713 5.51086 63.0319 5.51086C62.9412 7.37637 63.1579 9.14606 64.3735 10.6252C65.5891 12.1058 67.1874 12.7998 69.1053 12.9049C69.1053 13.7071 69.1053 14.4876 69.1053 15.299C64.75 15.8168 62.8474 18.4272 63.0011 22.7471C62.1759 22.7471 61.4244 22.7471 60.5807 22.7471C60.7005 18.52 58.8933 15.86 54.4688 15.3083C54.4688 14.5571 54.4688 13.7596 54.4688 12.9157C56.3283 12.7952 57.9435 12.1352 59.1607 10.6592C60.3824 9.18006 60.6345 7.41965 60.5392 5.51086ZM63.9509 14.1367C63.3408 13.5185 62.4171 12.5803 61.8024 11.9559C61.1723 12.5896 60.2456 13.5216 59.6586 14.112C60.2641 14.7256 61.1969 15.6715 61.8162 16.299C62.4264 15.6792 63.3208 14.7751 63.9509 14.1367Z" fill="url(#paint3_linear_3_363)"/>
<path d="M38.1649 23.5817C37.5609 22.9697 37.0246 22.4288 36.4529 21.8507C37.5717 20.6575 38.3247 19.2464 38.6029 17.5957C39.087 14.724 38.3524 12.0579 37.229 9.46445C36.937 8.78903 36.5697 8.14607 36.2116 7.43819C36.8663 7.01007 37.521 6.58194 38.2187 6.12445C38.3524 6.29756 38.4892 6.43357 38.5798 6.5974C40.2841 9.66846 41.3768 12.9142 41.2293 16.4798C41.1171 19.2263 40.1166 21.605 38.1649 23.5817Z" fill="url(#paint4_linear_3_363)"/>
<defs>
<linearGradient id="paint0_linear_3_363" x1="67.8843" y1="12.562" x2="3.61706" y2="61.7722" gradientUnits="userSpaceOnUse">
<stop stop-color="#A1A2FF"/>
<stop offset="0.333333" stop-color="#A79DF5"/>
<stop offset="1" stop-color="#FF5F68"/>
</linearGradient>
<linearGradient id="paint1_linear_3_363" x1="67.8843" y1="12.562" x2="3.61706" y2="61.7722" gradientUnits="userSpaceOnUse">
<stop stop-color="#A1A2FF"/>
<stop offset="0.333333" stop-color="#A79DF5"/>
<stop offset="1" stop-color="#FF5F68"/>
</linearGradient>
<linearGradient id="paint2_linear_3_363" x1="67.8843" y1="12.562" x2="3.61706" y2="61.7722" gradientUnits="userSpaceOnUse">
<stop stop-color="#A1A2FF"/>
<stop offset="0.333333" stop-color="#A79DF5"/>
<stop offset="1" stop-color="#FF5F68"/>
</linearGradient>
<linearGradient id="paint3_linear_3_363" x1="67.8843" y1="12.562" x2="3.61706" y2="61.7722" gradientUnits="userSpaceOnUse">
<stop stop-color="#A1A2FF"/>
<stop offset="0.333333" stop-color="#A79DF5"/>
<stop offset="1" stop-color="#FF5F68"/>
</linearGradient>
<linearGradient id="paint4_linear_3_363" x1="67.8843" y1="12.562" x2="3.61706" y2="61.7722" gradientUnits="userSpaceOnUse">
<stop stop-color="#A1A2FF"/>
<stop offset="0.333333" stop-color="#A79DF5"/>
<stop offset="1" stop-color="#FF5F68"/>
</linearGradient>
</defs>
</svg>
