<svg width="157" height="113" viewBox="0 0 157 113" fill="none" xmlns="http://www.w3.org/2000/svg">
<circle cx="56.5" cy="21.5" r="21.5" fill="#FFB0B5"/>
<circle cx="147.5" cy="87.5" r="9.5" fill="url(#paint0_linear_4_514)"/>
<circle cx="9.5" cy="67.5" r="9.5" fill="#FE9395"/>
<path d="M85.1641 113C84.3607 112.556 84.0929 111.898 84.0953 110.964C84.1261 101.185 84.1142 91.4054 84.1142 81.626C84.1142 81.303 84.1142 80.9823 84.1142 80.493C83.7327 80.7281 83.4673 80.8896 83.2019 81.0512C78.2253 84.1178 72.8103 85.676 66.9735 85.7734C65.5801 85.7972 65.1251 85.3292 65.1251 83.9064C65.1227 74.7208 65.1227 65.5328 65.1227 56.3472C65.1227 56.0028 65.1227 55.656 65.1227 55.2213C64.6606 55.2213 64.3123 55.2213 63.9663 55.2213C54.8426 55.2213 45.7212 55.2213 36.5976 55.2213C34.9695 55.2213 34.6306 54.865 34.6591 53.2331C34.7847 46.221 37.0383 39.9619 41.2803 34.4011C41.7329 33.8097 42.2377 33.4225 43.0149 33.6861C43.9629 34.0092 44.1216 34.9736 43.5173 35.9475C42.2234 38.0283 40.849 40.0735 39.766 42.2613C38.2706 45.2851 37.6403 48.5774 37.3748 51.9362C37.3606 52.1072 37.3725 52.2782 37.3725 52.5443C37.7682 52.5443 38.1142 52.5443 38.4626 52.5443C47.6147 52.5443 56.7668 52.5443 65.919 52.5443C67.4451 52.5443 67.8598 52.9576 67.8598 54.5039C67.8622 63.6016 67.8622 72.6993 67.8622 81.797C67.8622 82.1723 67.8622 82.5477 67.8622 82.9871C70.5709 82.98 73.0734 82.4408 75.5238 81.6593C78.3888 80.7471 81.0288 79.3694 83.4863 77.633C83.9436 77.3099 84.1332 76.9774 84.1285 76.4025C84.1024 72.0461 84.1119 67.6897 84.1142 63.3332C84.1166 60.5208 85.7613 58.858 88.5742 58.839C90.7639 58.8248 92.9536 58.8366 95.2381 58.8366C96.4182 51.4825 95.0556 44.7126 91.1478 38.2991C89.5932 41.0641 88.105 43.715 86.612 46.3612C86.4674 46.6177 86.3347 46.8956 86.1357 47.107C85.6499 47.6225 85.0479 47.727 84.4484 47.3469C83.8631 46.974 83.6071 46.3968 83.9247 45.7364C84.3204 44.9122 84.7873 44.1188 85.2352 43.3207C86.6191 40.8455 88.0054 38.3751 89.406 35.8786C86.631 32.3417 83.299 29.5007 79.2443 27.6836C67.8764 22.586 57.2692 23.959 47.5128 31.7455C47.1929 31.9996 46.8516 32.2894 46.4748 32.3916C45.8397 32.5626 45.3136 32.2894 45.0032 31.6884C44.662 31.0281 44.8444 30.4271 45.3966 30.0304C47.437 28.5696 49.3873 26.9211 51.5936 25.7643C64.8455 18.821 80.2823 21.6667 90.3397 32.7835C90.4771 32.9355 90.6027 33.097 90.8136 33.3512C91.4345 32.2538 92.0317 31.2775 92.5483 30.2585C92.9749 29.42 93.5745 29.0708 94.5271 29.0755C100.452 29.1017 106.374 29.0874 112.298 29.0945C112.618 29.0945 112.957 29.1112 113.256 29.2109C113.898 29.4271 114.291 29.9568 114.09 30.5768C113.943 31.0281 113.478 31.4343 113.059 31.7193C112.808 31.8904 112.369 31.8025 112.016 31.8025C106.566 31.8072 101.118 31.8167 95.667 31.7906C95.02 31.7882 94.6409 31.9592 94.3541 32.5555C93.9323 33.4343 93.4417 34.2847 92.9251 35.109C92.6597 35.5318 92.7142 35.8192 92.9773 36.2135C97.0178 42.2565 98.7098 48.9337 98.288 56.1667C98.2358 57.0765 98.0913 57.9839 97.9894 58.8984C98.1126 58.9673 98.2074 59.0362 98.3164 59.0765C100.162 59.7915 101.056 61.1669 101.058 63.1171C101.065 74.0224 101.065 84.9278 101.058 95.8331C101.058 96.9947 100.603 97.5458 99.7193 97.5505C98.8188 97.5553 98.3472 96.952 98.3472 95.7643C98.3448 85.0371 98.3448 74.3098 98.3448 63.5826C98.3448 61.8842 98.032 61.5731 96.3281 61.5731C93.7806 61.5731 91.2331 61.5707 88.6856 61.5731C87.2045 61.5754 86.8111 61.9721 86.8087 63.4852C86.804 68.3738 86.8063 73.2647 86.8063 78.1532C86.8063 88.4362 86.8063 98.7192 86.8063 109.002C86.8063 109.354 86.8063 109.703 86.8063 110.131C90.6525 110.131 94.4252 110.131 98.3425 110.131C98.3425 109.85 98.3425 109.539 98.3425 109.228C98.3425 106.769 98.333 104.308 98.3472 101.85C98.3543 100.753 99.1055 100.021 99.98 100.251C100.85 100.479 101.065 101.144 101.063 101.962C101.051 104.658 101.058 107.356 101.058 110.052C101.058 110.378 101.035 110.705 101.063 111.031C101.146 111.964 100.805 112.639 99.916 112.998C94.9987 113 90.0814 113 85.1641 113Z" fill="#373563"/>
<path d="M29 58.9412C29.5498 58.3259 30.2441 58.1953 31.0499 58.1977C40.7636 58.219 50.4774 58.2095 60.1912 58.2119C61.8501 58.2119 62.215 58.5801 62.215 60.2476C62.215 69.9653 62.215 79.6853 62.215 89.403C62.215 91.0634 61.7695 91.5622 60.0822 91.4197C57.646 91.2154 55.2217 90.8757 52.6671 90.5788C51.7524 92.5646 50.7642 94.7048 49.7783 96.8474C49.4205 97.6266 49.0461 98.3985 48.7096 99.1872C48.392 99.9307 47.8588 100.256 47.0483 100.254C42.1926 100.242 37.3346 100.251 32.4789 100.244C31.4338 100.242 30.8224 99.743 30.801 98.9401C30.7773 98.0921 31.4172 97.5505 32.4907 97.5505C36.8724 97.5458 41.2566 97.5387 45.6383 97.56C46.245 97.5624 46.5744 97.4128 46.8374 96.8166C47.8967 94.4103 49.0247 92.0325 50.084 89.7379C48.0602 88.6904 45.9796 87.8067 44.0979 86.6119C35.6093 81.2174 30.6802 73.4785 29.218 63.5256C29.1493 63.0648 29.0758 62.604 29.0024 62.1408C29 61.0766 29 60.0077 29 58.9412ZM59.4637 60.9388C50.1812 60.9388 40.9793 60.9388 31.7774 60.9388C32.0618 72.8632 40.7115 83.7306 51.3187 87.0324C51.8472 85.8898 52.3733 84.7378 52.9136 83.5928C53.3946 82.5714 54.07 82.2365 54.8544 82.6094C55.6294 82.9776 55.8047 83.7211 55.3521 84.7306C54.8852 85.7687 54.4113 86.802 53.8757 87.9778C55.8047 88.2509 57.5986 88.5075 59.4637 88.7711C59.4637 79.3718 59.4637 70.1957 59.4637 60.9388Z" fill="#373563"/>
<path d="M104.182 113C103.369 112.622 103.08 112.014 103.082 111.097C103.11 101.893 103.096 92.6881 103.101 83.4836C103.103 80.6474 104.724 79.0463 107.566 79.0463C110.052 79.044 112.54 79.1271 115.019 79.0226C117.5 78.9181 119.171 79.873 120 82.2365C120 92.491 120 102.745 120 113C114.727 113 109.454 113 104.182 113ZM117.298 110.161C117.313 109.912 117.334 109.712 117.334 109.511C117.336 100.836 117.339 92.1608 117.334 83.4859C117.334 82.2222 116.824 81.7258 115.542 81.7234C112.938 81.7163 110.334 81.7187 107.729 81.721C106.196 81.7234 105.772 82.1438 105.772 83.6593C105.772 92.1869 105.772 100.712 105.772 109.24C105.772 109.549 105.772 109.86 105.772 110.161C109.696 110.161 113.474 110.161 117.298 110.161Z" fill="#373563"/>
<path d="M66.3242 113C65.4379 112.648 65.1298 111.988 65.137 111.05C65.163 106.755 65.137 102.46 65.1535 98.1658C65.163 95.3581 66.8195 93.7024 69.6372 93.681C72.3008 93.6597 74.9668 93.6597 77.6305 93.681C80.4837 93.7048 82.1189 95.3818 82.1213 98.2513C82.1236 102.487 82.0975 106.722 82.1402 110.957C82.1497 111.886 81.8653 112.544 81.0785 113C76.1589 113 71.2415 113 66.3242 113ZM79.3083 110.176C79.3557 109.998 79.3984 109.914 79.3984 109.829C79.4031 105.864 79.4197 101.897 79.3984 97.933C79.3913 96.8498 78.896 96.427 77.7632 96.4222C75.0711 96.4104 72.379 96.4151 69.687 96.4199C68.2864 96.4222 67.8907 96.8166 67.8883 98.199C67.8835 101.897 67.8859 105.598 67.8859 109.297C67.8859 109.579 67.8859 109.862 67.8859 110.176C71.7653 110.176 75.5143 110.176 79.3083 110.176Z" fill="#373563"/>
<path d="M106.232 26.5196C104.25 26.5196 102.269 26.5244 100.288 26.5149C99.9373 26.5125 99.4942 26.56 99.2572 26.3747C98.8757 26.0754 98.3875 25.598 98.397 25.206C98.4065 24.7666 98.8567 24.2654 99.2359 23.9305C99.4515 23.7381 99.9113 23.7856 100.26 23.7856C104.253 23.7761 108.243 23.7761 112.237 23.7856C112.585 23.7856 113.049 23.7428 113.258 23.9352C113.63 24.2773 114.061 24.7832 114.064 25.2227C114.066 25.6146 113.583 26.0873 113.203 26.3795C112.966 26.5624 112.523 26.5125 112.173 26.5149C110.194 26.5244 108.213 26.5196 106.232 26.5196Z" fill="#373563"/>
<path d="M37.6213 91.833C39.3986 91.833 41.176 91.8259 42.9533 91.8354C43.9747 91.8401 44.5932 92.3746 44.5719 93.1941C44.5506 93.9827 43.9415 94.4958 42.9841 94.4982C39.4603 94.5053 35.934 94.5029 32.4101 94.4982C31.403 94.4958 30.7797 93.9566 30.7987 93.1347C30.8153 92.3461 31.4124 91.8401 32.3793 91.8354C34.1259 91.8259 35.8724 91.833 37.6213 91.833Z" fill="#373563"/>
<path d="M111.03 66.1979C109.58 66.1979 108.13 66.2074 106.682 66.1955C105.62 66.186 104.961 65.6397 104.971 64.8083C104.98 64.0055 105.601 63.4734 106.63 63.4686C109.649 63.4544 112.665 63.4544 115.685 63.4686C116.751 63.4734 117.32 63.9603 117.332 64.7988C117.346 65.6706 116.742 66.1837 115.649 66.1932C114.106 66.2074 112.568 66.1979 111.03 66.1979Z" fill="#373563"/>
<path d="M111.175 52.0003C112.713 52.0003 114.251 51.9908 115.789 52.0027C116.76 52.0098 117.327 52.511 117.329 53.3258C117.332 54.1405 116.758 54.6607 115.798 54.6631C112.692 54.6726 109.585 54.6726 106.48 54.6631C105.549 54.6607 104.942 54.0859 104.968 53.2901C104.994 52.5205 105.566 52.0122 106.471 52.0027C108.037 51.9908 109.606 52.0003 111.175 52.0003Z" fill="#373563"/>
<path d="M111.158 60.4139C109.62 60.4139 108.082 60.4281 106.544 60.4091C105.568 60.3973 104.983 59.8866 104.968 59.0979C104.954 58.2903 105.596 57.7226 106.587 57.7178C109.635 57.7083 112.682 57.7083 115.73 57.7178C116.749 57.7202 117.339 58.2475 117.329 59.0932C117.32 59.9079 116.772 60.3973 115.775 60.4091C114.237 60.4281 112.699 60.4139 111.158 60.4139Z" fill="#373563"/>
<defs>
<linearGradient id="paint0_linear_4_514" x1="155.43" y1="81.1405" x2="139.256" y2="93.8595" gradientUnits="userSpaceOnUse">
<stop stop-color="#B5B5FF"/>
<stop offset="1" stop-color="#FFB0B5"/>
</linearGradient>
</defs>
</svg>
