<svg width="152" height="97" viewBox="0 0 152 97" fill="none" xmlns="http://www.w3.org/2000/svg">
<circle cx="114.5" cy="63.5" r="27.5" fill="url(#paint0_linear_4_515)"/>
<circle cx="142.5" cy="16.5" r="9.5" fill="url(#paint1_linear_4_515)"/>
<circle cx="9.5" cy="87.5" r="9.5" fill="#FE9395"/>
<path d="M65.4097 76.6799C65.4097 77.3517 65.4009 77.9243 65.4119 78.497C65.434 79.8626 64.8499 80.9001 63.6707 81.5564C62.4827 82.2172 61.2771 82.1225 60.1531 81.3868C58.0107 79.9838 55.9015 78.5345 53.7459 77.1534C53.3161 76.8781 52.7453 76.7151 52.2339 76.6997C50.3076 76.6468 48.3769 76.6799 46.4483 76.6777C42.5384 76.6755 40.0434 74.3187 39.6202 70.431C39.1111 65.7593 38.4719 61.1008 37.8878 56.4356C37.3126 51.8256 36.7373 47.2155 36.1621 42.6032C35.8094 39.7663 35.5141 36.9205 35.0909 34.0923C34.4495 29.8105 37.2641 26.4537 41.5906 26.4493C46.1089 26.4471 50.6272 26.4493 55.1477 26.4493C55.4474 26.4493 55.7472 26.4493 56.102 26.4493C56.102 25.566 56.102 24.7312 56.102 23.7995C55.8001 23.7995 55.5069 23.7995 55.2116 23.7995C52.4565 23.7995 49.7015 23.8061 46.9464 23.7973C44.6388 23.7885 42.9395 22.0881 42.9351 19.7753C42.9285 14.5155 42.9263 9.25566 42.9351 3.99582C42.9395 1.73374 44.6454 0.0157039 46.9002 0.0135013C53.9531 0.00469086 61.0082 0.00469086 68.0612 0.0135013C70.3115 0.0157039 72.0108 1.73814 72.0218 4.00243C72.0329 6.1698 72.024 8.33717 72.024 10.5464C78.213 10.5464 84.3182 10.5464 90.5468 10.5464C90.5468 9.24024 90.5424 7.9319 90.5468 6.62134C90.5623 3.66984 92.3938 1.16546 95.2062 0.310849C95.8035 0.130234 96.4449 0.0377274 97.0708 0.0245117C98.8891 -0.0129327 100.707 0.000285629 102.526 0.0135013C106.121 0.0377301 109.043 2.94077 109.052 6.53323C109.067 12.8129 109.056 19.0903 109.056 25.37C109.056 25.696 109.056 26.022 109.056 26.5131C109.982 26.5131 110.875 26.3898 111.719 26.5352C115.267 27.1475 117.412 30.3501 116.934 33.9381C116.015 40.8323 115.197 47.7419 114.328 54.6427C113.625 60.2351 112.942 65.8298 112.186 71.4156C111.776 74.4486 109.118 76.6732 106.026 76.6755C92.8545 76.6843 79.6853 76.6799 66.5139 76.6799C66.1877 76.6799 65.8593 76.6799 65.4097 76.6799ZM62.7693 74.0411C63.2167 74.0411 63.5451 74.0411 63.8735 74.0411C77.6488 74.0411 91.4262 74.0411 105.202 74.0411C105.503 74.0411 105.808 74.0521 106.11 74.0323C107.946 73.9112 109.327 72.6579 109.574 70.8495C109.823 69.0236 110.035 67.1932 110.266 65.3672C110.91 60.2946 111.558 55.222 112.197 50.1472C112.905 44.5283 113.592 38.9072 114.309 33.2884C114.544 31.4338 113.398 29.6475 111.567 29.2488C110.78 29.077 109.949 29.1034 109.054 29.0329C109.054 29.469 109.054 29.7642 109.054 30.0593C109.054 33.5835 109.061 37.1099 109.045 40.6341C109.043 41.0063 109.001 41.4182 108.84 41.7442C106.901 45.6627 104.939 49.5679 102.975 53.4753C102.279 54.8608 101.164 55.5436 99.5922 55.5348C96.3964 55.5127 93.2005 55.5304 90.0046 55.526C89.7644 55.526 89.5264 55.5039 89.2795 55.4907C89.2795 54.6009 89.2795 53.7661 89.2795 52.8806C91.6158 52.8806 93.8948 52.8806 96.2884 52.8806C96.1231 52.5304 96.0018 52.2617 95.8718 51.9974C94.2033 48.6538 92.5217 45.3146 90.873 41.9601C90.6769 41.5592 90.5601 41.0768 90.5578 40.6319C90.5336 37.0791 90.5446 33.5263 90.5446 29.9734C90.5446 29.6849 90.5446 29.3986 90.5446 29.0858C90.214 29.0858 90.0223 29.0858 89.8305 29.0858C73.7674 29.0858 57.7044 29.0858 41.6413 29.0858C41.476 29.0858 41.3107 29.0814 41.1454 29.0946C38.9876 29.2466 37.4029 31.1166 37.6696 33.2025C38.1964 37.3478 38.7342 41.4931 39.2499 45.6384C40.266 53.7969 41.2688 61.9554 42.2805 70.1139C42.6265 72.9134 43.9225 74.0411 46.7789 74.0411C48.9279 74.0411 51.0768 74.0213 53.2258 74.0588C53.66 74.0676 54.1515 74.2063 54.5151 74.442C56.8007 75.9244 59.0488 77.464 61.3322 78.9485C61.6122 79.1292 62.1125 79.2701 62.3483 79.138C62.5929 78.9992 62.7428 78.5124 62.7538 78.1732C62.7957 76.8296 62.7693 75.4861 62.7693 74.0411ZM57.4707 2.65003C54.1118 2.65003 50.755 2.64783 47.3961 2.65003C46.0185 2.65223 45.5711 3.09936 45.5711 4.4826C45.5689 9.43407 45.5689 14.3878 45.5711 19.3392C45.5711 20.7137 46.0229 21.1608 47.4071 21.1608C54.1228 21.163 60.8407 21.163 67.5565 21.1608C68.934 21.1608 69.3814 20.7092 69.3836 19.3282C69.3858 14.3767 69.3858 9.42306 69.3836 4.47159C69.3836 3.09716 68.9318 2.65003 67.5476 2.65003C64.1887 2.64783 60.8297 2.65003 57.4707 2.65003ZM72.11 13.2644C72.0725 13.3657 72.0373 13.4142 72.0373 13.4649C72.0307 15.5551 72.0307 17.6476 72.0218 19.7379C72.0108 22.1013 70.3291 23.7929 67.9708 23.7995C65.218 23.8083 62.4651 23.8017 59.7123 23.8017C59.4213 23.8017 59.1326 23.8017 58.8659 23.8017C58.8659 24.7555 58.8659 25.5924 58.8659 26.3854C69.4607 26.3854 79.9895 26.3854 90.505 26.3854C90.505 21.9802 90.505 17.641 90.505 13.2644C84.3579 13.2644 78.2549 13.2644 72.11 13.2644ZM106.418 13.1961C106.418 11.0662 106.418 9.00677 106.418 6.94732C106.418 6.72706 106.423 6.5046 106.396 6.28654C106.149 4.17203 104.529 2.69188 102.38 2.65664C100.672 2.63021 98.9641 2.63241 97.2581 2.65443C95.1555 2.68307 93.4363 4.02005 93.2776 6.09051C93.0969 8.43409 93.2358 10.8019 93.2358 13.1939C97.6174 13.1961 101.959 13.1961 106.418 13.1961ZM93.2203 39.6099C95.0056 39.6099 96.7226 39.6099 98.4153 39.6099C98.4153 33.4271 98.4153 27.3061 98.4153 21.2026C96.6498 21.2026 94.9527 21.2026 93.2203 21.2026C93.2203 27.3501 93.2203 33.4514 93.2203 39.6099ZM106.359 39.6341C106.359 33.4426 106.359 27.3215 106.359 21.2247C104.582 21.2247 102.863 21.2247 101.166 21.2247C101.166 27.3942 101.166 33.4954 101.166 39.6341C102.907 39.6341 104.604 39.6341 106.359 39.6341ZM94.0733 42.3521C94.221 42.6737 94.3179 42.8962 94.4259 43.1142C95.8872 46.0393 97.3331 48.9688 98.8296 51.8762C99.028 52.2617 99.46 52.7176 99.8325 52.7639C100.108 52.7991 100.571 52.2793 100.76 51.9093C102.266 48.9776 103.727 46.0239 105.199 43.0768C105.307 42.8609 105.393 42.6363 105.517 42.3521C101.686 42.3521 97.9304 42.3521 94.0733 42.3521ZM93.2512 15.8987C93.2512 16.8238 93.2512 17.6586 93.2512 18.4758C97.6593 18.4758 102.001 18.4758 106.363 18.4758C106.363 17.597 106.363 16.7622 106.363 15.8987C101.97 15.8987 97.6306 15.8987 93.2512 15.8987Z" fill="#373563"/>
<path d="M79.9586 43.7244C83.3352 44.7376 85.2483 47.1164 85.2483 50.2353C85.2483 53.3608 83.344 55.7418 79.9586 56.7616C79.9586 57.222 79.9586 57.7088 79.9586 58.1977C79.9586 60.4004 79.9674 62.603 79.9564 64.8056C79.9454 66.7417 78.5679 68.3738 76.6878 68.713C74.8254 69.0478 72.9696 67.9531 72.2489 66.1712C72.0659 65.7219 71.7375 65.2637 71.354 64.9708C68.4094 62.7307 65.1232 61.1977 61.4623 60.3034C61.4623 64.0038 61.4623 67.6337 61.4623 71.3275C58.8747 71.3275 56.3335 71.3275 53.7459 71.3275C52.8753 67.4179 52.0047 63.5104 51.1275 59.5766C50.1335 59.5017 49.1373 59.5259 48.1829 59.3365C45.0862 58.7176 42.9505 56.0656 42.9351 52.9181C42.9263 51.1009 42.9219 49.2838 42.9373 47.4666C42.9681 43.9336 45.8863 41.0416 49.4304 40.9953C52.1281 40.9601 54.8347 41.0218 57.5214 40.8235C62.7891 40.4359 67.4969 38.4954 71.678 35.284C71.9161 35.1011 72.0946 34.7818 72.1982 34.491C72.8858 32.5747 74.735 31.4382 76.6746 31.7752C78.5811 32.1056 79.9498 33.7531 79.9564 35.7531C79.9652 38.3896 79.9586 41.0328 79.9586 43.7244ZM56.1968 43.6142C56.1968 48.0943 56.1968 52.4577 56.1968 56.8718C61.9229 57.1493 67.1575 58.8453 71.9491 62.0479C71.9491 54.1295 71.9491 46.3257 71.9491 38.4337C67.1289 41.6561 61.9097 43.3323 56.1968 43.6142ZM77.3204 50.2639C77.3204 45.6428 77.3204 41.0218 77.3204 36.4007C77.3204 36.1254 77.3468 35.8434 77.2961 35.5769C77.1683 34.8743 76.7363 34.4448 76.0156 34.3941C75.3654 34.3478 74.7857 34.9007 74.6865 35.6165C74.6579 35.8324 74.6689 36.0549 74.6689 36.2751C74.6689 45.601 74.6689 54.9247 74.6689 64.2505C74.6689 64.4422 74.6579 64.6382 74.6799 64.8276C74.7659 65.5567 75.3103 66.0853 75.9715 66.0985C76.6239 66.1117 77.2036 65.5875 77.3005 64.8695C77.3336 64.625 77.3182 64.3761 77.3182 64.1272C77.3204 59.5061 77.3204 54.885 77.3204 50.2639ZM53.4969 43.6539C52.0025 43.6539 50.5699 43.5548 49.1571 43.6803C47.6032 43.8169 46.4968 44.6957 45.8422 46.286C47.5702 46.286 49.1769 46.286 50.8035 46.286C50.8035 47.1979 50.8035 48.0327 50.8035 48.9556C49.0315 48.9556 47.3145 48.9556 45.613 48.9556C45.613 49.863 45.613 50.678 45.613 51.5811C47.3718 51.5811 49.0888 51.5811 50.7947 51.5811C50.7947 52.5062 50.7947 53.341 50.7947 54.2198C49.1417 54.2198 47.5548 54.2198 45.8885 54.2198C46.3095 55.4665 47.1206 56.374 48.2777 56.5722C49.9814 56.863 51.738 56.8387 53.4947 56.9511C53.4969 52.4027 53.4969 48.0855 53.4969 43.6539ZM58.7755 59.7241C57.1093 59.6272 55.5136 59.5369 53.8385 59.44C54.5217 62.5038 55.1609 65.3959 55.8199 68.2835C55.8596 68.4553 56.0425 68.7218 56.1682 68.7284C57.0343 68.7681 57.9027 68.7483 58.7777 68.7483C58.7755 65.7175 58.7755 62.8056 58.7755 59.7241ZM79.9895 53.8696C81.6381 53.2617 82.6894 51.7 82.6013 50.0877C82.5263 48.7221 81.5609 46.9798 79.9895 46.6649C79.9895 49.0503 79.9895 51.4291 79.9895 53.8696Z" fill="#373563"/>
<path d="M89.2575 60.7506C89.2575 59.9114 89.2575 59.0964 89.2575 58.2308C95.3979 58.2308 101.516 58.2308 107.685 58.2308C107.685 59.0545 107.685 59.8695 107.685 60.7506C101.587 60.7506 95.4685 60.7506 89.2575 60.7506Z" fill="#373563"/>
<path d="M89.2641 66.05C89.2641 65.1712 89.2641 64.3584 89.2641 63.506C95.4045 63.506 101.503 63.506 107.668 63.506C107.668 64.3276 107.668 65.1624 107.668 66.05C101.563 66.05 95.4442 66.05 89.2641 66.05Z" fill="#373563"/>
<path d="M89.2376 71.3407C89.2376 70.4685 89.2376 69.6778 89.2376 68.8187C90.0796 68.8187 90.9127 68.8187 91.8031 68.8187C91.8031 69.6271 91.8031 70.4575 91.8031 71.3407C90.9722 71.3407 90.1413 71.3407 89.2376 71.3407Z" fill="#373563"/>
<path d="M97.1347 68.8077C97.1347 69.6733 97.1347 70.4641 97.1347 71.3253C96.2972 71.3253 95.4663 71.3253 94.5736 71.3253C94.5736 70.5236 94.5736 69.6932 94.5736 68.8077C95.3979 68.8077 96.2289 68.8077 97.1347 68.8077Z" fill="#373563"/>
<path d="M99.8413 71.3341C99.8413 70.4619 99.8413 69.6491 99.8413 68.7967C100.69 68.7967 101.501 68.7967 102.378 68.7967C102.378 69.6139 102.378 70.4443 102.378 71.3341C101.567 71.3341 100.736 71.3341 99.8413 71.3341Z" fill="#373563"/>
<path d="M105.138 68.7901C105.993 68.7901 106.804 68.7901 107.674 68.7901C107.674 69.6271 107.674 70.4575 107.674 71.3407C106.844 71.3407 106.013 71.3407 105.138 71.3407C105.138 70.5081 105.138 69.6976 105.138 68.7901Z" fill="#373563"/>
<path d="M54.3917 5.20726C54.9119 5.36365 55.4629 5.45616 55.9433 5.68964C57.9931 6.68301 60.0252 7.71604 62.0596 8.74246C63.3467 9.39223 64.0719 10.4209 64.0807 11.8856C64.0895 13.3525 63.3732 14.3944 62.0904 15.0485C60.0605 16.0838 58.0306 17.1212 55.9764 18.108C53.4462 19.3238 50.874 17.6917 50.8652 14.8899C50.8586 12.8283 50.852 10.7645 50.8674 8.70281C50.8873 6.77112 52.4257 5.28656 54.3917 5.20726ZM53.5057 11.8614C53.5057 12.8503 53.4858 13.8393 53.5123 14.8283C53.5343 15.7093 54.103 16.0551 54.8964 15.6653C56.8646 14.6983 58.8306 13.7226 60.7768 12.7094C61.0545 12.564 61.4028 12.1873 61.3851 11.9407C61.3631 11.6389 61.0501 11.249 60.757 11.097C58.8152 10.0794 56.8492 9.10589 54.8788 8.13674C54.0787 7.74247 53.5321 8.08167 53.5123 8.97814C53.488 9.93848 53.5057 10.901 53.5057 11.8614Z" fill="#373563"/>
<defs>
<linearGradient id="paint0_linear_4_515" x1="137.455" y1="45.0909" x2="90.6364" y2="81.9091" gradientUnits="userSpaceOnUse">
<stop stop-color="#B5B5FF"/>
<stop offset="1" stop-color="#FFB0B5"/>
</linearGradient>
<linearGradient id="paint1_linear_4_515" x1="150.43" y1="10.1405" x2="134.256" y2="22.8595" gradientUnits="userSpaceOnUse">
<stop stop-color="#B5B5FF"/>
<stop offset="1" stop-color="#FFB0B5"/>
</linearGradient>
</defs>
</svg>
