<svg width="79" height="78" viewBox="0 0 79 78" fill="none" xmlns="http://www.w3.org/2000/svg">
<path d="M0.00824527 47.5543C0.34011 47.0012 0.822447 46.7734 1.46762 46.7133C3.20115 46.5538 4.54922 45.6921 5.64582 44.2007C5.33457 44.1095 5.07278 44.0536 4.82955 43.9563C4.04833 43.6393 3.22383 43.3887 2.50444 42.9599C0.921388 42.0195 0.496767 40.526 1.26974 38.9848C2.15609 37.2159 3.81335 36.4349 5.46443 37.0999C7.45973 37.9056 8.34402 39.5607 8.63672 41.6073C8.66764 41.8206 8.68207 42.036 8.89025 42.2867C8.9624 42.0402 9.06134 41.7978 9.10669 41.5472C10.3125 34.6825 13.9589 29.5309 19.8748 25.9701C20.6086 25.5289 21.2476 25.6366 21.6268 26.2332C22.0102 26.8339 21.802 27.5299 21.0497 27.9835C16.7705 30.5687 13.5714 34.1046 12.1491 38.9641C10.0879 46.009 10.5063 52.8281 14.7257 59.0838C16.4737 61.6752 18.807 63.6658 21.5382 65.1489C22.6162 65.7331 23.1378 66.5264 23.3294 67.7361C23.7128 70.1576 24.2364 72.5563 24.6858 74.9674C24.7765 75.4563 25.0114 75.6841 25.5144 75.6821C27.1346 75.6696 28.7547 75.6717 30.3749 75.6821C30.8613 75.6841 31.1231 75.4998 31.2097 74.9861C31.4385 73.6376 31.7168 72.2974 31.9641 70.951C32.2197 69.5569 32.9144 69.0121 34.3325 69.1364C38.2881 69.4823 42.2354 69.4782 46.1724 68.8816C47.5762 68.6683 48.3491 69.269 48.6109 70.6941C48.8686 72.0902 49.1448 73.4843 49.386 74.8825C49.489 75.4749 49.7838 75.7007 50.3857 75.6883C51.876 75.6572 53.3683 75.6448 54.8586 75.6924C55.5698 75.7152 55.8769 75.4501 55.9985 74.7665C56.4541 72.2 56.9735 69.6439 57.4022 67.0712C57.5836 65.9878 58.0577 65.2773 59.0492 64.7429C62.7883 62.7316 65.9091 60.0201 68.0796 56.2936C68.6011 55.4008 69.3844 54.8643 70.3573 54.5619C71.9239 54.0731 73.4863 53.5656 75.0446 53.0498C76.2361 52.6541 76.6937 52.0058 76.6978 50.7505C76.7019 49.1451 76.7019 47.5398 76.6978 45.9345C76.6957 44.6647 76.2443 44.0267 75.0611 43.6248C74.2119 43.3369 73.3647 43.0303 72.501 42.79C70.986 42.3695 70.0419 41.4271 69.5596 39.9108C68.8732 37.7482 67.7766 35.7949 66.3502 34.0321C66.2719 33.9347 66.2162 33.8187 66.0864 33.6075C65.907 33.9927 65.7916 34.2144 65.7009 34.4443C64.6847 37.0253 62.7492 38.2744 60.0448 38.3448C55.9965 38.4484 51.7791 36.2837 50.6969 31.3206C50.2991 29.4998 50.3857 27.6708 50.6907 25.8458C50.7196 25.6677 50.7567 25.4896 50.7773 25.3114C50.7856 25.2389 50.7649 25.1623 50.7485 25.0131C50.1672 24.8744 49.5797 24.7107 48.9799 24.6071C48.8335 24.5823 48.5924 24.7211 48.4976 24.8578C47.3185 26.5522 45.8612 27.9546 44.0122 29.1912C44.6739 29.4025 45.2139 29.5661 45.7478 29.7463C46.6342 30.0446 46.9887 30.577 46.7846 31.2709C46.5661 32.0062 45.9436 32.2755 45.0408 31.9876C38.7539 29.9825 32.4691 29.9763 26.1802 31.9772C25.9163 32.0622 25.5515 32.2051 25.3722 32.0953C24.9929 31.8612 24.56 31.5319 24.4178 31.1404C24.2096 30.5708 24.5518 30.0923 25.1289 29.8623C25.4381 29.7401 25.7597 29.649 26.0792 29.5495C26.3946 29.4522 26.712 29.361 27.1552 29.2285C26.8851 29.0213 26.7017 28.8722 26.512 28.7334C21.3176 24.9966 18.8544 18.5255 20.2685 12.3299C21.701 6.05346 26.7512 1.27262 33.0731 0.209987C39.6114 -0.889935 46.2611 2.40776 49.4045 8.30716C49.454 8.3983 49.5076 8.4853 49.5509 8.58059C49.8848 9.30144 49.7323 9.92701 49.1386 10.2646C48.545 10.6023 47.9678 10.3786 47.5123 9.71365C46.7558 8.61166 46.092 7.40402 45.1624 6.46774C41.3388 2.61904 36.7174 1.38862 31.5787 3.01676C26.4688 4.63661 23.3542 8.29887 22.4122 13.6121C21.3424 19.6316 24.5023 25.4481 29.942 28.0643C30.9829 28.5656 31.9435 28.2528 32.9432 28.2715C35.1982 28.317 37.4533 28.3771 39.7104 28.4123C40.034 28.4185 40.3906 28.402 40.6771 28.2736C45.6303 26.0426 48.3924 22.2146 48.9448 16.7648C48.9881 16.3422 49.1922 15.8347 49.4973 15.5758C49.7405 15.3707 50.3568 15.323 50.6145 15.495C50.934 15.7104 51.2782 16.2614 51.2225 16.6053C50.9566 18.279 50.5671 19.9319 50.2084 21.5891C50.1548 21.8335 50.0373 22.0655 49.9219 22.3721C51.0638 22.6082 52.0223 23.066 53.257 22.4467C56.1696 20.9863 59.1955 19.7435 62.4049 19.064C63.1037 18.917 63.8334 18.8237 64.5425 18.8507C66.0328 18.9087 66.9459 19.9651 67.2551 21.9226C67.7086 24.7977 67.4283 27.6438 66.9212 30.4858C66.8717 30.7593 66.9624 31.157 67.1417 31.3558C69.2463 33.6841 70.8417 36.3065 71.8064 39.3101C72.0043 39.9273 72.3877 40.3126 73.0081 40.5011C74.014 40.8077 75.0158 41.1308 76.0073 41.4788C77.9139 42.1458 78.9899 43.6828 78.9961 45.717C79.0002 47.4777 79.0023 49.2384 78.9961 50.9991C78.9899 52.9731 77.9057 54.5288 76.034 55.1792C74.3624 55.7592 72.6639 56.2625 70.9963 56.855C70.6191 56.9896 70.213 57.2879 70.009 57.6276C67.6406 61.5633 64.3405 64.4819 60.3746 66.6838C59.9603 66.9138 59.75 67.1789 59.6614 67.6761C59.1955 70.3192 58.6864 72.9561 58.1649 75.5909C57.8578 77.1362 56.7921 77.9876 55.2173 77.9938C53.5209 78.0021 51.8224 78.0021 50.126 77.9938C48.5841 77.9855 47.5349 77.1694 47.1948 75.6655C46.9331 74.5076 46.6486 73.3435 46.5352 72.1669C46.4466 71.241 45.991 71.2886 45.3046 71.3362C42.9239 71.4999 40.539 71.6469 38.152 71.707C36.8761 71.7381 35.594 71.5786 34.2398 71.4999C33.9883 72.7924 33.7368 74.0767 33.4894 75.3631C33.1432 77.1549 32.1455 77.9917 30.3398 77.9959C28.7197 78 27.0995 78 25.4794 77.9959C23.7932 77.9896 22.7131 77.0969 22.3957 75.448C21.9319 73.0389 21.4475 70.6361 21.0291 68.2188C20.9322 67.6553 20.6683 67.3819 20.2169 67.1168C14.5979 63.8129 10.865 59.059 9.33961 52.6376C8.78101 50.2844 8.59343 47.8919 8.66352 45.4767C8.67176 45.2219 8.66352 44.965 8.5048 44.528C8.28837 44.7082 8.01216 44.849 7.86374 45.0769C6.62492 46.9743 5.06248 48.4512 2.81157 49.0146C1.81598 49.2632 0.783282 49.4849 0 48.4864C0.00824508 48.1757 0.00824527 47.865 0.00824527 47.5543ZM65.1732 24.487C65.1258 24.0106 65.0784 23.0536 64.9218 22.1132C64.763 21.1541 64.5693 21.0526 63.6005 21.2266C60.1582 21.8439 57.0003 23.2794 53.8589 24.7418C53.5085 24.9054 53.1684 25.415 53.1045 25.8127C52.9169 26.9541 52.7726 28.1203 52.7871 29.274C52.8345 33.2532 55.7656 36.0331 59.7232 36.0041C61.6691 35.9896 62.9574 35.2045 63.6561 33.3112C64.6538 30.608 65.1011 27.8303 65.1732 24.487ZM6.33016 41.9905C6.06219 40.555 5.56543 39.7326 4.85841 39.3701C4.26477 39.0656 3.80098 39.2603 3.40316 39.9253C3.03831 40.5343 3.3743 40.8761 3.85458 41.0832C4.61518 41.4105 5.41083 41.659 6.33016 41.9905Z" fill="#373563"/>
<path d="M66.3461 42.6885C66.2822 44.6108 64.5384 46.2514 62.574 46.239C60.5766 46.2245 58.8225 44.5197 58.8121 42.5829C58.808 41.8641 59.2285 41.3504 59.8675 41.2903C60.5251 41.2282 60.9806 41.6197 61.1166 42.3633C61.3063 43.3908 61.7515 43.8527 62.5616 43.863C63.4005 43.8734 63.8623 43.399 64.0478 42.3343C64.1694 41.628 64.6785 41.2178 65.3319 41.2945C65.9998 41.3711 66.3729 41.8848 66.3461 42.6885Z" fill="#373563"/>
</svg>
