<svg width="167" height="98" viewBox="0 0 167 98" fill="none" xmlns="http://www.w3.org/2000/svg">
<circle r="27.5" transform="matrix(-1 0 0 1 98.5 27.5)" fill="url(#paint0_linear_4_520)"/>
<circle r="9.5" transform="matrix(-1 0 0 1 157.5 46.5)" fill="url(#paint1_linear_4_520)"/>
<circle r="9.5" transform="matrix(-1 0 0 1 9.5 88.5)" fill="#FE9395"/>
<path d="M59.3788 93C58.7923 92.6199 58.5654 92.0989 58.5761 91.3856C58.6103 89.0388 58.5975 86.6898 58.5846 84.343C58.5803 83.6277 58.7944 83.1087 59.5222 82.8504C59.6806 82.7927 59.8497 82.5215 59.8604 82.34C59.8989 81.6225 59.8754 80.9029 59.8754 80.1256C58.7387 79.9505 58.5418 79.1839 58.5782 78.2016C58.6253 76.9246 58.5889 75.6433 58.5889 74.2895C57.9425 74.1186 57.3025 73.9734 56.6753 73.7812C43.9156 69.8777 35.9679 61.4108 33.5234 48.325C30.486 32.0552 40.9788 16.0673 56.9386 12.0207C58.5825 11.6043 60.2906 11.4356 61.9688 11.1473C62.1764 11.111 62.3776 11.0491 62.5831 11C64.1864 11 65.7875 11 67.3907 11C68.9619 11.2669 70.563 11.4164 72.0999 11.8179C84.6861 15.0936 92.9421 22.9669 96.0009 35.5979C98.8542 47.3832 95.5279 57.6695 86.893 66.2048C86.3622 66.7301 85.7842 67.2084 85.2106 67.6846C84.2645 68.4683 83.5881 68.5089 83.0615 67.8448C82.5542 67.2042 82.7297 66.5742 83.6416 65.8268C86.3964 63.5718 88.6696 60.9132 90.4869 57.851C99.5521 42.5935 92.7088 22.2942 76.2503 15.6467C59.565 8.90729 41.1009 18.0981 36.4217 35.4676C32.299 50.7743 41.4605 66.9137 56.7566 71.2721C64.1842 73.3883 71.3635 72.6858 78.2903 69.3011C78.4337 69.2307 78.5749 69.1538 78.7226 69.094C79.4568 68.7929 80.1097 69.0171 80.4072 69.6663C80.6855 70.2749 80.48 70.9411 79.7694 71.2529C78.0163 72.0217 76.2461 72.7541 74.4566 73.4353C73.6667 73.7364 72.8212 73.9136 71.9886 74.0866C71.4941 74.1891 71.3614 74.4219 71.3742 74.9023C71.4063 76.1024 71.3892 77.3047 71.3828 78.5048C71.3785 79.4935 71.1431 79.801 70.137 80.1128C70.137 80.9712 70.137 81.8424 70.137 82.7585C71.2073 82.955 71.417 83.6832 71.3978 84.6526C71.3528 86.8671 71.3614 89.0837 71.3956 91.2981C71.4063 92.0305 71.2265 92.6028 70.5929 92.9936C70.2719 92.9936 69.9529 92.9936 69.6319 92.9936C69.071 92.5024 68.9191 91.8832 68.9533 91.1507C69.0025 90.0852 68.9662 89.0174 68.9662 87.9497C68.9662 87.0785 68.9662 86.2072 68.9662 85.3338C66.2605 85.3338 63.6641 85.3338 61.0056 85.3338C61.0056 87.3176 60.9777 89.2353 61.0184 91.1507C61.0334 91.8832 60.8964 92.5003 60.3377 92.9936C60.0188 93 59.6977 93 59.3788 93ZM61.0548 74.802C61.0548 75.7223 61.0548 76.6406 61.0548 77.5823C63.7005 77.5823 66.2969 77.5823 68.9169 77.5823C68.9169 76.6085 68.9169 75.6882 68.9169 74.802C66.2926 74.802 63.7155 74.802 61.0548 74.802ZM62.3584 82.7393C64.1521 82.7393 65.871 82.7393 67.6133 82.7393C67.6133 81.836 67.6133 80.9947 67.6133 80.1064C65.8453 80.1064 64.1264 80.1064 62.3584 80.1064C62.3584 80.9926 62.3584 81.8339 62.3584 82.7393Z" fill="#373563"/>
<path d="M41.3363 48.7243C43.2842 45.9931 43.5839 45.7625 46.4222 44.7204C43.6417 40.52 43.738 36.7574 46.6705 33.8831C48.8924 31.705 53.3297 30.3148 57.4844 33.8746C58.8715 30.0714 61.5022 27.9894 65.6312 28.1709C68.7457 28.3097 71.1709 30.3939 72.4787 33.9216C74.4737 32.1598 76.7469 31.3249 79.399 31.8417C81.043 32.162 82.4429 32.9499 83.5838 34.1821C86.2765 37.0948 86.2658 40.4901 83.5303 44.7609C85.7949 45.2927 87.4603 46.5995 88.6012 48.8097C89.2176 46.3689 89.4638 44.0627 89.3182 41.7308C88.9201 35.3736 86.482 29.9134 81.9099 25.4589C71.6375 15.4481 54.8259 16.5585 45.9277 27.8143C45.795 27.9808 45.6666 28.1517 45.5232 28.3118C44.9859 28.914 44.3009 29.0208 43.7551 28.5916C43.2221 28.173 43.16 27.4448 43.6352 26.8106C45.1636 24.7649 46.9616 22.9818 49.0144 21.4699C53.9932 17.7992 59.5907 16.0204 65.7725 16.1741C78.56 16.4902 89.5087 26.1551 91.4331 38.786C93.6142 53.0976 84.3073 66.3778 70.0942 69.2392C56.0417 72.0665 41.9849 62.8906 38.8662 48.8374C37.6032 43.1466 38.117 37.6137 40.4309 32.2538C40.7027 31.6239 41.0837 31.1989 41.8008 31.2715C42.6592 31.3569 43.0209 32.1684 42.7191 33.093C42.1454 34.8611 41.5011 36.6165 41.0923 38.423C40.3238 41.8183 40.5037 45.2371 41.3363 48.7243ZM53.4923 64.5968C53.5801 64.5221 53.6657 64.4473 53.7535 64.3726C53.7535 62.6429 53.7535 60.9111 53.7535 59.1814C53.7535 58.8889 53.7471 58.5942 53.7578 58.3016C53.7877 57.5072 54.2715 56.9798 54.9543 56.9841C55.6436 56.9862 56.153 57.5136 56.1594 58.3037C56.1744 60.5182 56.1573 62.7326 56.1765 64.947C56.1787 65.2054 56.26 65.6261 56.4227 65.6944C57.1976 66.0147 58.011 66.239 58.91 66.5315C58.91 66.0959 58.91 65.8055 58.91 65.5151C58.91 60.926 58.91 56.337 58.91 51.7459C58.91 51.5067 58.8843 51.259 58.9314 51.0284C59.0641 50.3685 59.4965 49.9671 60.1579 49.9906C60.8086 50.0119 61.2517 50.3878 61.3116 51.0903C61.3331 51.3551 61.3309 51.6242 61.3309 51.8911C61.3309 56.6146 61.3309 61.336 61.3309 66.0596C61.3309 66.3714 61.3309 66.6831 61.3309 67.0163C63.8182 67.3472 66.1963 67.3686 68.6429 67.0034C68.6429 65.483 68.6429 64.0203 68.6429 62.5575C68.6429 58.8227 68.6387 55.0857 68.6494 51.3508C68.6515 50.4988 69.1674 49.9521 69.8759 49.9756C70.5501 49.9991 71.0296 50.5436 71.0617 51.3338C71.0703 51.5473 71.0639 51.7608 71.0639 51.9744C71.0639 56.51 71.0639 61.0456 71.0639 65.5834C71.0639 65.861 71.0639 66.1386 71.0639 66.5401C71.8601 66.2881 72.5087 66.051 73.1723 65.8802C73.6753 65.75 73.8209 65.4873 73.8187 64.9748C73.7994 59.3715 73.8166 53.7681 73.8016 48.1648C73.7952 45.5318 71.7681 43.5309 69.1138 43.5181C66.3654 43.5032 63.6149 43.5032 60.8643 43.5181C58.1736 43.5331 56.183 45.5404 56.1658 48.2374C56.1573 49.651 56.1744 51.0668 56.1594 52.4805C56.1509 53.2919 55.6757 53.7873 54.965 53.7938C54.2372 53.8002 53.7685 53.3282 53.7599 52.5061C53.7449 50.9323 53.7642 49.3585 53.7642 47.7826C53.7642 47.5562 53.7406 47.3298 53.7256 47.0629C51.8356 47.0629 50.0225 47.0586 48.2095 47.0629C44.6006 47.0736 42.0512 50.4796 43.2906 53.8813C43.8193 55.3334 44.8725 56.5954 45.6859 57.9429C45.7715 57.9087 45.8592 57.8745 45.9449 57.8382C45.9449 57.582 45.9449 57.3257 45.9449 57.0695C45.9449 56.2431 45.9277 55.4145 45.9513 54.5881C45.9748 53.7703 46.4393 53.2663 47.135 53.2428C47.8756 53.2172 48.3422 53.7083 48.4 54.5839C48.4129 54.7974 48.4065 55.0109 48.4065 55.2245C48.4065 56.8517 48.3936 58.481 48.4172 60.1082C48.4214 60.4029 48.4749 60.8193 48.6697 60.9709C50.2559 62.1988 51.8805 63.3903 53.4923 64.5968ZM76.2782 47.1932C76.2782 52.9033 76.2782 58.6604 76.2782 64.4153C76.3424 64.4687 76.4087 64.5221 76.473 64.5755C77.9521 63.4971 79.4269 62.4123 80.9124 61.3467C81.4133 60.988 81.5952 60.5502 81.5802 59.9245C81.5396 58.1393 81.5503 56.352 81.5781 54.5646C81.5909 53.7233 82.0554 53.2492 82.7639 53.2364C83.4981 53.2215 83.984 53.7361 84.0204 54.5903C84.0397 55.0152 84.0247 55.4444 84.0247 55.8694C84.0247 56.5314 84.0247 57.1933 84.0247 58.0347C86.2723 55.4081 86.8652 53.9859 86.7689 51.6541C86.6768 49.4653 85.217 47.4345 83.1878 47.2444C80.8996 47.0266 78.5771 47.1932 76.2782 47.1932ZM65.0212 41.0902C67.8873 41.0603 70.2697 38.6558 70.2569 35.8071C70.244 32.9179 67.776 30.4942 64.9099 30.554C62.033 30.6138 59.6699 33.0354 59.7148 35.8755C59.7598 38.7455 62.1764 41.1201 65.0212 41.0902ZM77.8985 44.6371C80.8139 44.652 83.2092 42.2604 83.1899 39.3562C83.1707 36.4648 80.8182 34.1287 77.9285 34.133C75.0367 34.1372 72.6778 36.4841 72.6735 39.3647C72.6671 42.2411 75.0303 44.6243 77.8985 44.6371ZM51.9982 44.6371C54.8772 44.652 57.2704 42.3031 57.2982 39.4395C57.326 36.5246 54.9543 34.1308 52.0368 34.1351C49.1407 34.1372 46.7989 36.4691 46.7818 39.3647C46.7668 42.2369 49.1278 44.6221 51.9982 44.6371Z" fill="#373563"/>
<defs>
<linearGradient id="paint0_linear_4_520" x1="50.4545" y1="9.09091" x2="3.63637" y2="45.9091" gradientUnits="userSpaceOnUse">
<stop stop-color="#B5B5FF"/>
<stop offset="1" stop-color="#FFB0B5"/>
</linearGradient>
<linearGradient id="paint1_linear_4_520" x1="17.4298" y1="3.1405" x2="1.2562" y2="15.8595" gradientUnits="userSpaceOnUse">
<stop stop-color="#B5B5FF"/>
<stop offset="1" stop-color="#FFB0B5"/>
</linearGradient>
</defs>
</svg>
