<svg width="77" height="77" viewBox="0 0 77 77" fill="none" xmlns="http://www.w3.org/2000/svg">
<path d="M0.7615 77C0.182946 76.6626 -0.00588752 76.1664 0.00013908 75.4956C0.0282632 72.3621 0.0121918 69.2307 0.0121918 66.0973C0.0121918 64.7475 0.323567 64.4362 1.70969 64.4362C7.04724 64.4342 12.3868 64.4342 17.7244 64.4342C17.9996 64.4342 18.2728 64.4342 18.6705 64.4342C18.6705 64.1289 18.6705 63.8657 18.6705 63.6026C18.6705 60.9713 18.6685 58.3401 18.6726 55.7068C18.6746 54.5659 19.0723 54.1601 20.1993 54.1581C22.4532 54.1541 24.7052 54.1561 26.7803 54.1561C26.7803 50.5909 26.8065 47.0718 26.7743 43.5527C26.7382 39.6219 27.2765 40.9435 24.5204 38.1033C23.7249 37.2838 22.9193 36.4724 22.0474 35.5866C21.9631 36.2594 21.951 36.8078 21.8164 37.322C21.3946 38.949 19.9964 40.0879 18.327 40.128C16.6496 40.1702 14.9682 40.1521 13.2908 40.1361C12.5495 40.128 12.0574 39.6439 12.0533 38.9972C12.0493 38.3524 12.5294 37.8784 13.2868 37.8663C14.7894 37.8422 16.2941 37.8623 17.7967 37.8523C19.1567 37.8442 19.6951 37.2939 19.7011 35.922C19.7051 34.9197 19.6408 33.9114 19.7332 32.9171C19.7714 32.5174 20.0667 32.0333 20.3962 31.7983C20.8381 31.483 21.3464 31.6778 21.7441 32.0795C23.8132 34.1584 25.8944 36.2233 27.9575 38.3062C28.7149 39.0715 29.0504 40.0075 29.0463 41.0942C29.0303 44.7779 29.0383 48.4617 29.0463 52.1475C29.0463 52.4689 29.0684 52.8043 29.1588 53.1096C29.3637 53.8106 29.9945 54.2124 30.7057 54.1461C31.3987 54.0818 31.9532 53.5395 32.0396 52.8325C32.0596 52.6597 32.0516 52.483 32.0516 52.3062C32.0516 47.9194 32.0416 43.5346 32.0637 39.1478C32.0677 38.4388 31.8326 37.9085 31.3385 37.4184C28.8455 34.9478 26.3705 32.4612 23.8916 29.9785C23.0499 29.1349 23.0519 28.6167 23.9057 27.761C25.9949 25.6681 28.0861 23.5771 30.1793 21.4882C31.0552 20.6124 31.5474 20.6184 32.4453 21.5143C33.4759 22.5407 34.5125 23.559 35.5249 24.6015C35.991 25.0816 36.5093 25.2985 37.1903 25.2925C40.523 25.2684 43.8557 25.2824 47.1904 25.2804C48.3516 25.2804 49.0466 24.708 49.0346 23.778C49.0225 22.8681 48.3033 22.2796 47.1563 22.2775C44.5508 22.2695 41.9433 22.2494 39.3378 22.2856C38.0481 22.3036 37.0155 21.8537 36.1196 20.9458C33.954 18.7524 31.7563 16.5912 29.5928 14.3938C29.0805 13.8755 28.5321 13.6466 27.7968 13.6526C23.9619 13.6787 20.129 13.6747 16.2941 13.6546C15.6432 13.6506 15.147 13.8615 14.693 14.3174C12.3446 16.6836 9.96613 19.0196 7.64388 21.4098C7.29433 21.7694 6.97091 22.376 7.01711 22.8299C7.06131 23.2718 7.52334 23.7659 7.92913 24.0572C8.42934 24.4167 9.0099 24.1917 9.4398 23.796C10.1027 23.1854 10.7295 22.5366 11.3683 21.8979C12.6982 20.5702 14.0341 19.2486 15.3539 17.9088C16.1695 17.0793 17.1318 16.6494 18.3049 16.6615C19.9582 16.6796 21.6135 16.6735 23.2668 16.6615C23.8374 16.6575 24.3114 16.788 24.5605 17.3565C24.8297 17.9691 24.5304 18.407 24.1166 18.8207C21.8988 21.0322 19.6951 23.2597 17.4612 25.4572C16.9248 25.9854 16.6637 26.5458 16.6777 27.3131C16.7159 29.3418 16.6958 31.3725 16.6878 33.4032C16.6838 34.4356 16.2639 34.8574 15.2213 34.8594C11.4366 34.8655 7.65191 34.8574 3.86922 34.8695C2.94514 34.8715 2.29226 35.4962 2.27619 36.3217C2.26011 37.1091 2.87081 37.7438 3.74668 37.8382C3.94555 37.8603 4.14644 37.8523 4.34733 37.8523C5.67519 37.8543 7.00305 37.8462 8.33292 37.8563C9.31927 37.8623 9.78533 38.2299 9.79336 38.9751C9.8014 39.7424 9.29717 40.1381 8.29274 40.1401C6.86444 40.1441 5.43613 40.1481 4.00783 40.1401C1.72777 40.128 0.0383079 38.5513 0.0162104 36.4262C-0.00588715 34.2247 1.61125 32.5837 3.92346 32.5576C7.1055 32.5234 10.2896 32.5234 13.4716 32.5656C14.2229 32.5757 14.47 32.3949 14.4318 31.6155C14.3635 30.2156 14.4559 28.8075 14.3997 27.4055C14.3414 25.9533 14.8316 24.7923 15.8863 23.79C17.3206 22.4262 18.6967 21.0001 20.0948 19.5981C20.2656 19.4273 20.4243 19.2445 20.6935 18.9513C19.6931 18.9513 18.8212 18.879 17.9715 18.9834C17.5737 19.0316 17.1599 19.359 16.8505 19.6623C14.918 21.5564 13.0377 23.5048 11.0911 25.3849C8.93156 27.4698 5.44818 26.4454 4.76517 23.5369C4.47188 22.2916 4.72901 21.1105 5.633 20.1886C8.2144 17.5593 10.8279 14.9642 13.4415 12.3671C14.1727 11.642 15.0968 11.3648 16.1133 11.3648C20.0989 11.3648 24.0824 11.3688 28.068 11.3628C29.2613 11.3608 30.2436 11.7966 31.0833 12.6483C33.267 14.8598 35.4848 17.0371 37.6644 19.2526C38.1967 19.7929 38.7713 20.0299 39.5306 20.0179C41.5837 19.9837 43.6367 20.0058 45.8244 20.0058C45.8244 19.6804 45.8244 19.3952 45.8244 19.11C45.8244 13.52 45.8244 7.93208 45.8244 2.34212C45.8244 2.11716 45.8244 1.89019 45.8244 1.66523C45.8284 0.530363 46.1478 0.0382545 46.9011 0.00209962C47.6846 -0.0360639 48.0502 0.443993 48.1286 1.60898C48.1326 1.65518 48.1567 1.70138 48.2009 1.83797C48.4399 1.83797 48.7071 1.83797 48.9743 1.83797C52.7329 1.83797 56.4935 1.88617 60.2521 1.81185C61.598 1.78574 62.3594 2.80411 61.5458 4.02333C60.909 4.97541 60.4088 6.0239 59.9066 7.05833C59.78 7.31945 59.778 7.74528 59.9045 8.00438C60.4309 9.08301 61.0375 10.1215 61.598 11.184C62.2288 12.3771 61.7306 13.2107 60.3806 13.2107C56.5959 13.2147 52.8112 13.2127 49.0285 13.2127C48.7573 13.2127 48.4861 13.2127 48.1788 13.2127C48.1527 13.3794 48.1205 13.4959 48.1185 13.6144C48.1145 15.5688 48.1225 17.5252 48.1085 19.4795C48.1065 19.8491 48.1868 20.04 48.5906 20.1725C50.5131 20.7992 51.5416 22.4623 51.2684 24.4067C51.0254 26.1401 49.5127 27.518 47.5922 27.5481C43.9843 27.6044 40.3743 27.5702 36.7664 27.5582C35.7118 27.5562 34.8279 27.1263 34.0926 26.3751C33.1987 25.4612 32.3007 24.5533 31.4289 23.6675C29.6711 25.4692 27.9495 27.2288 26.1938 29.0285C26.2621 29.1008 26.4449 29.2996 26.6337 29.4904C28.7591 31.6176 30.8744 33.7547 33.0179 35.8658C33.9098 36.7435 34.3477 37.7619 34.3417 39.0153C34.3236 43.4764 34.3397 47.9375 34.3277 52.3986C34.3256 52.9429 34.2312 53.4893 34.173 54.0878C35.1794 54.0878 36.21 54.0878 37.3349 54.0878C37.3349 53.8106 37.3349 53.5435 37.3349 53.2764C37.3349 50.6692 37.3329 48.064 37.3369 45.4569C37.3389 44.2537 37.7005 43.9002 38.9099 43.8982C41.0152 43.8962 43.1205 43.8942 45.2258 43.9002C46.0916 43.9022 46.6139 44.3381 46.6099 45.029C46.6059 45.722 46.0835 46.1518 45.2177 46.1538C43.3937 46.1579 41.5716 46.1559 39.6592 46.1559C39.6592 46.4953 39.6592 46.7624 39.6592 47.0296C39.6592 49.5363 39.6592 52.0431 39.6592 54.5478C39.6592 56.1888 39.396 56.4479 37.7246 56.4479C32.4614 56.4479 27.1982 56.4479 21.935 56.4479C21.6417 56.4479 21.3484 56.4479 20.9607 56.4479C20.9607 56.8095 20.9607 57.0766 20.9607 57.3438C20.9607 59.9248 20.9627 62.5059 20.9586 65.089C20.9566 66.3885 20.6051 66.7401 19.3134 66.7401C13.9497 66.7421 8.58603 66.7401 3.22437 66.7401C2.93107 66.7401 2.63577 66.7401 2.30431 66.7401C2.30431 69.4135 2.30431 72.0126 2.30431 74.7343C2.60162 74.7343 2.91501 74.7343 3.22638 74.7343C21.9731 74.7343 40.7179 74.7343 59.4646 74.7403C59.8061 74.7403 60.1898 74.7423 60.4811 74.889C61.3248 75.3168 61.2304 76.2849 60.3063 76.9879C40.4607 77 20.6111 77 0.7615 77ZM58.8037 4.23222C55.1937 4.23222 51.6823 4.23222 48.1547 4.23222C48.1547 6.47584 48.1547 8.66522 48.1547 10.8867C51.7064 10.8867 55.2158 10.8867 58.8238 10.8867C58.3457 9.99692 57.9338 9.1754 57.4698 8.38401C57.1263 7.80152 57.1343 7.27727 57.4718 6.69678C57.9338 5.9074 58.3457 5.0899 58.8037 4.23222Z" fill="url(#paint0_linear_3_364)"/>
<path d="M64.0689 77C63.5446 76.6344 63.1408 76.1946 63.3899 75.4996C63.637 74.8106 64.2136 74.7363 64.8624 74.7403C68.1188 74.7564 71.3732 74.7484 74.6878 74.7484C74.6878 61.823 74.6878 48.9338 74.6878 35.9803C69.2859 35.9803 63.866 35.9803 58.3396 35.9803C58.3396 36.2353 58.3396 36.5005 58.3396 36.7656C58.3396 39.3728 58.3416 41.978 58.3396 44.5851C58.3376 45.8023 57.98 46.1679 56.7948 46.1679C54.6152 46.1699 52.4356 46.1719 50.2539 46.1679C49.356 46.1659 48.8799 45.7742 48.8718 45.0511C48.8638 44.32 49.3339 43.9163 50.2278 43.9142C52.1302 43.9082 54.0326 43.9122 56.0114 43.9122C56.0254 43.5989 56.0475 43.3317 56.0475 43.0646C56.0495 40.4574 56.0455 37.8523 56.0495 35.2451C56.0515 33.9275 56.373 33.6081 57.7008 33.6081C63.5888 33.6061 69.4788 33.6141 75.3668 33.598C76.0357 33.596 76.5862 33.7547 77 34.293C77 48.528 77 62.765 77 77C72.689 77 68.3799 77 64.0689 77Z" fill="url(#paint1_linear_3_364)"/>
<path d="M33.1806 0.0101338C36.443 0.00410795 39.0867 2.60726 39.1007 5.84112C39.1148 9.13323 36.4992 11.7926 33.2268 11.8107C29.9845 11.8288 27.2745 9.1272 27.2886 5.88531C27.3006 2.65346 29.9443 0.0161596 33.1806 0.0101338ZM33.1665 9.5008C35.1834 9.51084 36.8247 7.90797 36.8367 5.91544C36.8488 3.947 35.1774 2.26781 33.2047 2.2658C31.24 2.26379 29.6229 3.87269 29.6068 5.84112C29.5887 7.89392 31.1456 9.49075 33.1665 9.5008Z" fill="url(#paint2_linear_3_364)"/>
<defs>
<linearGradient id="paint0_linear_3_364" x1="70.6364" y1="12.7273" x2="5.09091" y2="64.2727" gradientUnits="userSpaceOnUse">
<stop stop-color="#A1A2FF"/>
<stop offset="0.333333" stop-color="#A79DF5"/>
<stop offset="1" stop-color="#FF5F68"/>
</linearGradient>
<linearGradient id="paint1_linear_3_364" x1="70.6364" y1="12.7273" x2="5.09091" y2="64.2727" gradientUnits="userSpaceOnUse">
<stop stop-color="#A1A2FF"/>
<stop offset="0.333333" stop-color="#A79DF5"/>
<stop offset="1" stop-color="#FF5F68"/>
</linearGradient>
<linearGradient id="paint2_linear_3_364" x1="70.6364" y1="12.7273" x2="5.09091" y2="64.2727" gradientUnits="userSpaceOnUse">
<stop stop-color="#A1A2FF"/>
<stop offset="0.333333" stop-color="#A79DF5"/>
<stop offset="1" stop-color="#FF5F68"/>
</linearGradient>
</defs>
</svg>
