<svg width="108" height="97" viewBox="0 0 108 97" fill="none" xmlns="http://www.w3.org/2000/svg">
<circle r="27.5" transform="matrix(-1 0 0 1 46.5 27.5)" fill="#FFB0B5"/>
<circle r="9.5" transform="matrix(-1 0 0 1 9.5 85.5)" fill="url(#paint0_linear_4_519)"/>
<path d="M41.0016 41.4265C41.301 40.8263 41.5283 40.175 41.9127 39.6374C42.6847 38.559 43.7953 38.0363 45.1137 38.0116C46.203 37.9902 47.294 38.005 48.3834 38.005C62.1197 38.005 75.8543 38.0034 89.5906 38.0067C91.789 38.0067 93.3706 39.1642 93.899 41.1989C94.0282 41.6985 94.0478 42.2394 94.0478 42.7604C94.056 53.6415 94.056 64.5226 94.0527 75.4054C94.0527 77.9002 92.8816 79.5342 90.729 80.0305C90.3316 80.1212 89.9079 80.1295 89.4974 80.1311C83.959 80.1377 78.4223 80.1295 72.884 80.1525C72.5617 80.1542 72.1643 80.3191 71.932 80.5433C70.3961 82.0372 68.8962 83.5691 67.3849 85.0894C66.989 85.4867 66.5605 85.8182 65.9586 85.7341C65.1636 85.6219 64.7171 85.0382 64.7073 84.0786C64.6942 82.7891 64.704 81.4997 64.704 80.1344C64.3932 80.1344 64.1381 80.1344 63.8846 80.1344C57.8457 80.1344 51.8052 80.1344 45.7663 80.1344C43.1656 80.1344 41.9749 79.2885 41.0834 76.8119C41.0703 76.774 41.0294 76.7459 41 76.7129C41.0016 64.9497 41.0016 53.1881 41.0016 41.4265ZM67.5452 80.7082C67.5959 80.7396 67.6449 80.7692 67.6956 80.8006C68.5462 79.9316 69.4245 79.0857 70.2391 78.1838C70.8312 77.5291 71.5149 77.2983 72.3802 77.3016C77.984 77.3247 83.5877 77.3148 89.1915 77.3115C89.4958 77.3115 89.8016 77.2901 90.1026 77.2538C90.6342 77.1878 90.9793 76.8613 91.1216 76.365C91.2165 76.0352 91.2443 75.6758 91.2459 75.3295C91.2525 64.5127 91.2508 53.6959 91.2508 42.8792C91.2508 41.2484 90.8288 40.8263 89.1948 40.8263C74.7388 40.8263 60.2812 40.8263 45.8252 40.8279C45.521 40.8279 45.2135 40.8395 44.9141 40.8906C44.3433 40.9912 43.9834 41.3506 43.8739 41.9211C43.8166 42.2196 43.8084 42.5312 43.8084 42.8379C43.8052 53.6547 43.8052 64.4715 43.8084 75.2883C43.8084 75.5933 43.8182 75.905 43.8722 76.2051C43.9753 76.7789 44.3318 77.1417 44.9011 77.2455C45.22 77.3032 45.5504 77.3115 45.8775 77.3115C51.0446 77.3148 56.2133 77.3148 61.3804 77.3148C62.8639 77.3148 64.3458 77.3016 65.8277 77.3197C67.0087 77.3346 67.5272 77.8787 67.5419 79.0676C67.5517 79.6134 67.5452 80.1608 67.5452 80.7082Z" fill="#373563"/>
<path d="M107.998 88.0359C107.728 88.5735 107.521 89.1555 107.177 89.6403C106.235 90.971 104.869 91.3964 103.297 91.3915C97.3878 91.3766 91.4782 91.3915 85.5702 91.3733C85.0451 91.3717 84.6804 91.5283 84.3172 91.9026C82.8402 93.4262 81.3387 94.925 79.8339 96.4222C79.1256 97.1263 78.2228 97.2104 77.7141 96.5443C77.4458 96.1947 77.3052 95.672 77.2855 95.2186C77.2283 93.972 77.2659 92.7221 77.2659 91.3849C76.9404 91.3849 76.664 91.3849 76.3876 91.3849C70.805 91.3849 65.2225 91.3766 59.6416 91.3898C58.1221 91.3931 56.7514 91.0221 55.8665 89.7178C55.4429 89.0945 55.0994 88.3064 55.0389 87.5644C54.9129 86.049 55.0013 84.5139 55.0013 82.954C55.9074 82.954 56.7727 82.954 57.7492 82.954C57.7492 83.5048 57.7492 84.0637 57.7492 84.6227C57.7492 85.3251 57.7459 86.0276 57.7492 86.7284C57.7557 88.0277 58.284 88.5619 59.5779 88.5636C65.7492 88.5669 71.9206 88.5652 78.0903 88.5652C79.6605 88.5652 80.1071 89.0137 80.1087 90.5917C80.1087 91.0485 80.1087 91.5069 80.1087 92.1269C80.3884 91.8581 80.5667 91.6866 80.7466 91.5151C81.7427 90.5703 82.5965 89.2743 83.7791 88.7812C84.9617 88.2899 86.4747 88.5735 87.8437 88.5702C92.9683 88.557 98.0928 88.5652 103.217 88.5652C104.745 88.5652 105.195 88.1134 105.195 86.5651C105.196 75.7269 105.196 64.887 105.195 54.0488C105.195 52.4807 104.783 52.0734 103.217 52.0718C101.127 52.0718 99.0366 52.0718 96.884 52.0718C96.884 51.122 96.884 50.2168 96.884 49.3099C96.9168 49.2851 96.9527 49.2373 96.9871 49.2373C99.2983 49.2307 101.611 49.1615 103.919 49.2456C105.908 49.3165 107.226 50.441 107.854 52.3422C107.887 52.4395 107.951 52.5269 108 52.6192C107.998 64.4237 107.998 76.2298 107.998 88.0359Z" fill="#373563"/>
<path d="M87.0292 57.6797C87.0292 58.636 87.0292 59.5297 87.0292 60.4597C74.0158 60.4597 61.032 60.4597 48.0023 60.4597C48.0023 59.5314 48.0023 58.6262 48.0023 57.6797C61.014 57.6797 73.9962 57.6797 87.0292 57.6797Z" fill="#373563"/>
<path d="M47.9941 68.8724C47.9941 67.9556 47.9941 67.0652 47.9941 66.1204C60.9845 66.1204 73.9668 66.1204 87.0046 66.1204C87.0046 67.0026 87.0046 67.9111 87.0046 68.8724C74.0289 68.8724 61.0303 68.8724 47.9941 68.8724Z" fill="#373563"/>
<path d="M63.3219 49.2538C63.3219 50.1854 63.3219 51.0758 63.3219 52.019C58.2219 52.019 53.1366 52.019 48.0023 52.019C48.0023 51.1072 48.0023 50.2019 48.0023 49.2538C53.099 49.2538 58.1695 49.2538 63.3219 49.2538Z" fill="#373563"/>
<path d="M81.4516 49.2505C81.4516 50.2151 81.4516 51.1039 81.4516 52.0322C80.5291 52.0322 79.6491 52.0322 78.7298 52.0322C78.7298 51.1039 78.7298 50.197 78.7298 49.2505C79.6311 49.2505 80.5127 49.2505 81.4516 49.2505Z" fill="#373563"/>
<path d="M87.0292 49.2538C87.0292 50.2102 87.0292 51.1039 87.0292 52.0338C86.1197 52.0338 85.2381 52.0338 84.3074 52.0338C84.3074 51.1039 84.3074 50.1986 84.3074 49.2538C85.2185 49.2538 86.1001 49.2538 87.0292 49.2538Z" fill="#373563"/>
<defs>
<linearGradient id="paint0_linear_4_519" x1="17.4298" y1="3.1405" x2="1.2562" y2="15.8595" gradientUnits="userSpaceOnUse">
<stop stop-color="#B5B5FF"/>
<stop offset="1" stop-color="#FFB0B5"/>
</linearGradient>
</defs>
</svg>
