<svg width="130" height="77" viewBox="0 0 130 77" fill="none" xmlns="http://www.w3.org/2000/svg">
<circle r="9.5" transform="matrix(-1 0 0 1 120.5 19.5)" fill="url(#paint0_linear_4_517)"/>
<circle r="20" transform="matrix(-1 0 0 1 20 42)" fill="#FE9395"/>
<path d="M37.5231 64.207C38.3432 66.092 39.5058 67.8487 39.8313 69.7465C40.2295 72.0788 39.9255 74.5287 39.9255 76.9872C39.236 76.9872 38.4267 76.9872 37.5274 76.9872C37.5274 75.4851 37.4803 73.9938 37.5402 72.5067C37.6152 70.6238 37.1698 68.9249 36.1206 67.3523C35.3798 66.2439 34.7546 65.0564 34.0373 63.9309C33.5962 63.2377 33.6176 62.6193 34.0287 61.9175C35.8744 58.7594 37.703 55.5906 39.5144 52.4132C40.328 50.986 39.8784 49.3941 38.5166 48.7201C37.2619 48.0996 35.8701 48.5553 35.1014 49.8777C33.3307 52.9245 31.575 55.9821 29.8149 59.0354C29.7207 59.198 29.6286 59.3606 29.5323 59.519C28.8129 60.6936 27.6994 60.6808 27.0507 59.4783C26.3548 58.1881 25.9822 56.8102 25.9844 55.3338C25.9887 49.8777 25.9865 44.4194 25.9865 38.9632C25.9865 38.6787 25.9865 38.3941 25.9865 38.1095C25.9437 38.0967 25.9009 38.086 25.8559 38.0731C25.7703 38.2529 25.6803 38.4305 25.599 38.6102C23.9653 42.1471 22.3358 45.6861 20.7 49.2229C19.9249 50.8983 19.563 52.6592 19.5652 54.5036C19.5695 61.6736 19.5673 68.8415 19.5673 76.0115C19.5673 76.3281 19.5673 76.6427 19.5673 77C18.7109 77 17.9208 77 17.0086 77C17.0086 76.7026 17.0086 76.3966 17.0086 76.0885C17.0086 68.8393 17.0236 61.5902 17.0001 54.341C16.9936 52.1607 17.4454 50.1023 18.349 48.1338C20.2075 44.0856 22.0511 40.0267 23.961 36.002C24.3036 35.283 24.8795 34.6326 25.4748 34.0912C25.8302 33.7682 25.9972 33.5178 25.9951 33.0471C25.9801 28.2863 25.9865 23.5235 25.9865 18.7627C25.9865 15.5254 25.978 12.2881 25.9887 9.05294C26.0036 3.96268 29.9434 0.0192901 35.0372 0.0128711C43.6147 0.00217281 52.1922 -0.014945 60.7697 0.0257086C63.9022 0.0406862 66.3367 1.48282 68.116 4.05041C68.2038 4.17665 68.2659 4.32001 68.3751 4.52328C67.6321 4.95335 66.9255 5.36202 66.1825 5.7921C65.0327 3.99906 63.4547 2.91853 61.3692 2.64252C60.9731 2.59116 60.5705 2.57618 60.1702 2.57618C51.9395 2.5719 43.7089 2.57191 35.4804 2.57404C31.2666 2.57618 28.5473 5.28071 28.5473 9.47659C28.5452 24.5633 28.5473 39.6501 28.5473 54.739C28.5473 55.0321 28.5473 55.3252 28.5473 55.6184C28.5945 55.6419 28.6437 55.6654 28.6908 55.6868C28.8107 55.5135 28.9435 55.3488 29.0484 55.1669C30.3609 52.9031 31.6456 50.6244 32.986 48.3756C34.1379 46.4435 36.2063 45.5406 38.3967 45.9385C40.3473 46.2916 42.0024 47.8814 42.3921 49.9483C42.5463 50.7635 42.4178 51.6322 42.4178 52.5972C43.5633 51.2962 45.0621 51.3348 46.5695 51.3647C47.8521 51.3904 49.1346 51.3604 50.4172 51.3733C52.5391 51.3947 54.2006 53.0957 54.1985 55.2268C54.1963 57.3536 52.5305 59.0461 50.4 59.0654C48.7428 59.0803 47.0877 59.0718 45.4304 59.0675C43.0023 59.0632 41.4179 57.5013 41.3793 55.0792C41.3772 54.9551 41.3665 54.831 41.3472 54.4544C39.9105 56.9471 38.5894 59.2344 37.2212 61.6051C37.5531 61.6201 37.7586 61.6394 37.9642 61.6394C45.4197 61.6415 52.8752 61.6479 60.3307 61.6372C63.4975 61.633 65.9984 59.7993 66.7606 56.8744C66.9662 56.0848 67.0026 55.2396 67.0197 54.418C67.0561 52.5779 67.0304 50.7378 67.0304 48.8485C67.8805 48.8485 68.6706 48.8485 69.5442 48.8485C69.5591 49.0518 69.5891 49.2807 69.5891 49.5096C69.5934 51.4353 69.602 53.361 69.5891 55.2867C69.5549 60.2229 65.598 64.1856 60.6519 64.1984C53.1964 64.2155 45.7409 64.2027 38.2853 64.2027C37.9963 64.207 37.7072 64.207 37.5231 64.207ZM47.7857 53.9366C46.987 53.9366 46.1884 53.9216 45.3919 53.9409C44.529 53.9623 43.9466 54.495 43.9466 55.2225C43.9466 55.9479 44.5311 56.4935 45.3919 56.5042C46.9892 56.5234 48.5843 56.5234 50.1816 56.5042C51.0424 56.4935 51.6269 55.9479 51.6269 55.2225C51.6269 54.4972 51.0424 53.9623 50.1816 53.9409C49.383 53.9216 48.5843 53.9366 47.7857 53.9366Z" fill="#373563"/>
<path d="M73.4925 6.35268C83.2904 6.45111 91.6259 13.3066 93.5894 22.935C95.889 34.2111 88.2836 45.3052 76.9333 47.2031C70.7025 48.2451 65.1548 46.6896 60.2387 42.744C59.9539 42.5151 59.4593 42.3824 59.1017 42.4423C56.6865 42.8574 54.2841 43.341 51.8753 43.7903C51.2051 43.9166 50.5242 43.9872 50.0746 43.2982C49.6549 42.6563 49.9333 42.0893 50.2758 41.5137C51.5199 39.4276 52.7339 37.3243 53.9886 35.2445C54.2584 34.7973 54.3141 34.4336 54.1278 33.9222C49.7256 21.8267 57.4958 8.6571 70.2272 6.63726C71.3042 6.47037 72.4047 6.44469 73.4925 6.35268ZM53.721 40.7884C55.633 40.4375 57.3738 40.1829 59.0824 39.7806C60.1402 39.5324 60.881 39.7956 61.6882 40.4931C65.7693 44.0278 70.5419 45.4892 75.8734 44.7532C85.9947 43.3581 92.7929 33.9907 91.1078 23.9129C89.5126 14.3764 80.3891 7.73063 70.8738 9.17704C59.2837 10.938 52.4427 22.9008 56.8406 33.7468C57.1425 34.4914 57.1061 35.1054 56.6886 35.7816C55.6994 37.3949 54.7573 39.036 53.721 40.7884Z" fill="#373563"/>
<path d="M42.9402 17.0018C43.6554 17.7121 44.2228 18.2727 44.9808 19.0259C44.4348 19.4859 43.9187 19.9395 43.3813 20.3696C42.9873 20.6863 42.9552 20.9623 43.195 21.4458C44.3877 23.8337 44.2228 26.1788 42.6233 28.3077C41.0367 30.4196 38.8185 31.2434 36.2491 30.7277C33.5791 30.1906 31.8319 28.5003 31.2388 25.8193C30.6714 23.2496 31.4401 21.0286 33.5084 19.3896C35.6003 17.7314 37.9406 17.5067 40.3409 18.6664C40.9511 18.9617 41.2851 18.9039 41.6748 18.4204C42.0624 17.9454 42.4906 17.5046 42.9402 17.0018ZM37.2597 26.5682C36.5531 25.9156 35.9665 25.3743 35.2706 24.7345C36.5596 23.4614 37.8207 22.2161 39.099 20.9516C37.2726 20.1706 35.3455 20.7419 34.3242 22.3146C33.2964 23.8936 33.5448 25.9049 34.9259 27.2058C36.2641 28.4639 38.2832 28.5859 39.7799 27.5011C41.253 26.4313 41.7604 24.4799 40.9468 22.8409C39.6985 24.1012 38.4652 25.3486 37.2597 26.5682Z" fill="#373563"/>
<path d="M52.8666 7.67499C49.4772 7.67499 46.1263 7.67499 42.7175 7.67499C42.7175 6.8662 42.7175 6.05741 42.7175 5.19727C46.0835 5.19727 49.4536 5.19727 52.8666 5.19727C52.8666 6.00392 52.8666 6.79345 52.8666 7.67499Z" fill="#373563"/>
<path d="M46.5674 20.5878C48.2567 20.5878 49.8969 20.5878 51.5841 20.5878C51.5841 21.4073 51.5841 22.1969 51.5841 23.0527C49.9482 23.0527 48.2889 23.0527 46.5674 23.0527C46.5674 22.2782 46.5674 21.4715 46.5674 20.5878Z" fill="#373563"/>
<path d="M46.5695 25.723C48.2524 25.723 49.8926 25.723 51.582 25.723C51.582 26.5596 51.582 27.3663 51.582 28.2157C49.914 28.2157 48.2739 28.2157 46.5695 28.2157C46.5695 27.4198 46.5695 26.611 46.5695 25.723Z" fill="#373563"/>
<path d="M40.0454 7.67499C39.2146 7.67499 38.4288 7.67499 37.5852 7.67499C37.5852 6.86192 37.5852 6.05527 37.5852 5.19727C38.3924 5.19727 39.1975 5.19727 40.0454 5.19727C40.0454 6.0082 40.0454 6.79559 40.0454 7.67499Z" fill="#373563"/>
<path d="M68.2744 19.1885C68.5549 14.9284 70.2357 12.8615 73.4004 12.853C76.6207 12.8444 78.2908 14.8664 78.612 19.272C79.7361 19.272 80.873 19.2698 82.01 19.272C83.2925 19.2741 83.6951 19.6657 83.6951 20.9281C83.6972 25.8771 83.6994 30.824 83.6951 35.773C83.6929 38.178 82.0764 39.8041 79.6868 39.8084C75.518 39.8127 71.3513 39.8127 67.1825 39.8084C64.7993 39.8063 63.1828 38.1716 63.1828 35.7666C63.1785 30.8176 63.1806 25.8707 63.1828 20.9216C63.1828 19.6614 63.5832 19.2741 64.8721 19.272C65.9406 19.2677 67.009 19.2655 68.0775 19.2591C68.1246 19.2591 68.1717 19.227 68.2744 19.1885ZM65.7757 32.0564C70.9252 32.0564 76.0105 32.0564 81.0722 32.0564C81.0722 28.6201 81.0722 25.2416 81.0722 21.8802C80.2157 21.8802 79.4235 21.8802 78.5456 21.8802C78.5456 22.7361 78.5456 23.547 78.5456 24.3643C77.6656 24.3643 76.8755 24.3643 75.9976 24.3643C75.9976 23.5149 75.9976 22.7018 75.9976 21.893C74.2419 21.893 72.5782 21.893 70.8524 21.893C70.8524 22.7425 70.8524 23.5363 70.8524 24.3515C69.9809 24.3515 69.1737 24.3515 68.2766 24.3515C68.2766 23.4892 68.2766 22.6762 68.2766 21.8781C67.3966 21.8781 66.6043 21.8781 65.7779 21.8781C65.7757 25.2801 65.7757 28.6394 65.7757 32.0564ZM65.7415 34.7053C65.7415 35.129 65.7286 35.4756 65.7436 35.8201C65.7843 36.708 66.2639 37.2365 67.1439 37.2408C71.3385 37.2579 75.533 37.2579 79.7275 37.2408C80.6075 37.2365 81.0914 36.7123 81.1343 35.8265C81.1514 35.4628 81.1364 35.099 81.1364 34.7053C75.9741 34.7053 70.9081 34.7053 65.7415 34.7053ZM75.9676 19.2441C76.1025 17.802 76.0105 16.5204 74.653 15.7522C73.7301 15.2301 72.7944 15.3093 71.9465 15.9255C70.7946 16.7621 70.7817 17.9668 70.9252 19.2441C72.6189 19.2441 74.2611 19.2441 75.9676 19.2441Z" fill="#373563"/>
<defs>
<linearGradient id="paint0_linear_4_517" x1="17.4298" y1="3.1405" x2="1.2562" y2="15.8595" gradientUnits="userSpaceOnUse">
<stop stop-color="#B5B5FF"/>
<stop offset="1" stop-color="#FFB0B5"/>
</linearGradient>
</defs>
</svg>
