<svg width="177" height="112" viewBox="0 0 177 112" fill="none" xmlns="http://www.w3.org/2000/svg">
<circle cx="56.5" cy="27.5" r="27.5" fill="#FFB0B5"/>
<circle cx="9.5" cy="54.5" r="9.5" fill="url(#paint0_linear_4_516)"/>
<circle cx="167.5" cy="102.5" r="9.5" fill="#FE9395"/>
<path d="M71.0046 18C92.7239 18 114.443 18 136.27 18C136.27 23.2549 136.27 28.469 136.27 33.7986C141.311 33.7986 146.245 33.7986 151.235 33.7986C151.235 48.7071 151.235 63.5023 151.235 78.3428C150.505 78.3428 149.815 78.3428 149.05 78.3428C149.05 64.2339 149.05 50.1884 149.05 36.0818C135.315 36.0818 121.651 36.0818 107.907 36.0818C107.907 38.605 107.907 41.1102 107.907 43.6878C107.144 43.6878 106.459 43.6878 105.723 43.6878C105.723 40.4216 105.723 37.1645 105.723 33.8394C115.16 33.8394 124.551 33.8394 134.009 33.8394C134.009 31.8371 134.009 29.8982 134.009 27.9141C113.754 27.9141 93.5212 27.9141 73.2475 27.9141C73.2475 51.4954 73.2475 75.0291 73.2475 98.6851C86.7396 98.6851 100.225 98.6851 113.76 98.6851C113.76 99.462 113.76 100.123 113.76 100.887C113.417 100.905 113.062 100.937 112.709 100.937C99.1709 100.939 85.6353 100.939 72.0974 100.941C71.7309 100.941 71.3666 100.98 71 101C71.0046 73.3326 71.0046 45.6674 71.0046 18ZM120.629 20.2379C104.773 20.2379 89.0146 20.2379 73.2567 20.2379C73.2567 22.0499 73.2567 23.803 73.2567 25.5788C89.0651 25.5788 104.823 25.5788 120.629 25.5788C120.629 23.7758 120.629 22.025 120.629 20.2379ZM129.615 25.5698C131.113 25.5698 132.561 25.5698 134.034 25.5698C134.034 23.76 134.034 22.0114 134.034 20.2311C132.538 20.2311 131.085 20.2311 129.615 20.2311C129.615 22.0318 129.615 23.7804 129.615 25.5698ZM127.23 25.5811C127.23 23.803 127.23 22.0204 127.23 20.2356C125.782 20.2356 124.386 20.2356 122.989 20.2356C122.989 22.0386 122.989 23.7849 122.989 25.5811C124.409 25.5811 125.782 25.5811 127.23 25.5811Z" fill="#373563"/>
<path d="M105.675 52.5214C106.443 52.5214 107.107 52.5214 107.877 52.5214C107.877 52.8884 107.877 53.2145 107.877 53.5407C107.877 63.7311 107.875 73.9215 107.879 84.1096C107.879 86.4426 109.029 88.1278 111.032 88.7733C113.703 89.634 116.574 87.6929 116.737 84.9137C116.824 83.412 116.824 83.412 118.379 83.412C131.207 83.412 144.035 83.412 156.86 83.412C157.22 83.412 157.579 83.412 157.925 83.412C158.53 87.7246 155.394 91.2105 150.954 91.2332C146.424 91.2558 141.892 91.2377 137.361 91.2377C137.051 91.2377 136.742 91.2377 136.33 91.2377C136.33 94.4699 136.33 97.6477 136.33 100.937C135.954 100.937 135.679 100.937 135.404 100.937C129.741 100.937 124.077 100.907 118.414 100.964C117.371 100.973 117.479 100.447 117.456 99.7791C117.433 99.0792 117.47 98.667 118.411 98.6761C123.252 98.7282 128.096 98.701 132.937 98.701C133.273 98.701 133.61 98.701 134.013 98.701C134.013 96.2276 134.013 93.804 134.013 91.2377C133.723 91.2377 133.399 91.2377 133.074 91.2377C126.364 91.2377 119.653 91.24 112.94 91.2377C108.587 91.2354 105.678 88.386 105.675 84.1096C105.671 73.892 105.673 63.6745 105.673 53.4569C105.675 53.1783 105.675 52.8997 105.675 52.5214ZM117.506 89.0474C117.754 89.0474 118.036 89.0474 118.317 89.0474C129.051 89.0474 139.787 89.0474 150.521 89.0474C150.775 89.0474 151.032 89.0542 151.286 89.0361C153.52 88.8707 155.155 87.6046 155.572 85.6544C155.194 85.6544 154.835 85.6544 154.473 85.6544C143.427 85.6544 132.382 85.6544 121.335 85.6544C120.712 85.6544 120.086 85.6227 119.467 85.6725C119.243 85.6906 118.925 85.8537 118.835 86.0394C118.368 87.0066 117.96 88.0032 117.506 89.0474Z" fill="#373563"/>
<path d="M128.785 59.2372C133.386 59.2372 137.901 59.2372 142.406 59.2372C142.981 64.1003 140.424 69.9713 135.058 73.0585C129.796 76.0846 122.677 75.4617 118.1 71.5024C113.133 67.2034 111.524 60.5374 114.04 54.6573C116.487 48.9336 122.519 45.2665 128.785 45.7784C128.785 47.9936 128.785 50.2201 128.785 52.4467C128.785 54.6777 128.785 56.9111 128.785 59.2372ZM118.487 68.7006C118.533 68.6689 118.585 68.6439 118.622 68.6054C121.112 65.8897 123.612 63.1852 126.073 60.4445C126.354 60.1297 126.556 59.6246 126.561 59.2055C126.6 55.7378 126.584 52.2677 126.581 48.7977C126.581 48.5327 126.556 48.2699 126.542 48.0049C121.474 48.4217 117.257 51.8079 115.669 56.6732C114.313 60.8296 115.589 66.2747 118.487 68.7006ZM127.392 62.32C124.913 65.0267 122.533 67.6269 120.111 70.268C123.818 72.8388 127.69 73.4526 131.965 72.0574C130.43 68.7889 128.936 65.6088 127.392 62.32ZM133.986 71.1355C137.647 68.8614 139.711 65.7311 140.22 61.5431C136.602 61.5431 133.09 61.5431 129.479 61.5431C130.994 64.7685 132.467 67.9033 133.986 71.1355Z" fill="#373563"/>
<path d="M102.562 50.4376C105.011 48.1069 107.444 45.8056 109.845 43.4703C110.021 43.2982 110.044 42.8656 109.985 42.5847C109.556 40.553 110.789 38.6866 112.874 38.2653C114.736 37.8893 116.723 39.237 117.039 41.092C117.389 43.1532 116.063 44.997 113.962 45.2484C113.373 45.3186 112.752 45.083 112.143 45.0423C111.854 45.0241 111.458 45.0355 111.277 45.2054C108.935 47.4002 106.615 49.6199 104.319 51.8623C104.106 52.0707 103.982 52.4965 104.01 52.8045C104.216 55.0311 102.729 56.8272 100.546 56.9224C98.5363 57.0085 96.8478 55.3504 96.8638 53.2462C96.8684 52.7774 96.7378 52.5554 96.3071 52.3697C94.7538 51.7015 93.2233 50.9767 91.6654 50.3175C91.4134 50.2111 91.0102 50.2383 90.7627 50.3674C89.7501 50.8929 88.7397 50.9721 87.6515 50.6324C87.404 50.5554 86.9848 50.6392 86.7992 50.8113C85.0442 52.4376 83.3305 54.1115 81.5824 55.7446C81.2456 56.0594 81.2754 56.2995 81.4358 56.68C82.24 58.6008 81.2617 60.7118 79.2959 61.3641C77.2913 62.0278 75.1904 60.9043 74.6497 58.8794C74.1342 56.9518 75.4538 54.8839 77.4631 54.5169C77.8732 54.4422 78.3497 54.3878 78.7232 54.5214C79.3922 54.7638 79.761 54.4693 80.1872 54.0526C81.8413 52.4421 83.5138 50.8498 85.1977 49.2688C85.5208 48.9653 85.6078 48.7162 85.475 48.2631C85.0328 46.766 85.4887 45.4975 86.6961 44.519C87.8645 43.5745 89.3606 43.4567 90.6642 44.2178C91.9999 44.9992 92.6277 46.1612 92.4696 47.7286C92.4467 47.9438 92.6574 48.3062 92.8591 48.3991C94.4124 49.1352 95.9864 49.8283 97.5649 50.5101C97.7665 50.5984 98.1056 50.6369 98.2614 50.5282C99.6704 49.5452 101.095 49.5701 102.562 50.4376ZM79.5067 57.9983C79.4999 57.2893 78.8652 56.6574 78.1527 56.6506C77.4425 56.6438 76.7964 57.2689 76.7781 57.9779C76.7597 58.7389 77.3944 59.3618 78.1733 59.346C78.9179 59.3279 79.5113 58.7276 79.5067 57.9983ZM114.86 41.7919C114.876 41.0671 114.287 40.4442 113.557 40.4125C112.81 40.3808 112.125 41.0309 112.129 41.767C112.134 42.4896 112.741 43.0739 113.49 43.0807C114.251 43.0875 114.842 42.5326 114.86 41.7919ZM87.5575 47.1827C87.4865 47.9121 88.0272 48.5508 88.7741 48.612C89.5508 48.6754 90.1716 48.1861 90.2427 47.45C90.3183 46.6572 89.7867 46.0117 89.0055 45.946C88.2953 45.8894 87.6308 46.4579 87.5575 47.1827ZM101.799 53.3527C101.799 52.6098 101.217 52.014 100.477 52.0005C99.7323 51.9869 99.0472 52.6641 99.0747 53.3889C99.1022 54.1183 99.7162 54.6845 100.47 54.6777C101.226 54.6732 101.799 54.1002 101.799 53.3527Z" fill="#373563"/>
<path d="M130.444 42.0819C139.503 41.4046 146.974 49.0129 146.245 57.7151C141.004 57.7151 135.757 57.7151 130.444 57.7151C130.444 52.5101 130.444 47.3232 130.444 42.0819ZM132.685 55.4614C136.527 55.4614 140.263 55.4614 144.012 55.4614C143.329 49.3957 137.801 44.0207 132.685 44.4013C132.685 48.0774 132.685 51.7558 132.685 55.4614Z" fill="#373563"/>
<path d="M100.378 81.0133C100.378 81.7472 100.378 82.4086 100.378 83.1175C92.7353 83.1175 85.1336 83.1175 77.4585 83.1175C77.4585 82.4176 77.4585 81.7427 77.4585 81.0133C85.0923 81.0133 92.6964 81.0133 100.378 81.0133Z" fill="#373563"/>
<path d="M100.376 85.9556C100.376 86.6872 100.376 87.3486 100.376 88.0598C92.7308 88.0598 85.129 88.0598 77.4562 88.0598C77.4562 87.3645 77.4562 86.6872 77.4562 85.9556C85.0923 85.9556 92.6964 85.9556 100.376 85.9556Z" fill="#373563"/>
<path d="M77.4356 93.0407C77.4356 92.3408 77.4356 91.6816 77.4356 90.9704C85.0878 90.9704 92.7147 90.9704 100.381 90.9704C100.381 91.668 100.381 92.3272 100.381 93.0407C92.733 93.0407 85.1061 93.0407 77.4356 93.0407Z" fill="#373563"/>
<path d="M77.4379 71.0313C78.3681 71.0313 79.2089 71.0313 80.107 71.0313C80.107 71.7538 80.107 72.4356 80.107 73.174C79.2272 73.174 78.3658 73.174 77.4379 73.174C77.4379 72.4696 77.4379 71.7878 77.4379 71.0313Z" fill="#373563"/>
<path d="M88.4098 71.0449C89.2942 71.0449 90.1556 71.0449 91.0835 71.0449C91.0835 71.7538 91.0835 72.4334 91.0835 73.174C90.1877 73.174 89.3285 73.174 88.4098 73.174C88.4098 72.4651 88.4098 71.7833 88.4098 71.0449Z" fill="#373563"/>
<path d="M77.0072 36.6684C77.5112 36.6684 77.848 36.6684 78.1848 36.6684C78.4941 36.6684 78.8034 36.6684 79.2639 36.6684C79.2639 37.5042 79.2799 38.3015 79.2455 39.0965C79.241 39.2121 79.0096 39.3887 78.8584 39.4182C77.2913 39.7308 77.0072 39.4929 77.0072 37.9187C77.0072 37.5337 77.0072 37.1509 77.0072 36.6684Z" fill="#373563"/>
<path d="M96.6049 70.9883C96.6049 71.7742 96.6049 72.4334 96.6049 73.2261C95.8077 73.2261 95.0287 73.251 94.2543 73.2035C94.1031 73.1944 93.8671 72.9181 93.8419 72.7414C93.6037 71.0177 93.6403 70.9883 95.4182 70.9883C95.8031 70.9883 96.188 70.9883 96.6049 70.9883Z" fill="#373563"/>
<path d="M77.014 44.7954C77.014 44.0185 76.998 43.2438 77.0301 42.4692C77.0347 42.3401 77.2523 42.2155 77.3829 42.1022C77.415 42.0728 77.4929 42.0955 77.5502 42.0909C79.2753 41.9301 79.2753 41.9301 79.2753 43.6538C79.2753 44.0117 79.2753 44.3718 79.2753 44.7954C78.5101 44.7954 77.8228 44.7954 77.014 44.7954Z" fill="#373563"/>
<path d="M85.5666 73.1921C84.6754 73.1921 83.8437 73.1921 82.9525 73.1921C82.9525 72.4787 82.9525 71.7969 82.9525 71.0517C83.7979 71.0517 84.6525 71.0517 85.5666 71.0517C85.5666 71.7425 85.5666 72.422 85.5666 73.1921Z" fill="#373563"/>
<path d="M79.257 33.9391C78.5399 33.9391 77.8457 33.9391 77.0782 33.9391C77.0782 33.0897 77.0782 32.2471 77.0782 31.3569C77.8068 31.3569 78.4987 31.3569 79.257 31.3569C79.257 32.2086 79.257 33.0512 79.257 33.9391Z" fill="#373563"/>
<path d="M99.4757 65.1377C100.195 65.1377 100.859 65.1377 101.567 65.1377C101.567 66.0437 101.567 66.8976 101.567 67.8127C100.885 67.8127 100.218 67.8127 99.4757 67.8127C99.4757 66.961 99.4757 66.0867 99.4757 65.1377Z" fill="#373563"/>
<path d="M90.3114 31.3705C90.3114 31.9662 90.3458 32.5189 90.2908 33.0625C90.2747 33.2256 90.0136 33.4838 89.8532 33.4951C89.104 33.5404 88.3525 33.5155 87.5575 33.5155C87.5575 32.7476 87.5575 32.0908 87.5575 31.3705C88.435 31.3705 89.2942 31.3705 90.3114 31.3705Z" fill="#373563"/>
<path d="M93.0744 31.3365C94.0367 31.3365 94.85 31.3365 95.7298 31.3365C95.7298 32.041 95.7298 32.7159 95.7298 33.4566C94.866 33.4566 94.0069 33.4566 93.0744 33.4566C93.0744 32.7544 93.0744 32.0568 93.0744 31.3365Z" fill="#373563"/>
<path d="M84.7189 33.4815C83.8277 33.4815 82.9914 33.4815 82.1025 33.4815C82.1025 32.7612 82.1025 32.0795 82.1025 31.3524C82.9754 31.3524 83.8093 31.3524 84.7189 31.3524C84.7189 32.0387 84.7189 32.7159 84.7189 33.4815Z" fill="#373563"/>
<path d="M99.439 62.3562C99.439 61.4434 99.439 60.6144 99.439 59.7333C100.145 59.7333 100.809 59.7333 101.544 59.7333C101.544 60.5782 101.544 61.4298 101.544 62.3562C100.873 62.3562 100.19 62.3562 99.439 62.3562Z" fill="#373563"/>
<path d="M101.581 70.6009C101.581 71.4798 101.581 72.2816 101.581 73.1582C100.878 73.1582 100.193 73.1582 99.4298 73.1582C99.4298 72.3382 99.4298 71.4979 99.4298 70.6009C100.122 70.6009 100.809 70.6009 101.581 70.6009Z" fill="#373563"/>
<path d="M98.5867 31.3456C99.4779 31.3456 100.314 31.3456 101.201 31.3456C101.201 32.0636 101.201 32.7454 101.201 33.4725C100.33 33.4725 99.4917 33.4725 98.5867 33.4725C98.5867 32.7929 98.5867 32.1112 98.5867 31.3456Z" fill="#373563"/>
<defs>
<linearGradient id="paint0_linear_4_516" x1="17.4298" y1="48.1405" x2="1.2562" y2="60.8595" gradientUnits="userSpaceOnUse">
<stop stop-color="#B5B5FF"/>
<stop offset="1" stop-color="#FFB0B5"/>
</linearGradient>
</defs>
</svg>
