<svg width="68" height="70" viewBox="0 0 68 70" fill="none" xmlns="http://www.w3.org/2000/svg">
<path d="M52.9863 0C53.8967 0.567983 54.8989 1.03007 55.6941 1.73008C56.7841 2.68864 57.2763 4.02814 57.4052 5.65921C58.3334 4.53974 59.1725 3.53718 60.0019 2.52636C60.7903 1.56505 61.7102 0.83616 62.9935 0.668378C64.6799 0.44696 66.0551 1.01082 67.0532 2.36133C68.1103 3.79297 68.3845 5.5258 67.348 6.91069C64.684 10.4754 62.1312 14.1941 58.1277 16.4866C55.5077 17.9871 52.6874 18.7462 49.6849 18.848C49.2544 18.8631 48.9829 19.002 48.7334 19.3582C48.4482 19.7653 48.0849 20.1228 47.7325 20.4777C45.484 22.7413 43.23 25.0009 40.9733 27.2563C40.7978 27.4324 40.5812 27.5658 40.3618 27.7363C41.5354 29.1913 42.3183 30.6862 42.646 32.3998C43.2588 35.6028 42.6117 38.5541 40.429 40.9443C37.8185 43.8035 35.0394 46.5128 32.2425 49.1918C30.4711 50.8888 27.8456 50.849 26.0194 49.3045C24.2041 47.7697 23.7777 45.2558 25.0185 43.1819C25.2955 42.7184 25.6711 42.3044 26.0536 41.918C28.1842 39.7602 30.3299 37.6203 32.4687 35.4721C33.1351 34.8024 33.12 34.6552 32.3549 34.1148C31.7256 33.6692 31.0963 33.2263 30.4327 32.7574C30.2737 32.9802 30.1407 33.1576 30.0173 33.3405C27.9169 36.4596 25.8439 39.5952 23.7023 42.6854C23.1539 43.4775 22.4697 44.2188 21.7157 44.8157C18.2511 47.5579 14.7494 50.2521 11.2437 52.9394C9.10074 54.5814 6.45738 54.3573 4.6668 52.4291C2.92558 50.5547 2.99139 47.4603 4.95061 45.8045C7.1237 43.9685 9.41197 42.2687 11.6536 40.5152C12.8917 39.547 14.1379 38.5899 15.3746 37.6203C15.5844 37.4553 15.7681 37.2559 16.0355 37.0056C15.7612 36.8447 15.5583 36.7195 15.3513 36.604C8.57975 32.8193 4.55026 27.0913 3.27245 19.4242C3.07777 18.2566 2.91873 17.0821 2.75831 15.9077C2.6075 14.7978 3.12712 14.1294 4.24452 14.0923C7.27177 13.9933 10.2771 13.7361 13.244 13.0966C16.566 12.3801 19.7455 11.2469 22.829 9.83313C27.1326 7.85963 31.6639 6.9327 36.3817 6.91207C38.7467 6.90244 41.1131 6.95883 43.4782 6.99184C43.7496 6.99596 44.0197 7.04822 44.198 7.06885C44.5243 6.0319 44.6874 4.91381 45.2043 3.99926C46.2202 2.20317 47.6544 0.781149 49.6986 0.129275C49.7548 0.111397 49.7973 0.0467588 49.8453 0.00412562C50.8914 -1.67786e-07 51.9389 0 52.9863 0ZM17.5477 34.5631C19.7798 31.1043 21.9899 27.6799 24.1945 24.2514C24.2891 24.1029 24.344 23.9172 24.3755 23.7412C24.6579 22.1734 25.4956 20.9342 26.6021 19.8313C29.7664 16.6778 32.9143 13.5078 36.0677 10.342C36.2377 10.1714 36.3968 9.99128 36.6381 9.73411C36.3364 9.71898 36.1431 9.70248 35.9498 9.70248C31.6091 9.70798 27.4905 10.7037 23.557 12.5163C18.7912 14.7112 13.8116 16.1167 8.58112 16.5898C7.63921 16.6751 6.69594 16.7507 5.75815 16.8305C6.09817 24.2803 10.5801 31.4302 17.5477 34.5631ZM29.4977 20.838C29.1412 21.1997 28.7601 21.5889 28.3776 21.9781C26.369 24.0245 26.5856 26.6333 28.9136 28.2947C30.6905 29.564 32.4879 30.8059 34.2552 32.0904C34.6309 32.3641 34.9846 32.723 35.2259 33.1177C36.054 34.4668 35.7949 36.0415 34.565 37.2834C32.2891 39.5814 29.9913 41.8589 27.7194 44.1624C26.8612 45.0316 26.8447 46.2253 27.6207 47.0477C28.3967 47.8701 29.632 47.9403 30.4917 47.089C33.1309 44.4774 35.8031 41.8946 38.3203 39.1661C40.1973 37.1321 40.5469 34.6195 39.6708 32.0106C39.3884 31.1689 38.9359 30.2957 38.3258 29.6672C35.4398 26.6938 32.4728 23.7989 29.4977 20.838ZM24.9061 28.2616C24.8307 28.3744 24.6922 28.5807 24.5578 28.7897C22.4574 32.0436 20.3652 35.3016 18.2469 38.5431C17.9672 38.9722 17.5957 39.3683 17.1926 39.6846C13.8432 42.3141 10.4786 44.9243 7.11136 47.5305C6.46697 48.0297 6.10776 48.6499 6.21196 49.4723C6.42036 51.1309 8.18626 51.8103 9.57375 50.7444C13.1837 47.9692 16.7827 45.1774 20.3734 42.376C20.7066 42.116 21 41.7764 21.2386 41.4243C23.1443 38.6146 25.0322 35.794 26.9256 32.976C27.3287 32.3764 27.7318 31.7768 28.0677 31.2776C26.9901 30.2503 25.9618 29.2697 24.9061 28.2616ZM43.7757 9.85651C43.5015 9.79049 43.3575 9.73548 43.2122 9.72311C41.5697 9.58145 40.1849 10.1164 39.0223 11.2937C36.6339 13.7086 34.2291 16.1071 31.8326 18.5138C31.7284 18.6183 31.6392 18.7379 31.631 18.7476C33.9659 21.1007 36.2542 23.4097 38.4917 25.6651C40.8499 23.3011 43.241 20.904 45.6663 18.4725C43.3644 18.1136 41.3914 17.2004 41.0076 14.5778C40.6867 12.4104 41.7123 10.8563 43.7757 9.85651ZM49.1721 16.2198C52.7683 16.0906 55.9409 14.9684 58.7049 12.7129C61.1111 10.7491 62.8359 8.16768 64.8115 5.81461C65.0515 5.52855 65.1941 4.94132 65.0652 4.61813C64.8842 4.16292 64.4797 3.6692 64.0451 3.47391C63.3898 3.17823 62.7673 3.51242 62.3039 4.07215C61.1563 5.45979 59.9951 6.83781 58.8585 8.23507C57.4216 10.0023 55.7065 11.3844 53.5649 12.1986C51.0381 13.1571 48.477 13.2562 45.8734 12.53C44.8108 12.233 44.006 12.6497 43.7469 13.5628C43.4987 14.4334 44.0266 15.2585 45.096 15.4896C46.4451 15.7811 47.8134 15.9806 49.1721 16.2198ZM54.6727 6.27395C54.6055 4.5865 54.0365 3.58393 52.8602 2.9857C51.6811 2.38608 50.5075 2.4796 49.4696 3.28825C48.8485 3.77235 48.2809 4.35408 47.7942 4.97432C46.9195 6.08829 46.9771 7.70697 47.8422 8.84569C48.6909 9.96515 50.1634 10.3791 51.4946 9.92252C52.5668 9.55532 53.2729 8.73842 53.9118 7.89676C54.3286 7.3494 54.515 6.62327 54.6727 6.27395Z" fill="url(#paint0_linear_3_362)"/>
<path d="M54.3258 35.6275C53.9378 35.3209 53.6431 35.1352 53.4072 34.8932C52.4393 33.8975 52.7807 32.6996 54.1366 32.3778C56.5661 31.8029 59.0011 31.2556 61.4347 30.6972C62.9168 30.3575 64.3989 30.0179 65.8796 29.6754C67.3356 29.3385 68.1363 30.1402 67.8004 31.6035C66.9106 35.4845 66.0167 39.3655 65.1351 43.2493C64.9898 43.8915 64.7334 44.4251 64.0575 44.6135C63.4049 44.795 62.9072 44.4897 62.4958 44.0153C62.3025 43.7925 62.1394 43.5422 61.9639 43.3043C61.8583 43.2836 61.7528 43.263 61.6472 43.241C61.5046 43.4748 61.4018 43.7485 61.2153 43.9355C54.0448 51.1405 46.8674 58.3386 39.69 65.5368C39.4816 65.7458 39.2732 65.9617 39.0374 66.1377C38.441 66.5806 37.7253 66.5338 37.2345 66.0429C36.7656 65.5739 36.719 64.8037 37.1399 64.233C37.2742 64.0515 37.4387 63.8892 37.5992 63.7283C45.2249 56.0763 52.852 48.4257 60.4804 40.7752C61.3881 39.8647 61.7994 39.807 62.936 40.4712C63.5132 37.9559 64.0863 35.4625 64.6977 32.7945C62.0791 33.3927 59.581 33.9649 57.0707 34.5383C57.6876 35.8627 57.6437 36.0979 56.6059 37.139C45.9707 47.8069 35.3342 58.4762 24.6977 69.1427C24.4893 69.3517 24.2795 69.5676 24.0382 69.7341C23.4528 70.1384 22.7714 70.0641 22.2984 69.5745C21.8459 69.1069 21.7883 68.3781 22.1859 67.8224C22.3573 67.5832 22.5712 67.3741 22.781 67.1651C33.0295 56.8822 43.2794 46.6008 53.532 36.3207C53.7253 36.1295 53.9433 35.9617 54.3258 35.6275Z" fill="url(#paint1_linear_3_362)"/>
<path d="M5.01779 66.5421C4.55712 66.1859 4.04161 65.97 3.85652 65.5904C3.68102 65.2315 3.79756 64.6896 3.89491 64.2523C3.94701 64.0171 4.21299 63.8204 4.40493 63.6279C7.65292 60.3644 10.9023 57.1023 14.1599 53.8484C14.4135 53.5954 14.6987 53.3203 15.0223 53.2048C15.5926 53.0012 16.1479 53.1113 16.5441 53.638C16.9307 54.1496 16.9376 54.6901 16.6003 55.2237C16.4687 55.4327 16.2918 55.6184 16.1163 55.7944C12.8519 59.073 9.58883 62.3558 6.30931 65.6193C5.97203 65.9507 5.53056 66.179 5.01779 66.5421Z" fill="url(#paint2_linear_3_362)"/>
<path d="M18.2853 62.822C17.863 62.4961 17.449 62.2733 17.1693 61.9377C16.8375 61.5402 16.88 61.0383 17.1583 60.5954C17.29 60.3864 17.46 60.1952 17.6341 60.0192C19.7016 57.9371 21.7705 55.8563 23.849 53.7851C24.0862 53.55 24.3604 53.2997 24.6648 53.1965C25.242 53.0012 25.7959 53.1278 26.1811 53.6504C26.5582 54.162 26.5801 54.7024 26.214 55.236C26.1126 55.3846 25.9919 55.5248 25.8644 55.6527C23.7462 57.7817 21.6334 59.9147 19.4973 62.0243C19.1943 62.3255 18.7734 62.5071 18.2853 62.822Z" fill="url(#paint3_linear_3_362)"/>
<path d="M2.71718 68.6916C2.68839 69.4219 2.04949 70.0201 1.32147 69.9995C0.560538 69.9775 -0.0440897 69.3132 0.00252567 68.5486C0.04777 67.8183 0.699013 67.238 1.42841 67.2751C2.1578 67.3136 2.74597 67.9613 2.71718 68.6916Z" fill="url(#paint4_linear_3_362)"/>
<path d="M33.316 68.6339C33.3133 67.8499 33.9097 67.2586 34.6898 67.2723C35.4123 67.2847 36.0279 67.9036 36.0334 68.6215C36.0389 69.3517 35.3657 70.0132 34.6336 69.9981C33.9028 69.9802 33.3188 69.3751 33.316 68.6339Z" fill="url(#paint5_linear_3_362)"/>
<defs>
<linearGradient id="paint0_linear_3_362" x1="62.3802" y1="11.5702" x2="3.22259" y2="56.763" gradientUnits="userSpaceOnUse">
<stop stop-color="#A1A2FF"/>
<stop offset="0.333333" stop-color="#A79DF5"/>
<stop offset="1" stop-color="#FF5F68"/>
</linearGradient>
<linearGradient id="paint1_linear_3_362" x1="62.3802" y1="11.5702" x2="3.22259" y2="56.763" gradientUnits="userSpaceOnUse">
<stop stop-color="#A1A2FF"/>
<stop offset="0.333333" stop-color="#A79DF5"/>
<stop offset="1" stop-color="#FF5F68"/>
</linearGradient>
<linearGradient id="paint2_linear_3_362" x1="62.3802" y1="11.5702" x2="3.22259" y2="56.763" gradientUnits="userSpaceOnUse">
<stop stop-color="#A1A2FF"/>
<stop offset="0.333333" stop-color="#A79DF5"/>
<stop offset="1" stop-color="#FF5F68"/>
</linearGradient>
<linearGradient id="paint3_linear_3_362" x1="62.3802" y1="11.5702" x2="3.22259" y2="56.763" gradientUnits="userSpaceOnUse">
<stop stop-color="#A1A2FF"/>
<stop offset="0.333333" stop-color="#A79DF5"/>
<stop offset="1" stop-color="#FF5F68"/>
</linearGradient>
<linearGradient id="paint4_linear_3_362" x1="62.3802" y1="11.5702" x2="3.22259" y2="56.763" gradientUnits="userSpaceOnUse">
<stop stop-color="#A1A2FF"/>
<stop offset="0.333333" stop-color="#A79DF5"/>
<stop offset="1" stop-color="#FF5F68"/>
</linearGradient>
<linearGradient id="paint5_linear_3_362" x1="62.3802" y1="11.5702" x2="3.22259" y2="56.763" gradientUnits="userSpaceOnUse">
<stop stop-color="#A1A2FF"/>
<stop offset="0.333333" stop-color="#A79DF5"/>
<stop offset="1" stop-color="#FF5F68"/>
</linearGradient>
</defs>
</svg>
