<svg width="74" height="74" viewBox="0 0 74 74" fill="none" xmlns="http://www.w3.org/2000/svg">
<path d="M0.00386035 61.7164C0.492277 60.6565 0.893821 59.5465 1.48455 58.5482C2.94594 56.07 5.03668 54.2719 7.7027 53.16C7.83591 53.1041 7.96332 53.0386 8.09073 52.973C8.10424 52.9653 8.10617 52.9307 8.1332 52.842C6.32818 51.2136 5.34942 49.165 5.5444 46.6752C5.69498 44.7538 6.52316 43.1292 7.96911 41.8284C10.7355 39.3424 15.0193 39.406 17.7471 42.0173C19.3069 43.5108 20.0483 45.3647 19.9691 47.5327C19.8996 49.4329 19.554 50.1479 17.4189 52.8613C18.4247 53.4433 19.4865 53.9578 20.4324 54.6342C21.361 55.2991 22.1699 56.1297 23.0695 56.9198C25.2625 53.9501 28.1467 51.8437 31.8089 50.6162C28.8011 48.3479 27.4035 45.4033 27.7934 41.7398C28.0598 39.2364 29.2876 37.2014 31.2413 35.6096C35.0791 32.4838 40.776 33.0619 44.0811 36.9046C47.2664 40.6086 47.2143 46.891 42.2046 50.6123C45.8089 51.8341 48.722 53.925 50.9884 57.0123C52.5405 55.1546 54.4054 53.8056 56.7258 52.9172C54.6525 51.1095 53.7529 48.8972 54.0753 46.2551C54.2915 44.4956 55.1042 43.0117 56.4401 41.8342C59.2876 39.327 63.5019 39.4041 66.2162 42.0057C69.3185 44.9793 69.2007 48.7815 65.9305 52.8208C67.1293 53.5782 68.4015 54.2527 69.527 55.1199C71.6004 56.7194 72.9903 58.845 73.7896 61.3368C74.6235 63.9307 72.776 66.4649 70.0502 66.4726C65.0656 66.4861 60.0791 66.4765 55.0946 66.4765C54.8089 66.4765 54.5231 66.4765 54.1197 66.4765C54.1197 66.9929 54.1197 67.4632 54.1197 67.9315C54.1139 71.1883 52.7934 72.9728 49.6872 73.921C49.6428 73.9345 49.6081 73.973 49.5675 74C41.1853 74 32.805 74 24.4228 74C24.3822 73.973 24.3475 73.9345 24.3031 73.921C21.2066 72.9767 19.8745 71.1845 19.8687 67.9488C19.8687 67.4767 19.8687 67.0064 19.8687 66.4765C19.4845 66.4765 19.2008 66.4765 18.9151 66.4765C13.917 66.4765 8.91698 66.4803 3.91892 66.4726C2.25676 66.4707 0.909265 65.5418 0.2722 64.0078C0.193049 63.817 0.0907336 63.6339 0 63.447C0.003861 62.8727 0.00386035 62.2946 0.00386035 61.7164ZM36.9691 71.6913C40.7954 71.6913 44.6235 71.6971 48.4498 71.6874C50.1834 71.6836 51.6255 70.589 51.7104 69.0396C51.7953 67.5094 51.8398 65.9388 51.5926 64.4376C50.6042 58.4288 45.9266 53.6437 40.0656 52.472C33.9749 51.254 27.9305 53.7516 24.5579 58.8604C22.6969 61.6798 22.1274 64.7787 22.1873 68.1222C22.2278 70.4213 23.8108 71.7433 25.778 71.7086C29.5077 71.645 33.2394 71.6913 36.9691 71.6913ZM37.0483 35.9642C33.2066 35.9468 30.0772 39.011 30.056 42.817C30.0347 46.6655 33.1448 49.8203 36.9826 49.8357C40.7683 49.8511 43.9286 46.7099 43.9401 42.9192C43.9498 39.0861 40.8726 35.9815 37.0483 35.9642ZM19.8571 64.1331C20.4054 62.5798 20.8687 61.1422 21.4324 59.745C21.6255 59.2651 21.583 58.9799 21.2703 58.6061C18.5444 55.3299 15.0502 53.9405 10.8764 54.6689C6.69305 55.3993 3.90926 57.9277 2.46332 61.9265C2.2278 62.5798 2.25869 63.2331 2.80695 63.6359C3.21428 63.9365 3.80309 64.1331 4.31274 64.1369C9.32046 64.1735 14.3301 64.1581 19.3398 64.1581C19.5502 64.1562 19.7625 64.1369 19.8571 64.1331ZM54.1564 64.135C54.1313 64.1311 54.2239 64.1543 54.3185 64.1543C59.5193 64.1562 64.7201 64.1658 69.9208 64.1504C71.2838 64.1466 71.9343 63.1522 71.498 61.8379C70.1409 57.7408 66.3919 54.7788 62.027 54.5128C58.1563 54.2758 54.9807 55.7192 52.5946 58.8084C52.4672 58.9741 52.4092 59.2979 52.4768 59.4925C53 61.0073 53.5618 62.5085 54.1564 64.135ZM56.3494 47.209C56.3417 49.9205 58.5309 52.1424 61.222 52.1521C63.9073 52.1617 66.1428 49.9262 66.1351 47.2379C66.1274 44.565 63.9401 42.3565 61.2838 42.343C58.5656 42.3295 56.3571 44.5033 56.3494 47.209ZM17.6448 47.2649C17.6506 44.5438 15.473 42.3488 12.7645 42.343C10.0656 42.3372 7.84942 44.5553 7.85714 47.2514C7.86486 49.9455 10.1081 52.1752 12.7838 52.1502C15.4575 52.1251 17.639 49.9301 17.6448 47.2649Z" fill="#373563"/>
<path d="M0.00386035 17.3442C0.492277 16.4828 1.23552 16.1918 2.21235 16.1802C3.84749 16.1609 5.48069 16.0145 7.11776 15.9528C7.54247 15.9374 7.74903 15.7909 7.89382 15.3862C8.48069 13.7597 9.11776 12.1506 9.71428 10.5279C10.0058 9.7378 10.4826 9.18857 11.3668 9.14232C12.1235 9.10185 12.695 9.59134 13.0637 10.553C13.6737 12.1467 14.2915 13.7366 14.8726 15.3381C15.0232 15.7543 15.2123 15.9412 15.6795 15.9567C17.388 16.0125 19.0927 16.1243 20.8011 16.1995C21.8417 16.2457 22.4247 16.5868 22.6911 17.3481C22.9652 18.1305 22.7432 18.7086 21.8957 19.3947C20.5483 20.4854 19.2066 21.582 17.8398 22.6496C17.4961 22.9175 17.4382 23.1622 17.5521 23.5688C18.0444 25.3013 18.4884 27.0473 18.9749 28.7817C19.1892 29.5449 19.0116 30.1635 18.4073 30.6511C17.8301 31.1155 17.1274 31.1136 16.3957 30.6434C14.9189 29.6913 13.4382 28.7471 11.9923 27.7507C11.5347 27.4366 11.2201 27.4655 10.7838 27.7623C9.37258 28.7239 7.92857 29.6374 6.50579 30.5836C5.82432 31.0365 5.13706 31.1695 4.42471 30.6838C3.76641 30.2348 3.59652 29.5911 3.85714 28.6218C4.31081 26.9278 4.7471 25.23 5.24131 23.5496C5.36872 23.116 5.26062 22.8982 4.94015 22.6457C3.63707 21.6167 2.33591 20.5818 1.06178 19.5161C0.664092 19.1846 0.355212 18.7491 0.00386035 18.3598C0.00386035 18.0187 0.00386035 17.6814 0.00386035 17.3442ZM11.3861 12.7518C10.8475 14.1702 10.3359 15.4055 9.90926 16.6697C9.55984 17.7084 8.95559 18.2943 7.81274 18.2711C7.14092 18.2577 6.46718 18.3174 5.79536 18.3559C5.09266 18.3964 4.39189 18.4523 3.52509 18.512C4.78957 19.5296 5.9054 20.4353 7.02895 21.3314C7.7027 21.8672 7.96718 22.5205 7.69498 23.3665C7.57722 23.7307 7.49035 24.1065 7.39189 24.4765C7.1139 25.521 6.83977 26.5655 6.5193 27.7758C7.72394 26.9857 8.81081 26.3613 9.79729 25.6039C10.9035 24.754 11.8784 24.7521 12.9865 25.602C13.9691 26.3555 15.056 26.976 16.1988 27.7199C16.1564 27.4482 16.1467 27.3094 16.11 27.1784C15.7741 25.9277 15.4344 24.6769 15.0907 23.4282C14.8571 22.5764 15.0425 21.8787 15.7664 21.3199C16.7934 20.5259 17.7954 19.6992 18.805 18.8821C18.9151 18.7915 19 18.6701 19.1602 18.4928C17.5618 18.4022 16.0753 18.3116 14.5869 18.2365C13.8243 18.1979 13.334 17.7971 13.0579 17.1168C12.8224 16.5387 12.6197 15.949 12.3977 15.367C12.083 14.5421 11.7645 13.725 11.3861 12.7518Z" fill="#373563"/>
<path d="M37.4305 0C38.0116 0.377718 38.1872 0.909608 38.1621 1.59374C38.1197 2.81747 38.1564 4.04505 38.1467 5.27071C38.1409 6.05698 37.6834 6.5484 36.9942 6.5484C36.305 6.5484 35.8513 6.05698 35.8455 5.27071C35.8359 4.04505 35.8745 2.81747 35.8301 1.59374C35.8069 0.909608 35.9787 0.375791 36.5618 0C36.8533 0 37.1409 0 37.4305 0Z" fill="#373563"/>
<path d="M44.6506 29.1633C44.6795 29.9785 44.3706 30.4699 43.8011 30.784C43.1988 31.1155 42.5984 31.0423 42.0289 30.6684C40.5598 29.7048 39.0753 28.7663 37.6313 27.7681C37.1506 27.4347 36.8204 27.4617 36.3571 27.7796C34.9498 28.7451 33.5096 29.6682 32.0772 30.5971C31.2915 31.1059 30.6042 31.1194 30 30.6645C29.3784 30.1982 29.2085 29.5873 29.4556 28.6623C29.9073 26.9683 30.3398 25.2686 30.832 23.5881C30.9652 23.1314 30.8629 22.8943 30.5135 22.6188C29.1506 21.5492 27.8089 20.4507 26.4575 19.3638C25.6718 18.7317 25.4324 18.1131 25.6911 17.3731C25.9575 16.61 26.5232 16.2477 27.4903 16.2033C29.1969 16.1243 30.9035 16.0183 32.612 15.9624C33.1158 15.9451 33.3668 15.7851 33.5425 15.2918C34.1197 13.6634 34.7529 12.0523 35.3745 10.4393C35.7104 9.56822 36.2683 9.10956 37.0019 9.14425C37.8417 9.18279 38.3455 9.66072 38.6332 10.4451C39.2278 12.0696 39.8706 13.6749 40.4614 15.2995C40.6216 15.7389 40.8166 15.947 41.3224 15.9605C43.0058 16.0087 44.6872 16.1262 46.3706 16.1976C47.4556 16.2438 48.0347 16.583 48.3089 17.3827C48.5637 18.1305 48.3089 18.751 47.4749 19.4197C46.1235 20.5047 44.7799 21.5993 43.4189 22.6727C43.112 22.9155 43.0347 23.1314 43.1486 23.5284C43.6409 25.2358 44.0849 26.9567 44.5425 28.6738C44.5984 28.88 44.6351 29.092 44.6506 29.1633ZM37.0251 12.8077C36.9093 13.0332 36.861 13.1084 36.8301 13.1893C36.3417 14.467 35.8591 15.7485 35.3706 17.0262C35.0869 17.7682 34.5791 18.2095 33.7529 18.2384C32.9594 18.2673 32.166 18.3097 31.3745 18.3559C30.6776 18.3964 29.9826 18.4504 29.1255 18.5082C30.2606 19.4236 31.193 20.2657 32.2181 20.9749C33.3513 21.7593 33.5965 22.6881 33.1564 23.9639C32.7529 25.1337 32.5 26.3536 32.139 27.7045C32.4479 27.5272 32.612 27.4443 32.7645 27.346C33.7529 26.7062 34.7664 26.0992 35.7201 25.4093C36.61 24.7637 37.417 24.7829 38.2915 25.4189C39.0289 25.9566 39.8127 26.4287 40.5791 26.9278C40.9459 27.1668 41.3166 27.4 41.8629 27.7488C41.5482 26.5617 41.3957 25.5499 41.0116 24.6345C40.249 22.8173 40.6757 21.5242 42.3591 20.5047C43.2201 19.9824 43.9517 19.2444 44.8764 18.4947C43.2374 18.4041 41.7992 18.3058 40.3591 18.2519C39.4459 18.2172 38.8957 17.7759 38.5888 16.9356C38.1042 15.6059 37.5888 14.2897 37.0251 12.8077Z" fill="#373563"/>
<path d="M54.8243 29.5642C55.0579 28.6661 55.2278 27.9916 55.4092 27.321C55.7394 26.0915 56.0502 24.8562 56.4208 23.6401C56.5618 23.1776 56.4923 22.9021 56.1042 22.6014C54.7162 21.5222 53.3552 20.4103 51.9903 19.3041C51.2509 18.7048 51.0444 18.0958 51.3031 17.3519C51.5579 16.6235 52.1255 16.2515 53.0463 16.2072C54.8262 16.1205 56.6042 16.0145 58.3842 15.9528C58.7953 15.9374 58.9652 15.7717 59.0984 15.4132C59.7143 13.7462 60.3475 12.0851 60.9845 10.4258C61.3089 9.57785 61.8996 9.10377 62.6235 9.14617C63.4285 9.19242 63.9382 9.63952 64.2201 10.395C64.8378 12.0619 65.4923 13.7154 66.1004 15.3843C66.2471 15.7851 66.4479 15.9393 66.8764 15.9547C68.5849 16.0164 70.2896 16.1263 71.998 16.2014C73.054 16.2477 73.7065 16.6215 73.9266 17.402C74.1795 18.2981 73.7509 18.911 73.0675 19.4448C71.7201 20.497 70.4035 21.5877 69.0618 22.6457C68.7432 22.8982 68.6293 23.1121 68.7567 23.5476C69.2509 25.23 69.6872 26.9278 70.1409 28.6218C70.4015 29.5911 70.2239 30.2271 69.5772 30.6877C68.9382 31.1425 68.2934 31.0982 67.4401 30.5412C66.0096 29.6066 64.5695 28.6873 63.1583 27.7257C62.7567 27.452 62.4807 27.4443 62.0733 27.7199C60.5811 28.7336 59.0598 29.7029 57.5463 30.6877C56.9749 31.0596 56.3262 31.1637 55.7857 30.757C55.361 30.4333 55.0946 29.911 54.8243 29.5642ZM57.7876 27.531C57.8282 27.5715 57.8687 27.612 57.9092 27.6505C58.9324 26.9837 60.0038 26.3786 60.9633 25.6309C62.1197 24.729 63.1332 24.754 64.278 25.6482C65.2374 26.3959 66.3089 27.0049 67.4807 27.7719C67.1448 26.5193 66.9517 25.3996 66.5405 24.3647C65.8996 22.7537 66.2818 21.6205 67.7278 20.6897C68.6602 20.0884 69.4787 19.3118 70.4961 18.4928C68.8706 18.4041 67.4594 18.2981 66.0444 18.2577C65.0328 18.2288 64.4691 17.7373 64.1448 16.8065C63.6892 15.498 63.1641 14.2145 62.6062 12.7538C62.139 13.9698 61.6197 15.0085 61.3417 16.1089C60.9208 17.7874 59.9015 18.4446 58.2509 18.327C57.8687 18.3001 57.4807 18.3309 57.0965 18.354C56.3668 18.3945 55.639 18.4465 54.7316 18.5063C55.9421 19.4795 56.9884 20.3582 58.0753 21.1831C58.9131 21.819 59.1641 22.5687 58.8552 23.5823C58.4594 24.887 58.139 26.2148 57.7876 27.531Z" fill="#373563"/>
<path d="M25.444 5.90474C25.8822 6.15719 26.2239 6.28631 26.4788 6.51371C27.9595 7.81838 29.4247 9.14232 30.8842 10.4701C31.4942 11.0251 31.5734 11.7439 31.1158 12.2527C30.6525 12.7692 29.944 12.7615 29.3243 12.2065C27.8185 10.8575 26.3224 9.49691 24.8166 8.14599C24.3919 7.76442 24.2066 7.27107 24.4749 6.78929C24.6718 6.44048 25.0907 6.21501 25.444 5.90474Z" fill="#373563"/>
<path d="M49.7818 7.19592C49.5212 7.59676 49.3822 7.94364 49.1351 8.17104C47.6313 9.55858 46.1081 10.9249 44.5791 12.2816C44.0289 12.7692 43.3436 12.7441 42.8977 12.272C42.4401 11.7863 42.4787 11.056 43.0405 10.5414C44.5502 9.1616 46.0753 7.79718 47.5965 6.42892C48.0096 6.05698 48.5116 5.89125 48.9787 6.2073C49.2992 6.42314 49.4942 6.82783 49.7818 7.19592Z" fill="#373563"/>
</svg>
