<svg width="169" height="112" viewBox="0 0 169 112" fill="none" xmlns="http://www.w3.org/2000/svg">
<circle cx="56.5" cy="27.5" r="27.5" fill="url(#paint0_linear_4_513)"/>
<circle cx="9.5" cy="54.5" r="9.5" fill="url(#paint1_linear_4_513)"/>
<circle cx="159.5" cy="102.5" r="9.5" fill="#FE9395"/>
<path d="M62.702 81.8057C89.9792 81.8057 117.142 81.8057 144.436 81.8057C144.436 81.4662 144.436 81.1438 144.436 80.8238C144.436 67.1998 144.436 53.5734 144.436 39.9494C144.436 37.9613 143.611 37.1479 141.586 37.1455C138.288 37.1406 134.991 37.1699 131.696 37.1162C131.183 37.1064 130.519 36.8622 130.197 36.4885C129.498 35.68 130.192 34.5003 131.347 34.4612C132.566 34.4197 133.789 34.449 135.011 34.449C137.299 34.449 139.59 34.4392 141.879 34.4515C144.956 34.4661 147.128 36.6008 147.13 39.693C147.142 56.7315 147.14 73.77 147.133 90.8085C147.13 93.483 145.43 95.078 142.626 95.0804C132.094 95.0853 121.563 95.0828 111.031 95.0828C110.642 95.0828 110.254 95.0828 109.702 95.0828C110.574 96.8267 111.36 98.4314 112.191 100.012C112.279 100.18 112.638 100.275 112.877 100.285C113.7 100.319 114.526 100.28 115.349 100.307C116.192 100.334 116.709 100.827 116.744 101.575C116.78 102.364 116.26 102.916 115.39 102.987C115.117 103.009 114.841 102.994 114.567 102.994C107.211 102.994 99.8541 102.994 92.495 102.994C92.1897 102.994 91.8795 103.018 91.5815 102.97C90.8146 102.845 90.3725 102.383 90.4018 101.594C90.4335 100.808 90.8952 100.351 91.6767 100.315C92.5292 100.273 93.3865 100.327 94.2389 100.285C94.4953 100.273 94.8715 100.141 94.9741 99.9482C95.7972 98.3972 96.569 96.817 97.4385 95.0853C96.8938 95.0853 96.5104 95.0853 96.1269 95.0853C85.6854 95.0853 75.2464 95.0853 64.8049 95.0853C61.5003 95.0853 60.0006 93.5856 60.0006 90.2859C60.0006 73.4916 59.9982 56.6948 60.0031 39.9006C60.0031 37.0356 61.5906 35.0328 64.2334 34.5247C64.441 34.4856 64.6559 34.4588 64.8684 34.4588C68.471 34.4539 72.0736 34.4221 75.6738 34.4881C76.1452 34.4954 76.7558 34.9033 77.022 35.3088C77.2126 35.597 77.1002 36.3566 76.8364 36.613C76.4969 36.9427 75.8741 37.1186 75.3709 37.1259C72.0736 37.1699 68.7763 37.1455 65.4815 37.1528C65.0882 37.1528 64.6779 37.1577 64.3066 37.2676C63.2833 37.568 62.7044 38.4473 62.702 39.6563C62.6971 44.9589 62.6995 50.2639 62.6995 55.5664C62.6995 63.9172 62.6995 72.2703 62.6995 80.6211C62.702 80.9777 62.702 81.3416 62.702 81.8057ZM62.702 84.5656C62.702 86.5391 62.702 88.4247 62.702 90.3078C62.702 92.1079 63.017 92.4181 64.8318 92.4181C90.6534 92.4181 116.477 92.4181 142.299 92.4181C142.543 92.4181 142.787 92.4303 143.032 92.4132C143.935 92.3546 144.421 91.8686 144.429 90.9502C144.446 89.0304 144.436 87.1107 144.431 85.1909C144.431 84.9882 144.387 84.7879 144.36 84.5632C117.149 84.5657 89.9915 84.5656 62.702 84.5656ZM109.304 100.273C108.464 98.5975 107.714 97.0441 106.893 95.5249C106.766 95.288 106.327 95.1097 106.024 95.0999C104.776 95.0535 103.513 95.1976 102.282 95.0486C100.831 94.8728 100.062 95.4101 99.5634 96.7437C99.1164 97.9381 98.4545 99.0518 97.8537 100.273C101.723 100.273 105.438 100.273 109.304 100.273Z" fill="#373563"/>
<path d="M90.5117 27.8176C99.6196 27.8176 108.552 27.8176 117.62 27.8176C117.42 27.5563 117.278 27.3511 117.115 27.163C114.624 24.3591 112.127 21.5576 109.634 18.7537C109.553 18.6633 109.472 18.5705 109.394 18.4777C108.718 17.6717 108.683 16.9463 109.299 16.3918C109.961 15.7934 110.611 15.874 111.351 16.6776C112.074 17.4616 112.779 18.2652 113.488 19.0614C115.94 21.819 118.38 24.5887 120.862 27.3194C121.123 27.6076 121.616 27.8249 122.009 27.8347C124.083 27.886 126.162 27.8543 128.238 27.8591C129.347 27.8616 129.935 28.3379 129.933 29.2025C129.93 30.0696 129.347 30.5361 128.235 30.5532C126.535 30.5825 126.54 30.5825 126.101 32.1847C124.501 38.0173 122.903 43.8523 121.294 49.6824C120.698 51.8464 119.281 52.8991 117.012 52.8991C108.342 52.8991 99.6708 52.8991 91.0001 52.8991C88.5577 52.8991 87.2095 51.8782 86.5647 49.5261C84.9038 43.4908 83.2478 37.4531 81.5869 31.4153C81.5161 31.154 81.4257 30.8951 81.3183 30.5507C80.4781 30.5507 79.6281 30.5629 78.7806 30.5483C77.7523 30.5287 77.1881 30.0256 77.2003 29.1781C77.2125 28.3354 77.7792 27.864 78.8245 27.8591C81.2963 27.8518 83.7705 27.8372 86.2423 27.8714C86.8529 27.8787 87.2485 27.6955 87.6198 27.2119C90.2234 23.8291 92.854 20.4683 95.4772 17.1026C95.6261 16.9096 95.7678 16.7069 95.9339 16.5311C96.5128 15.918 97.2308 15.8325 97.8024 16.3308C98.4008 16.8535 98.4398 17.4934 98.0271 18.1357C97.7315 18.5949 97.3676 19.0126 97.0306 19.4449C94.8959 22.1902 92.7612 24.9306 90.5117 27.8176ZM84.1246 30.5996C85.8588 36.8816 87.5636 43.0585 89.2684 49.233C89.5298 50.1783 90.265 50.2466 91.0734 50.2466C99.6464 50.2393 108.222 50.2442 116.795 50.2418C118.182 50.2418 118.417 50.0537 118.781 48.7397C119.863 44.8171 120.949 40.8945 122.031 36.9719C122.61 34.8714 123.177 32.7685 123.766 30.602C110.525 30.5996 97.3823 30.5996 84.1246 30.5996Z" fill="#373563"/>
<path d="M69.2746 59.4839C68.7055 59.4839 68.2781 59.4985 67.8531 59.4814C67.1228 59.4472 66.732 59.0002 66.6685 58.3212C66.605 57.6129 66.8981 57.0609 67.6602 56.9071C67.985 56.8411 68.3269 56.8313 68.6591 56.8313C75.222 56.8265 81.7873 56.8265 88.3501 56.8313C88.653 56.8313 88.9608 56.8411 89.2612 56.8875C90.0208 57.0048 90.3823 57.5055 90.3456 58.2333C90.3065 59.0027 89.8742 59.4668 89.0609 59.4863C88.6701 59.4961 88.2793 59.4887 87.7737 59.4887C87.7737 59.8844 87.7737 60.2093 87.7737 60.5317C87.7737 64.8304 87.7762 69.1266 87.7737 73.4254C87.7713 76.3514 86.169 77.9512 83.2503 77.9512C80.0141 77.9512 76.7778 77.9561 73.5416 77.9512C70.9404 77.9463 69.2893 76.3465 69.2771 73.7575C69.2575 69.3685 69.2722 64.9794 69.2697 60.5878C69.2746 60.2606 69.2746 59.9308 69.2746 59.4839ZM85.0797 59.5376C83.2845 59.5376 81.6188 59.5376 79.8553 59.5376C79.8553 60.0017 79.8577 60.4193 79.8553 60.8394C79.8529 61.2668 79.8748 61.6943 79.8333 62.1168C79.7552 62.9228 79.1861 63.4773 78.4924 63.4699C77.745 63.4626 77.2101 62.874 77.193 62.0045C77.1784 61.1911 77.1906 60.3778 77.1906 59.5351C75.3978 59.5351 73.7052 59.5351 72.0346 59.5351C71.9833 59.6328 71.9344 59.6866 71.9344 59.7379C71.9247 64.4591 71.9051 69.1779 71.9271 73.8992C71.932 74.8493 72.462 75.2523 73.5001 75.2548C76.8242 75.2621 80.1484 75.2621 83.475 75.2548C84.6401 75.2523 85.0724 74.82 85.0773 73.6647C85.0846 71.5642 85.0797 69.4613 85.0797 67.3608C85.0797 64.7742 85.0797 62.1901 85.0797 59.5376Z" fill="#373563"/>
<path d="M99.4998 60.7269C99.5707 60.0625 99.5731 59.447 99.7099 58.8633C99.9712 57.7446 100.709 57.0314 101.859 56.9191C102.888 56.819 103.935 56.7994 104.964 56.8702C106.556 56.9826 107.484 58.0182 107.56 59.6278C107.577 59.9868 107.562 60.3458 107.562 60.7391C107.953 60.7659 108.256 60.7586 108.547 60.8099C109.199 60.9247 109.685 61.2447 109.785 61.9603C110.271 65.4872 110.823 69.0043 111.219 72.541C111.531 75.3352 109.201 77.846 106.336 77.9364C104.507 77.9926 102.673 77.9901 100.843 77.9388C97.7022 77.8509 95.4942 75.0567 95.9729 71.9475C96.4272 69.0019 96.8009 66.0416 97.1722 63.0838C97.4189 61.1006 97.5678 60.9101 99.4998 60.7269ZM103.618 63.482C102.55 63.482 101.481 63.4502 100.416 63.5064C100.181 63.5186 99.7929 63.8117 99.7636 64.0193C99.3484 66.8452 98.9454 69.676 98.6181 72.5141C98.43 74.1603 99.4607 75.2301 101.134 75.2521C102.69 75.2717 104.246 75.2643 105.801 75.2546C107.765 75.2448 108.745 74.1799 108.505 72.2503C108.166 69.5368 107.765 66.8281 107.416 64.117C107.35 63.6114 107.12 63.4624 106.637 63.4746C105.633 63.5015 104.624 63.482 103.618 63.482ZM104.824 59.5545C104.006 59.5545 103.181 59.5545 102.326 59.5545C102.326 59.9575 102.326 60.3312 102.326 60.7342C103.181 60.7342 103.982 60.7342 104.824 60.7342C104.824 60.3336 104.824 59.977 104.824 59.5545Z" fill="#373563"/>
<path d="M133.338 73.9654C132.656 75.0914 131.955 76.2174 131.288 77.3653C130.941 77.9588 130.531 78.4009 129.776 78.3154C129.063 78.2348 128.77 77.7268 128.541 77.1284C126.877 72.7882 125.211 68.4528 123.536 64.1175C123.294 63.4898 123.148 62.8913 123.678 62.3345C124.235 61.7483 124.845 61.8704 125.522 62.1318C129.803 63.7902 134.092 65.4266 138.379 67.0655C139.058 67.3244 139.71 67.6248 139.756 68.4626C139.8 69.2515 139.224 69.6252 138.628 69.9769C137.529 70.6242 136.444 71.2909 135.257 72.009C136.645 73.3792 137.978 74.6688 139.28 75.9902C139.905 76.6252 139.908 77.3971 139.363 77.9393C138.821 78.4791 138.066 78.4522 137.412 77.8562C137.14 77.612 136.894 77.3409 136.632 77.0844C135.616 76.0757 134.6 75.067 133.582 74.0607C133.538 74.024 133.469 74.0167 133.338 73.9654ZM135.265 68.9633C135.238 68.8802 135.208 68.7948 135.182 68.7117C132.507 67.6859 129.833 66.6576 126.955 65.5536C128.074 68.4577 129.112 71.1566 130.272 74.1706C131.208 71.5254 132.895 69.9036 135.265 68.9633Z" fill="#373563"/>
<path d="M121.79 59.1593C121.533 59.4621 121.296 59.9628 120.918 60.1192C120.544 60.273 119.889 60.2388 119.594 59.9995C118.727 59.2936 117.943 58.4729 117.195 57.6376C116.729 57.1149 116.829 56.4921 117.298 55.989C117.728 55.5298 118.336 55.266 118.844 55.7057C119.802 56.5385 120.666 57.4789 121.545 58.3972C121.675 58.5291 121.677 58.7856 121.79 59.1593Z" fill="#373563"/>
<path d="M128.734 60.3977C128.438 60.1584 127.932 59.9361 127.764 59.56C127.598 59.1912 127.598 58.5219 127.832 58.2386C128.56 57.352 129.408 56.5509 130.265 55.7815C130.807 55.2955 131.415 55.4689 131.901 55.9378C132.358 56.3824 132.568 56.9954 132.134 57.4937C131.318 58.4291 130.402 59.2742 129.505 60.1364C129.366 60.2683 129.11 60.2756 128.734 60.3977Z" fill="#373563"/>
<path d="M118.075 71.0001C117.786 70.7558 117.286 70.5214 117.125 70.1428C116.968 69.7691 116.985 69.1145 117.225 68.8214C117.931 67.9544 118.761 67.1825 119.587 66.4229C120.119 65.932 120.725 66.0468 121.233 66.5035C121.707 66.9285 121.958 67.5489 121.533 68.0472C120.71 69.0119 119.767 69.8766 118.851 70.7607C118.719 70.8877 118.458 70.8877 118.075 71.0001Z" fill="#373563"/>
<path d="M110.156 88.4882C110.134 89.2209 109.521 89.8315 108.82 89.8169C108.124 89.8022 107.497 89.1501 107.509 88.4516C107.519 87.7384 108.149 87.1277 108.862 87.1351C109.58 87.1448 110.178 87.7677 110.156 88.4882Z" fill="#373563"/>
<path d="M99.605 88.4881C99.5781 89.2282 98.948 89.8363 98.2397 89.8046C97.5094 89.7704 96.9452 89.1403 96.9794 88.3977C97.0111 87.7016 97.5998 87.135 98.2885 87.135C99.0213 87.1374 99.6294 87.7627 99.605 88.4881Z" fill="#373563"/>
<path d="M104.871 88.5077C104.863 89.1941 104.272 89.7998 103.606 89.8096C102.888 89.8193 102.262 89.2014 102.265 88.4833C102.267 87.731 102.856 87.1302 103.579 87.1375C104.304 87.1449 104.881 87.7579 104.871 88.5077Z" fill="#373563"/>
<path d="M111.441 46.3168C110.594 46.2948 109.961 45.545 110.205 44.673C111.077 41.5442 111.993 38.4252 112.931 35.3135C113.161 34.5539 113.908 34.2413 114.621 34.4807C115.315 34.7127 115.649 35.4259 115.405 36.2905C114.963 37.8708 114.482 39.4388 114.025 41.0118C113.627 42.382 113.251 43.7595 112.843 45.1273C112.589 45.9797 112.144 46.3363 111.441 46.3168Z" fill="#373563"/>
<path d="M93.3156 34.4319C93.5036 34.6175 94.0581 34.9106 94.19 35.3331C95.1572 38.435 96.056 41.5565 96.9353 44.6853C97.1502 45.4497 96.6813 46.1312 95.9437 46.2753C95.1792 46.4267 94.615 46.1361 94.3878 45.3667C93.4841 42.3088 92.5755 39.2533 91.7109 36.1855C91.43 35.1915 92.0455 34.4148 93.3156 34.4319Z" fill="#373563"/>
<path d="M104.883 40.433C104.883 41.8936 104.895 43.3542 104.878 44.8123C104.866 45.7917 104.373 46.3242 103.552 46.3144C102.731 46.3071 102.26 45.782 102.257 44.783C102.245 41.8643 102.245 38.9431 102.257 36.0244C102.262 35.0645 102.765 34.4759 103.537 34.4539C104.336 34.4343 104.871 35.0498 104.881 36.0537C104.895 37.5143 104.885 38.9749 104.883 40.433Z" fill="#373563"/>
<defs>
<linearGradient id="paint0_linear_4_513" x1="79.4545" y1="9.09091" x2="32.6364" y2="45.9091" gradientUnits="userSpaceOnUse">
<stop stop-color="#B5B5FF"/>
<stop offset="1" stop-color="#FFB0B5"/>
</linearGradient>
<linearGradient id="paint1_linear_4_513" x1="17.4298" y1="48.1405" x2="1.2562" y2="60.8595" gradientUnits="userSpaceOnUse">
<stop stop-color="#B5B5FF"/>
<stop offset="1" stop-color="#FFB0B5"/>
</linearGradient>
</defs>
</svg>
