<svg width="62" height="62" viewBox="0 0 62 62" fill="none" xmlns="http://www.w3.org/2000/svg">
<path d="M33.6351 39.0845C28.9994 39.0845 24.4631 39.0845 19.8357 39.0845C19.8357 40.2419 19.8398 41.3683 19.8357 42.4967C19.8315 43.4843 19.3866 44.0184 18.5878 44.0122C17.7889 44.006 17.3626 43.4801 17.3626 42.4759C17.3605 37.7739 17.375 33.0719 17.3481 28.3699C17.344 27.5728 17.6834 27.1504 18.3663 26.8357C22.0873 25.1193 25.7958 23.3759 29.5127 21.6512C30.03 21.4111 30.3632 21.0819 30.2991 20.4669C30.1956 19.4917 29.4299 19.0197 28.54 19.4296C25.5206 20.8168 22.466 22.1419 19.5108 23.6534C17.7227 24.5685 16.0174 24.8542 13.9955 24.5706C10.9099 24.1379 7.82013 24.5768 4.84833 25.5996C3.48246 26.0696 2.49737 27.461 2.48909 29.02C2.46426 33.2313 2.47461 37.4426 2.48289 41.6519C2.48496 42.5546 2.90506 42.9666 3.74321 42.9563C4.56687 42.948 4.95801 42.5339 4.96008 41.6063C4.96836 38.041 4.96422 34.4757 4.96422 30.9103C4.96422 30.6785 4.94766 30.4424 4.97664 30.2126C5.05528 29.5935 5.583 29.1422 6.20178 29.1442C6.82056 29.1442 7.34829 29.5956 7.42486 30.2167C7.4559 30.4714 7.43727 30.7323 7.43727 30.9911C7.43727 39.7491 7.43727 48.5072 7.43934 57.2653C7.43934 58.5759 7.94223 59.2488 8.99768 59.3689C10.3449 59.5221 11.1582 58.7995 11.1603 57.404C11.1686 52.3914 11.1624 47.3809 11.1644 42.3683C11.1644 42.1612 11.152 41.9542 11.1707 41.7492C11.2307 41.068 11.7274 40.6125 12.3958 40.6084C13.0643 40.6063 13.5692 41.0598 13.6313 41.7389C13.652 41.9687 13.6375 42.2026 13.6375 42.4366C13.6375 47.4223 13.6334 52.408 13.6396 57.3957C13.6416 58.698 14.2811 59.3751 15.4814 59.3813C16.6362 59.3875 17.3357 58.7456 17.3543 57.5862C17.3812 56.0375 17.3585 54.4867 17.3647 52.9359C17.3688 51.998 17.8034 51.4762 18.5733 51.4618C19.3762 51.4473 19.8315 51.9814 19.8357 52.9608C19.8398 54.4598 19.815 55.9588 19.8419 57.4557C19.875 59.1846 19.2396 60.5552 17.6855 61.3544C16.0485 62.1971 14.4032 62.1039 12.8449 61.077C12.7166 60.9921 12.5965 60.8927 12.4227 60.7602C11.3404 61.607 10.1152 62.017 8.70588 61.8576C6.53704 61.6091 4.97043 59.9237 4.96422 57.7456C4.95594 53.9215 4.96215 50.0994 4.96215 46.2752C4.96215 45.9937 4.96215 45.7142 4.96215 45.416C4.27921 45.416 3.63767 45.4864 3.01682 45.4036C1.2267 45.1613 0.00982957 43.7431 0.00569056 41.9418C-0.00258745 37.6269 -0.000516807 33.3121 0.0036222 28.9993C0.0077612 26.2622 1.77098 23.8894 4.40132 23.0985C5.33052 22.819 6.27629 22.5891 7.23446 22.3324C2.71674 17.2701 6.16453 10.9635 11.1603 9.99452C11.1603 8.8392 11.1603 7.66111 11.1603 6.48302C11.1603 3.99639 12.6752 2.47874 15.1544 2.47874C21.5596 2.47874 27.9647 2.47874 34.3719 2.47874C34.6533 2.47874 34.9368 2.47874 35.3404 2.47874C35.3404 2.04809 35.3259 1.64849 35.3424 1.24889C35.3735 0.507663 35.8536 0.0169638 36.5428 0.00040011C37.2692 -0.0161636 37.7762 0.482817 37.8093 1.26131C37.8259 1.64021 37.8114 2.02117 37.8114 2.47874C38.188 2.47874 38.4902 2.47874 38.7944 2.47874C45.2264 2.47874 51.6563 2.47874 58.0884 2.47874C60.4145 2.47874 61.9894 4.0378 61.9894 6.3443C61.9914 10.9676 61.9832 15.5931 61.9976 20.2164C61.9997 20.9183 61.7762 21.4421 61.085 21.6533C60.2365 21.9142 59.5225 21.2765 59.5205 20.2682C59.5142 16.8581 59.5184 13.4481 59.5184 10.038C59.5184 8.84956 59.5267 7.66112 59.5163 6.47267C59.506 5.43123 59.0362 4.95502 57.9932 4.95502C43.7094 4.95088 29.4278 4.95088 15.1441 4.95502C14.1425 4.95502 13.6561 5.43536 13.6437 6.41469C13.6272 7.599 13.6396 8.7833 13.6396 9.95105C18.714 11.1602 21.3443 16.5351 18.3994 21.2806C18.6747 21.1916 18.8527 21.1564 19.0141 21.0819C21.7955 19.7899 24.579 18.5021 27.35 17.1915C29.434 16.2038 31.5201 16.9161 32.4638 18.9721C33.3909 20.9908 32.5921 23.0302 30.5246 23.9826C27.1555 25.5375 23.7905 27.0965 20.4338 28.6805C20.1854 28.7985 19.8688 29.1194 19.8646 29.3492C19.8232 31.722 19.8398 34.0968 19.8398 36.5813C20.1523 36.5813 20.4234 36.5813 20.6966 36.5813C33.0432 36.5813 45.3878 36.5813 57.7345 36.5813C59.1231 36.5813 59.5184 36.1797 59.5205 34.778C59.5225 33.3576 59.5142 31.9352 59.5246 30.5149C59.5308 29.6619 60.0089 29.1442 60.758 29.1422C61.5072 29.1422 61.9873 29.6577 61.9935 30.5107C62.0039 32.0864 61.9997 33.662 61.9956 35.2376C61.9914 37.4509 60.4021 39.0514 58.198 39.0535C51.1721 39.0576 44.1482 39.0555 37.1222 39.0555C36.818 39.0555 36.5138 39.0555 36.1185 39.0555C36.1185 39.3951 36.1185 39.6684 36.1185 39.9438C36.1185 43.0433 36.1371 46.1448 36.104 49.2443C36.0978 49.8509 36.3006 50.2381 36.7456 50.6212C40.0878 53.5074 43.4114 56.4143 46.7433 59.315C46.8592 59.4165 46.9813 59.5138 47.0951 59.6173C47.8112 60.2633 47.9354 60.9859 47.4346 61.5718C46.9337 62.1578 46.1846 62.1453 45.4602 61.5159C42.6726 59.0935 39.8891 56.6648 37.1036 54.2403C36.8201 53.9939 36.5303 53.7558 36.1185 53.4059C36.1185 54.6482 36.1227 55.7228 36.1164 56.7973C36.1102 57.7456 35.6901 58.2591 34.9182 58.2777C34.1049 58.2984 33.6475 57.7725 33.6434 56.7932C33.6372 55.7207 33.6413 54.6482 33.6413 53.4039C31.9381 54.8842 30.3674 56.2487 28.7987 57.6131C27.3169 58.9009 25.8414 60.195 24.3555 61.4787C23.5815 62.1474 22.8302 62.1681 22.3232 61.5573C21.8079 60.9403 21.9507 60.2509 22.7454 59.5573C26.1911 56.553 29.6348 53.5467 33.0929 50.559C33.5027 50.205 33.6558 49.8447 33.6517 49.3043C33.6227 45.9233 33.6351 42.5422 33.6351 39.0845ZM12.3813 21.8666C14.9848 21.8748 17.1246 19.7795 17.1577 17.1935C17.1908 14.6324 14.9475 12.3797 12.3772 12.3921C9.83376 12.4045 7.64008 14.6096 7.63595 17.1563C7.63388 19.7216 9.78616 21.8583 12.3813 21.8666Z" fill="#373563"/>
<path d="M36.5759 12.39C32.7266 12.39 28.8794 12.3921 25.0301 12.388C24.1651 12.388 23.656 12.0091 23.567 11.3258C23.4697 10.5763 23.9767 9.95932 24.7569 9.92205C25.2971 9.89514 25.8414 9.91584 26.3836 9.91584C33.5896 9.91584 40.7977 9.90549 48.0037 9.93862C48.461 9.94069 49.0301 10.1602 49.3385 10.479C49.562 10.7088 49.6117 11.3983 49.4254 11.6612C49.175 12.0153 48.6266 12.3507 48.2003 12.359C45.5161 12.4211 42.8278 12.39 40.1416 12.39C38.9537 12.39 37.7638 12.39 36.5759 12.39Z" fill="#373563"/>
<path d="M43.6267 27.2725C40.5059 27.2725 37.385 27.2995 34.2642 27.2415C33.8338 27.2332 33.2626 26.9164 33.0308 26.5624C32.8404 26.2746 32.9335 25.641 33.1384 25.3035C33.3061 25.0261 33.8214 24.8211 34.1835 24.819C40.5286 24.7901 46.8737 24.7963 53.2188 24.8025C54.0549 24.8025 54.5702 25.318 54.5495 26.0717C54.5309 26.788 54.0259 27.2663 53.2209 27.2684C50.0235 27.2767 46.8241 27.2705 43.6267 27.2725Z" fill="#373563"/>
<path d="M44.2206 17.3509C41.3047 17.3509 38.3908 17.3529 35.4749 17.3509C34.4691 17.3509 33.9517 16.9326 33.9414 16.1314C33.9331 15.3177 34.4464 14.8787 35.4418 14.8787C41.2985 14.8767 47.1531 14.8767 53.0098 14.8787C54.0156 14.8787 54.5392 15.2991 54.5495 16.0982C54.5598 16.9202 54.0197 17.3509 52.9663 17.3529C50.0504 17.3509 47.1345 17.3509 44.2206 17.3509Z" fill="#373563"/>
<path d="M44.9222 22.3117C42.238 22.3117 39.556 22.3138 36.8718 22.3117C35.8598 22.3117 35.3445 21.8997 35.33 21.0984C35.3176 20.2557 35.8309 19.8396 36.9008 19.8375C42.267 19.8354 47.6332 19.8354 52.9994 19.8375C54.0094 19.8375 54.5329 20.2537 54.5474 21.0487C54.5619 21.8728 54.0197 22.3096 52.9705 22.3096C50.2884 22.3117 47.6063 22.3117 44.9222 22.3117Z" fill="#373563"/>
<path d="M60.727 24.1834C61.4285 24.1689 61.9645 24.672 61.9894 25.3677C62.0142 26.0613 61.5092 26.6141 60.8201 26.6473C60.0958 26.6825 59.5246 26.1462 59.5205 25.4215C59.5142 24.7238 60.0254 24.2 60.727 24.1834Z" fill="#373563"/>
<path d="M18.5898 48.9731C17.8965 48.9689 17.3709 48.4451 17.3626 47.7515C17.3543 47.0248 17.911 46.4844 18.6436 46.5092C19.3411 46.5341 19.846 47.0682 19.8315 47.7681C19.817 48.4575 19.2852 48.9772 18.5898 48.9731Z" fill="#373563"/>
</svg>
