<svg width="66" height="75" viewBox="0 0 66 75" fill="none" xmlns="http://www.w3.org/2000/svg">
<path d="M34.7916 74.9985C31.864 74.2164 28.9349 73.4436 26.012 72.6476C23.5048 71.9642 20.9961 71.2809 18.5044 70.5389C17.0137 70.0947 15.6307 70.1841 14.3017 71.0109C13.9921 71.2038 13.6672 71.3719 13.3361 71.5231C12.6523 71.8362 12.1164 72.154 12.1996 73.1104C12.2658 73.8801 11.6667 74.3382 10.8551 74.3228C7.68885 74.258 4.52257 74.1809 1.3563 74.0806C0.423049 74.0513 -0.0250968 73.5238 0.00108353 72.5427C0.108885 68.3223 0.230546 64.1034 0.347587 59.8845C0.423048 57.1526 0.50159 54.4207 0.57551 51.6889C0.604771 50.5967 1.07448 50.154 2.17405 50.1833C5.14474 50.262 8.11697 50.3391 11.0877 50.4132C12.446 50.4471 12.851 50.879 12.814 52.2612C12.8017 52.6977 12.8125 53.1343 12.8125 53.6603C13.0127 53.5862 13.2052 53.5291 13.3885 53.4474C18.0439 51.3619 22.7009 51.3696 27.2594 53.6541C29.3323 54.6938 31.4221 55.3154 33.7536 55.2969C36.213 55.2784 38.6725 55.4481 41.1319 55.5098C44.0379 55.5823 46.2524 56.8534 47.8202 59.2891C47.8848 59.3893 47.9557 59.4865 48.0404 59.6115C51.2883 58.0781 54.5115 56.534 57.7533 55.0347C60.0294 53.9811 62.2162 54.2341 64.2152 55.735C64.7496 56.1361 65.2023 56.679 65.5966 57.2267C66.2603 58.146 66.1017 58.8062 65.1453 59.4279C61.9591 61.4965 58.7697 63.5604 55.5818 65.6243C51.9027 68.006 48.2082 70.3646 44.5522 72.7803C42.8028 73.9372 40.8747 74.5141 38.8434 74.8473C38.6586 74.8781 38.4815 74.9491 38.3013 75C37.1324 74.9985 35.962 74.9985 34.7916 74.9985ZM12.4136 69.1938C12.7601 69.0133 13.0589 68.8668 13.3484 68.7033C15.1164 67.7068 16.9659 67.5201 18.914 68.0816C21.6691 68.8745 24.4258 69.6581 27.1932 70.4032C29.842 71.1158 32.477 71.9504 35.172 72.4039C37.8362 72.8512 40.5005 72.3838 42.8259 70.9045C48.3746 67.3751 53.8755 63.7702 59.3934 60.1945C60.5515 59.4433 61.7065 58.6875 62.8723 57.927C61.8574 56.8827 60.2758 56.6112 58.8605 57.2575C57.0248 58.0967 55.2061 58.9728 53.3812 59.8367C51.8689 60.5524 50.3596 61.2712 48.8412 61.9916C48.8828 62.3063 48.932 62.5685 48.9521 62.8338C49.0583 64.3317 48.6302 64.7867 47.1425 64.7512C42.7088 64.6433 38.2751 64.5337 33.8414 64.4165C33.478 64.4073 33.1038 64.3934 32.7557 64.2993C32.169 64.1404 31.864 63.6992 31.8856 63.0992C31.9072 62.5037 32.2275 62.0872 32.8281 61.9561C33.0622 61.9052 33.3117 61.9052 33.5534 61.9114C37.5975 62.024 41.6401 62.1428 45.6842 62.2554C45.8905 62.2616 46.0969 62.2353 46.3109 62.223C45.8228 59.8367 43.7591 58.0735 41.4014 58.001C39.3547 57.9378 37.308 57.9023 35.2629 57.8329C33.8753 57.7851 32.4862 57.7465 31.1048 57.62C29.2244 57.4488 27.6028 56.5263 25.9211 55.7551C21.5921 53.7682 17.3309 53.9765 13.2083 56.3782C12.9557 56.5248 12.7093 56.9181 12.697 57.2081C12.5738 59.9632 12.4891 62.7197 12.4182 65.4762C12.389 66.6841 12.4136 67.8934 12.4136 69.1938ZM2.51593 71.6696C4.96456 71.6696 7.35313 71.6696 9.77557 71.6696C9.94497 65.4346 10.1159 59.1842 10.2884 52.8257C7.81513 52.8257 5.46507 52.8257 3.03492 52.8257C2.86398 59.0422 2.69149 65.2942 2.51593 71.6696Z" fill="#373563"/>
<path d="M33.7937 52.0622C24.0315 52.1023 15.9834 44.1226 15.9372 34.3567C15.8894 24.4396 23.8421 16.4121 33.7413 16.3828C43.5605 16.3535 51.5716 24.327 51.5978 34.1531C51.6225 44.0208 43.6683 52.0221 33.7937 52.0622ZM33.7875 49.5601C42.2622 49.5463 49.1245 42.6788 49.1215 34.2132C49.1199 25.7477 42.2499 18.8771 33.7829 18.8725C25.2851 18.8679 18.3858 25.7724 18.4074 34.2564C18.432 42.7189 25.3205 49.5756 33.7875 49.5601Z" fill="#373563"/>
<path d="M32.5124 7.03031C32.5124 5.20393 32.5139 3.376 32.5124 1.54961C32.5124 0.9295 32.6494 0.383435 33.2824 0.104232C33.9446 -0.187312 34.7223 0.155136 34.9225 0.852372C35.001 1.12849 35.0118 1.42929 35.0134 1.71929C35.0195 5.30111 35.0165 8.88138 35.0165 12.4632C35.0165 12.5851 35.0195 12.7069 35.0103 12.8288C34.9472 13.6433 34.4436 14.1801 33.7536 14.1708C33.0622 14.1616 32.537 13.6263 32.5247 12.8041C32.4985 10.8805 32.517 8.95542 32.517 7.03031C32.5155 7.03031 32.5139 7.03031 32.5124 7.03031Z" fill="#373563"/>
<path d="M44.2242 10.1848C44.2242 11.0363 44.2427 11.8878 44.2196 12.7393C44.1965 13.6109 43.696 14.1662 42.983 14.1708C42.2684 14.1739 41.7432 13.617 41.7325 12.7517C41.7094 11.024 41.7109 9.29633 41.7325 7.56867C41.7432 6.67552 42.2268 6.16494 42.9722 6.16031C43.7252 6.15722 44.1934 6.65701 44.2196 7.55632C44.2427 8.4325 44.2242 9.30867 44.2242 10.1848Z" fill="#373563"/>
<path d="M25.8041 10.1956C25.8041 11.0471 25.8241 11.8986 25.7979 12.7501C25.7733 13.617 25.2604 14.1739 24.5474 14.1708C23.8329 14.1677 23.32 13.6124 23.3092 12.7409C23.2877 11.0132 23.2877 9.28553 23.3092 7.55941C23.3216 6.66164 23.802 6.15877 24.5567 6.16185C25.3036 6.16494 25.7733 6.67244 25.7979 7.56867C25.8226 8.44329 25.8041 9.31947 25.8041 10.1956Z" fill="#373563"/>
</svg>
