<svg width="34" height="29" viewBox="0 0 34 29" fill="none" xmlns="http://www.w3.org/2000/svg">
<path d="M18.1009 22.7564C16.7976 24.0273 15.5155 25.3078 14.1936 26.5434C13.8451 26.8696 13.369 27.0517 12.9514 27.3005C12.8955 27.2475 12.8397 27.1958 12.7852 27.1428C12.8184 26.4999 12.8437 25.8556 12.8862 25.2126C13.0126 23.3368 13.123 21.4596 13.2985 19.5893C13.3291 19.2603 13.5791 18.8892 13.8331 18.6554C18.3722 14.4648 22.9273 10.2931 27.4757 6.11198C27.7045 5.90129 27.8986 5.65118 28.1659 5.35622C27.4943 5.03271 27.0874 5.32631 26.6831 5.58458C23.2651 7.76758 19.8498 9.95467 16.4345 12.1404C14.0885 13.641 11.7372 15.1349 9.40177 16.6532C9.04668 16.8843 8.74744 16.9115 8.35777 16.7851C6.08091 16.0443 3.7934 15.3388 1.51787 14.5953C0.882158 14.3873 0.0216852 14.2717 0.000406102 13.41C-0.020873 12.5523 0.798372 12.2804 1.45004 12.0208C4.83076 10.6751 8.21945 9.35251 11.6082 8.02585C18.198 5.44593 24.7892 2.86737 31.3817 0.291529C31.6078 0.203176 31.8379 0.114823 32.0733 0.0590921C33.116 -0.188297 33.8967 0.354056 33.9884 1.44284C34.027 1.90772 33.9645 2.39434 33.8687 2.85514C32.189 10.9551 30.4973 19.0523 28.8043 27.1496C28.7445 27.435 28.6554 27.7205 28.5397 27.9869C28.1553 28.8704 27.481 29.198 26.594 28.8827C26.2056 28.7454 25.8359 28.5116 25.4994 28.2615C23.1507 26.5189 20.814 24.76 18.472 23.0079C18.3616 22.929 18.2499 22.8583 18.1009 22.7564Z" fill="#373563"/>
</svg>
