<svg width="28" height="28" viewBox="0 0 28 28" fill="none" xmlns="http://www.w3.org/2000/svg">
<path d="M13.1267 0.000488281C13.7097 0.000488281 14.2934 0.000488281 14.8764 0.000488281C15.3534 0.0624658 15.8327 0.109132 16.3061 0.190067C18.9353 0.639222 21.2621 1.73951 23.2536 3.51206C25.6893 5.67909 27.2132 8.3711 27.7852 11.5888C27.8758 12.0978 27.9291 12.6133 28 13.1259C28 13.7092 28 14.2925 28 14.8758C27.9847 14.9458 27.9598 15.0158 27.9547 15.0866C27.7896 17.266 27.1591 19.3047 26.0158 21.1633C23.792 24.7769 20.5908 26.9994 16.4113 27.7861C15.9043 27.8816 15.3878 27.9305 14.8757 28.0005C14.2927 28.0005 13.709 28.0005 13.126 28.0005C13.0376 27.9837 12.9507 27.964 12.8615 27.9509C12.2764 27.8656 11.6839 27.8167 11.1075 27.6921C7.71553 26.9571 4.94893 25.2064 2.85591 22.4458C0.534946 19.3849 -0.366554 15.9141 0.133874 12.108C0.535677 9.04994 1.85213 6.41261 4.0131 4.21132C6.10978 2.07564 8.63675 0.73547 11.5889 0.216316C12.0988 0.125902 12.6139 0.0712156 13.1267 0.000488281ZM26.1364 13.9979C26.1342 7.31165 20.6718 1.85398 13.9932 1.86419C7.31446 1.8744 1.87916 7.30728 1.86674 13.9877C1.85432 20.6645 7.31153 26.1302 13.9968 26.1361C20.677 26.1412 26.1386 20.6806 26.1364 13.9979Z" fill="#373563"/>
<path d="M13.0705 10.264C13.0705 9.02442 13.0683 7.7856 13.0719 6.54605C13.0734 6.1195 13.3262 5.77388 13.7053 5.6492C14.0801 5.52597 14.5206 5.63461 14.7259 5.96856C14.8472 6.16543 14.9231 6.42428 14.9246 6.65615C14.9392 8.86109 14.9363 11.0668 14.929 13.2717C14.9283 13.4737 14.986 13.6006 15.1467 13.7274C16.5041 14.8015 17.8541 15.885 19.2042 16.9685C19.5709 17.2631 19.6878 17.6648 19.5366 18.0622C19.3035 18.674 18.5934 18.8555 18.0477 18.4282C17.3091 17.8493 16.5808 17.258 15.848 16.671C15.0656 16.0447 14.2861 15.4154 13.4993 14.7942C13.2056 14.5623 13.0639 14.2779 13.0668 13.9002C13.0748 12.6884 13.0697 11.4765 13.0705 10.264Z" fill="#373563"/>
</svg>
