<svg width="62" height="48" viewBox="0 0 62 48" fill="none" xmlns="http://www.w3.org/2000/svg">
<path d="M18.271 48.0004C16.6288 47.996 15.5799 47.5079 14.7109 46.6223C10.244 42.0727 5.78736 37.5128 1.32052 32.9617C-0.465352 31.143 -0.427634 28.2652 1.35968 26.448C7.91125 19.7846 14.444 13.1033 20.9839 6.42801C22.6639 4.7132 24.3221 2.97762 26.0267 1.2895C27.8256 -0.492066 30.5646 -0.407513 32.3215 1.42301C33.2471 2.38871 34.1886 3.33808 35.1272 4.29191C35.6872 4.86006 35.6945 5.29024 35.1446 5.84949C34.7602 6.24111 34.3714 6.63124 33.9956 7.03325C32.3752 8.76586 32.3984 11.5739 34.0435 13.2502C35.6901 14.9264 38.4277 14.9428 40.1308 13.2784C40.5501 12.869 40.9505 12.4388 41.3669 12.0279C41.8137 11.5858 42.2591 11.5769 42.7001 12.0219C43.7316 13.0618 44.7761 14.0928 45.7742 15.1653C47.4774 16.9973 47.3831 19.7727 45.6321 21.5558C37.4441 29.8999 29.2691 38.2545 21.084 46.6016C20.202 47.5005 19.1415 48.0064 18.271 48.0004ZM42.0183 13.9563C39.0892 17.3696 34.8908 16.6353 32.8017 14.5393C30.8939 12.6257 29.8451 8.24222 33.3965 5.03213C32.7204 4.35718 32.0487 3.68371 31.3741 3.01025C31.1928 2.82927 31.0144 2.64385 30.8243 2.47326C29.8973 1.64255 28.345 1.55651 27.476 2.41244C25.9629 3.90178 24.5237 5.46825 22.9569 7.10148C23.0556 7.16824 23.2268 7.2513 23.3559 7.37888C23.9405 7.96037 24.5237 8.54335 25.0866 9.1471C25.4609 9.5491 25.4435 10.0876 25.0866 10.4362C24.7457 10.7699 24.2524 10.7699 23.8607 10.4213C23.6968 10.276 23.5488 10.1113 23.3965 9.95407C22.8452 9.37999 22.2939 8.80443 21.7281 8.21552C19.8378 10.1469 18.0186 12.0071 16.1994 13.8673C11.6368 18.5311 7.06837 23.1875 2.51738 27.8617C1.44673 28.9609 1.45543 30.474 2.50142 31.5866C3.50534 32.6546 4.53972 33.6945 5.56684 34.7403C9.05734 38.299 12.5478 41.8562 16.0412 45.4104C16.6781 46.0587 17.4513 46.2574 18.3349 46.1343C19.0907 46.029 19.6057 45.5558 20.1106 45.041C26.2791 38.744 32.4477 32.4484 38.6163 26.1514C38.7164 26.049 38.8078 25.9392 38.9354 25.7983C38.2666 25.1204 37.608 24.4603 36.9552 23.7927C36.4721 23.2973 36.4111 22.7781 36.7767 22.382C37.1597 21.9667 37.6979 22.0156 38.197 22.5244C38.8513 23.1905 39.4969 23.864 40.0641 24.4499C41.6396 22.8997 43.2224 21.4297 44.6978 19.8558C45.5523 18.9435 45.4362 17.4423 44.5658 16.5122C43.7563 15.6429 42.8902 14.8256 42.0183 13.9563Z" fill="#373563"/>
<path d="M11.3901 30.9843C10.9491 30.9116 10.6183 30.7158 10.5458 30.2411C10.4689 29.7308 10.6749 29.3644 11.1667 29.2205C12.0531 28.9594 12.9439 28.7206 13.8346 28.4759C18.4103 27.2224 22.9859 25.9704 27.5616 24.7169C28.4103 24.484 28.8948 24.6502 29.0428 25.2272C29.198 25.8339 28.8948 26.2137 28.0403 26.448C22.6639 27.924 17.2874 29.3971 11.9095 30.8686C11.7369 30.9161 11.557 30.9472 11.3901 30.9843Z" fill="#373563"/>
<path d="M19.0849 38.5511C17.0611 38.5511 15.561 37.0559 15.5813 35.0577C15.6016 33.0774 17.0959 31.5999 19.0791 31.5984C21.0855 31.5969 22.6029 33.1189 22.5797 35.1082C22.5565 37.1063 21.0913 38.5511 19.0849 38.5511ZM20.7968 35.1082C20.804 34.0653 20.1875 33.4393 19.1357 33.423C18.0331 33.4052 17.3774 34.0134 17.3687 35.0562C17.3614 36.0931 18.0418 36.774 19.0849 36.7711C20.1091 36.7696 20.7881 36.108 20.7968 35.1082Z" fill="#373563"/>
<path d="M20.5443 17.0047C22.5478 17.0106 24.0189 18.4733 24.0189 20.4625C24.0189 22.4666 22.5072 23.9544 20.4936 23.9352C18.4785 23.9159 17.035 22.4666 17.0335 20.4655C17.0306 18.4377 18.4901 16.9988 20.5443 17.0047ZM20.5081 22.1299C21.586 22.1328 22.2446 21.4905 22.2374 20.4447C22.2301 19.4404 21.557 18.7863 20.5269 18.7818C19.4969 18.7774 18.8092 19.4301 18.8005 20.4254C18.7904 21.4816 19.4374 22.1269 20.5081 22.1299Z" fill="#373563"/>
<path d="M26.9044 11.3055C27.2105 11.4924 27.4702 11.5932 27.6515 11.7727C28.5234 12.6346 29.3779 13.5128 30.231 14.3939C30.6749 14.8523 30.7039 15.3833 30.3311 15.7631C29.9582 16.1428 29.4374 16.1117 28.9891 15.6607C28.1129 14.7781 27.2468 13.8851 26.3749 12.9965C26.0731 12.688 25.9658 12.2979 26.1732 11.9374C26.3212 11.6837 26.6317 11.5309 26.9044 11.3055Z" fill="#373563"/>
<path d="M35.9019 20.5515C35.7177 20.7874 35.5726 21.1434 35.326 21.2457C35.0721 21.3526 34.6108 21.3333 34.428 21.1612C33.4168 20.2103 32.4448 19.2135 31.5018 18.1914C31.1885 17.8517 31.2291 17.3993 31.5598 17.0344C31.866 16.6976 32.3984 16.6383 32.7364 16.9691C33.7142 17.9303 34.6688 18.9168 35.6176 19.9092C35.7438 20.0442 35.7786 20.2667 35.9019 20.5515Z" fill="#373563"/>
<circle cx="45.5" cy="19.5005" r="16.5" fill="#FFDB68"/>
<path d="M54.436 13.0005C55.3849 13.9494 55.3849 15.4877 54.436 16.4365L45.2262 26.2988C44.2774 27.2477 42.7391 27.2477 41.7903 26.2988C40.8414 25.35 40.8414 23.8117 41.7903 22.8629L51.0001 13.0005C51.9489 12.0517 53.4872 12.0517 54.436 13.0005Z" fill="white"/>
<path d="M36.7181 17.7907C35.7693 18.7395 35.7693 20.2779 36.7181 21.2267L41.7903 26.2988C42.7391 27.2477 44.2774 27.2477 45.2262 26.2988C46.1751 25.35 46.1751 23.8117 45.2262 22.8629L40.1541 17.7907C39.2053 16.8419 37.6669 16.8419 36.7181 17.7907Z" fill="white"/>
</svg>
