<svg width="60" height="54" viewBox="0 0 60 54" fill="none" xmlns="http://www.w3.org/2000/svg">
<path d="M0.0011956 11.2004C0.383999 10.2887 1.0862 9.97678 2.05278 10.0019C3.66175 10.0437 5.27311 10.0114 6.88328 10.015C7.08904 10.015 7.34145 9.9732 7.49098 10.0724C7.71827 10.2217 7.95513 10.45 8.04126 10.6961C8.1561 11.0212 7.97188 11.3295 7.63932 11.4633C7.43954 11.5434 7.20507 11.5637 6.98735 11.5649C5.36164 11.5732 3.73472 11.5697 2.10901 11.5697C1.93674 11.5697 1.76448 11.5697 1.56232 11.5697C1.56232 14.3204 1.56232 17.0282 1.56232 19.767C4.29338 19.767 7.01128 19.767 9.76866 19.767C9.76866 17.9925 9.76866 16.2228 9.76866 14.3527C9.61314 14.4973 9.50428 14.5929 9.40141 14.6945C8.40851 15.6827 7.4192 16.6745 6.42392 17.6603C5.84612 18.2327 5.50519 18.2315 4.925 17.6579C4.23476 16.9744 3.5493 16.2873 2.86145 15.6014C2.79446 15.5345 2.72508 15.4664 2.66766 15.3911C2.39132 15.0338 2.40448 14.5893 2.69637 14.3133C2.99783 14.0289 3.43087 14.0193 3.773 14.3372C4.27304 14.8032 4.75274 15.2943 5.23005 15.7831C5.36164 15.9181 5.45973 16.0878 5.59371 16.2706C5.80904 16.0698 5.93584 15.9575 6.05547 15.838C7.31872 14.5797 8.58436 13.3238 9.84163 12.0596C10.1431 11.7561 10.4649 11.5386 10.8979 11.7226C11.3118 11.8995 11.3764 12.2747 11.3764 12.6786C11.3728 14.9681 11.3788 17.2564 11.3728 19.546C11.3705 20.6907 10.752 21.3372 9.61075 21.3432C6.99573 21.3575 4.3819 21.3384 1.76688 21.3527C0.888821 21.3575 0.340934 20.9297 0 20.1673C0.00119626 17.1788 0.0011956 14.1902 0.0011956 11.2004Z" fill="#373563"/>
<path d="M0.0011956 27.5163C0.386391 26.6069 1.0874 26.2974 2.05398 26.3237C3.66295 26.3667 5.27431 26.3345 6.88448 26.3369C7.07468 26.3369 7.26848 26.3416 7.45629 26.3715C7.81517 26.4277 8.01973 26.6547 8.0604 27.0084C8.10347 27.3801 7.95872 27.6728 7.59745 27.7995C7.40844 27.8664 7.19311 27.8819 6.98855 27.8831C5.36283 27.8891 3.73592 27.8867 2.1102 27.8867C1.93794 27.8867 1.76568 27.8867 1.56471 27.8867C1.56471 30.6375 1.56471 33.3453 1.56471 36.0829C4.29577 36.0829 7.01367 36.0829 9.77105 36.0829C9.77105 34.3072 9.77105 32.5387 9.77105 30.6698C9.61554 30.8155 9.50548 30.9123 9.40141 31.0151C8.40851 32.0033 7.4192 32.9951 6.42392 33.981C5.84851 34.5522 5.50519 34.5486 4.925 33.9738C4.21203 33.2676 3.49906 32.5626 2.79566 31.848C2.39013 31.4369 2.36142 30.947 2.69996 30.6291C3.02534 30.3244 3.46556 30.3471 3.84837 30.72C4.45009 31.3079 5.03745 31.9101 5.65711 32.5339C5.81263 32.3881 5.94063 32.2746 6.06025 32.1551C7.3235 30.8968 8.58915 29.6409 9.84642 28.3766C10.1479 28.0731 10.4709 27.8557 10.9027 28.0421C11.3154 28.2189 11.38 28.5941 11.3788 28.9992C11.3752 31.2876 11.3812 33.5771 11.3752 35.8654C11.3728 37.0102 10.7532 37.6531 9.61195 37.659C6.99692 37.6722 4.3831 37.6531 1.76807 37.6686C0.886428 37.6746 0.344522 37.242 0.00239212 36.482C0.00119586 33.4958 0.0011956 30.5061 0.0011956 27.5163Z" fill="#373563"/>
<path d="M0.0011956 43.8322C0.386391 42.9204 1.09218 42.6253 2.05637 42.6396C4.49554 42.6754 6.93592 42.6503 9.37629 42.6515C10.8022 42.6527 11.3764 43.2263 11.3764 44.6471C11.3764 47.1278 11.3776 49.6074 11.3764 52.0881C11.3752 53.3727 10.7663 53.9845 9.46959 53.9869C6.99812 53.9916 4.52545 53.9641 2.05398 54C1.0874 54.0143 0.385195 53.7132 0.0011956 52.8015C0.0011956 49.8117 0.0011956 46.8219 0.0011956 43.8322ZM1.5659 44.2313C1.5659 46.9809 1.5659 49.6886 1.5659 52.4059C4.31611 52.4059 7.03401 52.4059 9.78062 52.4059C9.78062 49.6731 9.78062 46.9653 9.78062 44.2313C7.0364 44.2313 4.3185 44.2313 1.5659 44.2313Z" fill="#373563"/>
<path d="M49 15.9707C48.7332 16.3674 48.3552 16.4546 47.8911 16.4534C37.2121 16.4439 26.533 16.4451 15.8528 16.4451C15.6937 16.4451 15.5322 16.4546 15.3755 16.4307C14.9927 16.3722 14.7236 16.0412 14.7427 15.6576C14.7618 15.2537 14.9891 15.0123 15.3767 14.9358C15.531 14.9048 15.6949 14.9203 15.854 14.9203C26.533 14.9203 37.2121 14.9215 47.8923 14.9119C48.3564 14.9119 48.7356 14.9968 49 15.3971C49 15.5895 49 15.7795 49 15.9707Z" fill="#373563"/>
<path d="M49 32.2865C48.732 32.6833 48.3552 32.7717 47.8899 32.7717C37.2037 32.7621 26.5175 32.7645 15.8313 32.7633C15.6722 32.7633 15.5059 32.78 15.3552 32.7442C14.9736 32.6522 14.7439 32.406 14.7439 32.0009C14.7439 31.5947 14.9736 31.3497 15.3552 31.2577C15.5071 31.2206 15.6722 31.2386 15.8313 31.2386C26.5175 31.2374 37.2037 31.2398 47.8899 31.2302C48.3552 31.2302 48.732 31.3186 49 31.7153C49 31.9053 49 32.0965 49 32.2865Z" fill="#373563"/>
<path d="M49 48.6024C48.7464 48.9824 48.3899 49.0876 47.9401 49.0876C37.2288 49.078 26.5175 49.0804 15.8062 49.0804C15.6626 49.0804 15.5155 49.0935 15.3767 49.0649C14.9879 48.9848 14.7618 48.7458 14.7427 48.3419C14.7248 47.9583 14.9939 47.6273 15.3755 47.5688C15.531 47.5449 15.6937 47.5544 15.8528 47.5544C26.5318 47.5544 37.2109 47.5568 47.8911 47.5461C48.3552 47.5461 48.7332 47.6333 49 48.0288C49 48.2212 49 48.4124 49 48.6024Z" fill="#373563"/>
<path d="M27.77 12.3703C23.8486 12.3703 19.9273 12.3703 16.006 12.3691C15.8146 12.3691 15.6232 12.3703 15.4329 12.35C15.0083 12.3034 14.7666 12.056 14.7439 11.6342C14.7212 11.2028 14.9712 10.9543 15.3695 10.8551C15.5203 10.8168 15.6866 10.8276 15.8445 10.8276C23.7984 10.8264 31.7535 10.8264 39.7075 10.83C39.9264 10.83 40.1596 10.8467 40.3606 10.9232C40.6956 11.0499 40.8367 11.3378 40.7961 11.688C40.7554 12.0357 40.558 12.2771 40.1991 12.3368C39.997 12.3715 39.7864 12.3691 39.5795 12.3691C35.645 12.3703 31.7081 12.3703 27.77 12.3703Z" fill="#373563"/>
<path d="M27.7652 28.6861C23.8439 28.6861 19.9225 28.6861 16 28.6849C15.8086 28.6849 15.6172 28.6849 15.427 28.6658C15.0226 28.6252 14.7858 28.3898 14.7463 27.9931C14.7044 27.5677 14.9281 27.2952 15.3277 27.1829C15.4916 27.1363 15.6746 27.1435 15.8492 27.1435C23.8044 27.1423 31.7583 27.1411 39.7134 27.1447C39.9024 27.1447 40.0998 27.153 40.2781 27.2044C40.6477 27.3119 40.8272 27.5987 40.802 27.9632C40.7757 28.3456 40.5592 28.6144 40.1477 28.6622C39.9587 28.6838 39.7661 28.6849 39.5747 28.6849C35.6402 28.6861 31.7033 28.6861 27.7652 28.6861Z" fill="#373563"/>
<path d="M27.7628 45.008C23.8415 45.008 19.9201 45.008 15.9976 45.0068C15.7906 45.0068 15.5825 45.0044 15.3779 44.9781C15.0167 44.9327 14.8073 44.7045 14.7511 44.3579C14.6913 43.9851 14.8492 43.6935 15.1985 43.5537C15.3839 43.4796 15.6016 43.4641 15.805 43.4641C23.7912 43.4593 31.7786 43.4605 39.7649 43.4641C39.9527 43.4641 40.1501 43.4844 40.3259 43.543C40.6728 43.6577 40.8272 43.9433 40.8032 44.285C40.7781 44.6471 40.5807 44.9148 40.1943 44.9745C39.991 45.0056 39.7816 45.008 39.5747 45.008C35.6378 45.008 31.7009 45.008 27.7628 45.008Z" fill="#373563"/>
<path d="M22.8234 36.8584C20.4943 36.8584 18.1664 36.8596 15.8373 36.8548C15.6327 36.8548 15.4162 36.8453 15.2284 36.7784C14.8731 36.6517 14.7032 36.3685 14.7487 35.9921C14.7941 35.6193 15.0131 35.3862 15.3959 35.3384C15.5693 35.3169 15.7452 35.3145 15.921 35.3145C20.547 35.3133 25.1717 35.3133 29.7976 35.3133C29.9089 35.3133 30.0213 35.3098 30.1326 35.3157C30.6673 35.3444 30.9963 35.6324 30.9999 36.0733C31.0035 36.5262 30.6482 36.8441 30.0979 36.8536C29.4603 36.8644 28.8215 36.856 28.1839 36.856C26.3955 36.8584 24.6095 36.8584 22.8234 36.8584Z" fill="#373563"/>
<path d="M22.8725 51.6304C25.1215 51.6304 27.3704 51.6304 29.6182 51.6304C29.7295 51.6304 29.8419 51.6292 29.9531 51.6304C30.641 51.6388 31.0023 51.9088 30.9975 52.4059C30.9915 52.8971 30.6147 53.1731 29.9364 53.1731C25.216 53.1743 20.4955 53.1743 15.7739 53.1707C15.5861 53.1707 15.3851 53.1564 15.2128 53.0895C14.8611 52.9544 14.6961 52.67 14.7475 52.2948C14.7953 51.9435 15.0059 51.7176 15.3624 51.6603C15.5502 51.6304 15.744 51.6316 15.9342 51.6304C18.2477 51.6304 20.5601 51.6304 22.8725 51.6304Z" fill="#373563"/>
<path d="M22.839 20.5414C20.5099 20.5414 18.182 20.5425 15.8528 20.5378C15.6483 20.5378 15.433 20.5282 15.2427 20.4649C14.8863 20.3442 14.708 20.0682 14.7463 19.6905C14.7846 19.3165 14.9975 19.0787 15.3791 19.0238C15.5514 18.9987 15.7284 18.9951 15.9031 18.9951C20.5446 18.9939 25.1861 18.9939 29.8275 18.9939C30.6135 18.9939 30.9819 19.2317 30.9987 19.7407C31.0154 20.2653 30.6123 20.5414 29.8252 20.5414C27.4972 20.5414 25.1681 20.5414 22.839 20.5414Z" fill="#373563"/>
<circle cx="43.5" cy="16.5005" r="16.5" fill="#FFDB68"/>
<path d="M52.436 10.0005C53.3849 10.9494 53.3849 12.4877 52.436 13.4365L43.2262 23.2988C42.2774 24.2477 40.7391 24.2477 39.7903 23.2988C38.8414 22.35 38.8414 20.8117 39.7903 19.8629L49.0001 10.0005C49.9489 9.05171 51.4872 9.05171 52.436 10.0005Z" fill="white"/>
<path d="M34.7181 14.7907C33.7693 15.7395 33.7693 17.2779 34.7181 18.2267L39.7903 23.2988C40.7391 24.2477 42.2774 24.2477 43.2262 23.2988C44.1751 22.35 44.1751 20.8117 43.2262 19.8629L38.1541 14.7907C37.2053 13.8419 35.6669 13.8419 34.7181 14.7907Z" fill="white"/>
</svg>
