<svg width="12" height="9" viewBox="0 0 12 9" fill="none" xmlns="http://www.w3.org/2000/svg">
<path d="M10.8689 0.615144C11.3995 1.14573 11.3995 2.00598 10.8689 2.53657L5.71874 8.05163C5.18815 8.58222 4.3279 8.58222 3.79732 8.05163C3.26673 7.52105 3.26673 6.6608 3.79732 6.13021L8.94749 0.615144C9.47807 0.0845577 10.3383 0.084558 10.8689 0.615144Z" fill="#373563"/>
<path d="M0.960929 3.29383C0.430342 3.82442 0.430343 4.68467 0.96093 5.21525L3.79732 8.05163C4.3279 8.58222 5.18815 8.58222 5.71874 8.05163C6.24933 7.52105 6.24933 6.66081 5.71874 6.13022L2.88235 3.29383C2.35177 2.76325 1.49152 2.76324 0.960929 3.29383Z" fill="#373563"/>
</svg>
