<svg width="26" height="29" viewBox="0 0 26 29" fill="none" xmlns="http://www.w3.org/2000/svg">
<path d="M13.0203 0.0585807C14.2983 0.0585807 15.5866 -0.0425173 16.8533 0.0784214C20.2318 0.40061 22.7924 2.10698 24.5652 4.99534C25.4545 6.44471 25.9352 8.03864 25.9625 9.74596C25.9897 11.4665 26.0348 13.1908 25.9549 14.9076C25.785 18.5575 24.0648 21.3268 20.9877 23.2363C19.3952 24.2246 17.6308 24.6507 15.7603 24.6441C14.211 24.6384 12.6617 24.6365 11.1123 24.6526C10.9377 24.6545 10.7217 24.7424 10.5968 24.8652C9.30758 26.1379 8.03336 27.4247 6.75728 28.7107C6.56854 28.9006 6.3845 29.0839 6.08684 28.9592C5.79293 28.8363 5.77415 28.5793 5.77415 28.3091C5.77603 26.8588 5.77133 25.4094 5.77885 23.9591C5.77979 23.7437 5.71312 23.6322 5.51687 23.5264C2.33838 21.802 0.522375 19.1263 0.0660255 15.5331C-0.0194227 14.8585 0.0143812 14.1678 0.0134422 13.4847C0.0115642 12.1997 -0.0297516 10.9119 0.0425507 9.63069C0.233166 6.24063 1.7872 3.59887 4.56473 1.69314C6.25679 0.531943 8.15637 0.000944834 10.2034 0C11.1424 0 12.0814 0 13.0203 0C13.0203 0.0188967 13.0203 0.0387392 13.0203 0.0585807ZM16.597 21.015C17.1932 21.0254 17.7407 20.8903 18.1839 20.467C18.6684 20.004 19.1529 19.5401 19.6196 19.0582C20.2158 18.4432 20.2008 17.5947 19.6064 16.9777C18.9285 16.2748 18.258 15.5652 17.5726 14.8698C16.796 14.0818 15.6617 14.2991 15.211 15.311C14.8457 16.1302 14.0561 16.4977 13.2419 16.1472C11.5846 15.432 10.3912 14.2169 9.70853 12.5436C9.31697 11.5837 9.65219 10.9185 10.6147 10.5198C11.5142 10.1466 11.8062 9.01938 11.1536 8.2947C10.4531 7.5171 9.72449 6.76312 8.97799 6.02993C8.36013 5.42335 7.48406 5.4583 6.86526 6.06772C6.42957 6.49762 5.97228 6.90957 5.58072 7.37632C5.34034 7.6626 5.13376 8.01881 5.03798 8.37784C4.8145 9.21402 5.007 10.0379 5.28118 10.8354C5.89622 12.622 6.93475 14.1555 8.15168 15.5737C9.72637 17.4095 11.518 18.9883 13.6636 20.1269C14.5819 20.6125 15.5415 20.98 16.597 21.015ZM21.06 10.8013C21.0168 10.3714 21.0036 10.0048 20.9407 9.6477C20.3135 6.06016 17.1341 3.81429 13.9913 4.02121C13.5856 4.04767 13.3556 4.22341 13.364 4.52953C13.3725 4.80448 13.6006 4.94243 14.0176 4.95943C14.4382 4.97644 14.8664 4.97455 15.2767 5.05392C18.5679 5.68696 20.5952 8.72176 19.9501 12.0277C19.8797 12.3896 19.982 12.605 20.2534 12.6683C20.5614 12.7401 20.8168 12.5682 20.8759 12.2082C20.9558 11.7216 21.0055 11.2303 21.06 10.8013ZM19.0618 10.6369C19.0355 8.69625 17.8571 6.98705 16.0589 6.25952C15.3613 5.97702 14.6364 5.88254 13.8908 5.93545C13.5274 5.96096 13.3105 6.18866 13.3415 6.48723C13.3725 6.78863 13.626 6.91618 13.9913 6.90862C14.3847 6.90012 14.7913 6.9124 15.1725 7.00027C17.0683 7.43679 18.2702 9.12899 18.0947 11.0706C18.0637 11.4108 18.2364 11.6592 18.5228 11.6885C18.8111 11.7169 19.0299 11.5109 19.059 11.166C19.074 10.9913 19.0618 10.8136 19.0618 10.6369ZM17.1622 10.635C17.1444 9.18473 15.8495 7.89503 14.4307 7.91393C14.0946 7.91865 13.8814 8.09345 13.8767 8.36839C13.8729 8.632 14.0673 8.8153 14.3809 8.84176C15.4542 8.93246 16.1472 9.61935 16.2392 10.6832C16.2683 11.0177 16.4589 11.2369 16.7181 11.2322C16.997 11.2275 17.1669 10.9998 17.1622 10.635Z" fill="#373563"/>
</svg>
