<svg width="31" height="31" viewBox="0 0 31 31" fill="none" xmlns="http://www.w3.org/2000/svg">
<path d="M1.0919 30.2901C1.25762 29.7737 1.39069 29.3407 1.53464 28.9126C1.95681 27.6548 2.36931 26.3922 2.81688 25.1429C2.96083 24.7414 2.90156 24.4475 2.67414 24.0883C-0.570184 18.9665 -0.893165 13.65 1.87334 8.25854C4.85275 2.45103 11.4962 -0.848199 17.795 0.189462C24.5437 1.3021 29.7041 6.36221 30.7868 12.9292C32.2082 21.5462 26.3739 29.5693 17.7224 30.8307C14.1091 31.3568 10.7063 30.6541 7.57208 28.7614C7.17652 28.5232 6.8487 28.4603 6.40233 28.6127C4.86122 29.1399 3.30317 29.6213 1.75117 30.1171C1.56609 30.1764 1.37617 30.2163 1.0919 30.2901ZM6.51846 11.3546C6.56201 11.7138 6.58499 12.0754 6.65153 12.4297C6.96725 14.1023 7.90111 15.4617 8.87368 16.8053C11.5362 20.4807 14.9559 23.047 19.4534 24.0133C20.0691 24.1452 20.7587 24.2056 21.3623 24.0702C23.8578 23.5102 24.828 22.2295 24.834 20.1892C24.8352 19.957 24.6719 19.6075 24.4832 19.5095C23.3038 18.9 22.099 18.3413 20.8966 17.7765C20.4538 17.5685 20.0691 17.6821 19.7716 18.0667C19.4643 18.4658 19.1752 18.8782 18.8631 19.2737C18.2643 20.032 17.9946 20.0997 17.1055 19.7212C14.6256 18.6654 12.7761 16.9021 11.3753 14.6272C11.12 14.2112 11.1636 13.8834 11.4757 13.5412C11.8011 13.1844 12.1628 12.8434 12.4107 12.437C12.5813 12.1576 12.7362 11.721 12.637 11.4513C12.1652 10.1694 11.6124 8.91524 11.0644 7.66231C10.9833 7.47727 10.7922 7.24023 10.6204 7.21121C9.69021 7.05157 8.76723 7.01529 8.01966 7.76511C7.03257 8.7556 6.54628 9.95291 6.51846 11.3546Z" fill="#373563"/>
</svg>
